<svg width="517" height="593" viewBox="0 0 517 593" fill="none" xmlns="http://www.w3.org/2000/svg">
<path d="M516.591 579.999H0V591.962H516.591V579.999Z" fill="#E0E0E0"/>
<path d="M5.2124 592.193C5.2124 592.193 5.2124 591.982 5.2124 591.52C5.2124 591.058 5.2124 590.328 5.2124 589.404C5.2124 587.481 5.2124 584.615 5.2124 580.73V580.557H5.36628C35.8332 580.326 136.293 580.172 255.41 580.172L440.289 580.326L496.299 580.499L511.532 580.614L496.299 580.73L440.289 580.903L255.41 581.076C136.389 581.076 35.9293 580.903 5.46243 580.672L5.6163 580.518C5.6163 584.365 5.6163 587.269 5.6163 589.193C5.6163 590.116 5.6163 590.808 5.6163 591.308C5.6163 591.809 5.2124 592.193 5.2124 592.193Z" fill="#263238"/>
<path d="M66.7233 580.845C67.467 584.591 67.467 588.447 66.7233 592.193C65.9796 588.447 65.9796 584.591 66.7233 580.845Z" fill="#263238"/>
<path d="M134.466 580.845C135.21 584.591 135.21 588.447 134.466 592.193C133.722 588.447 133.722 584.591 134.466 580.845Z" fill="#263238"/>
<path d="M202.208 580.845C202.952 584.591 202.952 588.447 202.208 592.193C201.464 588.447 201.464 584.591 202.208 580.845Z" fill="#263238"/>
<path d="M269.951 580.845C270.695 584.591 270.695 588.447 269.951 592.193C269.208 588.447 269.208 584.591 269.951 580.845Z" fill="#263238"/>
<path d="M337.694 580.845C338.438 584.591 338.438 588.447 337.694 592.193C336.95 588.447 336.95 584.591 337.694 580.845Z" fill="#263238"/>
<path d="M405.437 580.845C406.18 584.591 406.18 588.447 405.437 592.193C404.693 588.447 404.693 584.591 405.437 580.845Z" fill="#263238"/>
<path d="M473.102 580.845C473.846 584.591 473.846 588.447 473.102 592.193C472.359 588.447 472.359 584.591 473.102 580.845Z" fill="#263238"/>
<path d="M227.925 0.53125H91.0352V579.422H227.925V0.53125Z" fill="#455A64"/>
<path d="M157.989 29.4209H116.386V109.589H157.989V29.4209Z" fill="white"/>
<path d="M138.428 109.608C138.12 109.608 137.87 91.6434 137.87 69.5049C137.87 47.3664 138.12 29.4209 138.428 29.4209C138.736 29.4209 138.966 47.3664 138.966 69.5049C138.966 91.6434 138.678 109.608 138.428 109.608Z" fill="#263238"/>
<path d="M157.989 57.2721C151.073 57.8292 144.133 58.0154 137.197 57.8299C130.255 58.0155 123.308 57.8293 116.386 57.2721C123.308 56.7149 130.255 56.5287 137.197 56.7143C144.133 56.5288 151.073 56.715 157.989 57.2721Z" fill="#263238"/>
<path d="M158.22 85.9501C151.24 86.5068 144.235 86.693 137.236 86.5079C130.242 86.6933 123.244 86.5071 116.271 85.9501C123.244 85.3932 130.242 85.207 137.236 85.3924C144.235 85.2073 151.24 85.3935 158.22 85.9501Z" fill="#263238"/>
<path d="M158.163 135.209H116.559V215.377H158.163V135.209Z" fill="white"/>
<path d="M138.524 215.396C138.216 215.396 137.966 197.451 137.966 175.312C137.966 153.173 138.216 135.228 138.524 135.228C138.832 135.228 139.082 153.173 139.082 175.312C139.082 197.451 138.832 215.396 138.524 215.396Z" fill="#263238"/>
<path d="M158.163 163.06C151.24 163.616 144.293 163.803 137.351 163.618C130.416 163.803 123.475 163.617 116.559 163.06C123.475 162.503 130.416 162.317 137.351 162.502C144.293 162.317 151.24 162.503 158.163 163.06Z" fill="#263238"/>
<path d="M158.374 191.738C151.4 192.295 144.402 192.481 137.409 192.296C130.409 192.481 123.404 192.295 116.424 191.738C123.404 191.181 130.409 190.994 137.409 191.18C144.402 190.995 151.4 191.181 158.374 191.738Z" fill="#263238"/>
<path d="M158.163 240.073H116.559V320.241H158.163V240.073Z" fill="white"/>
<path d="M138.524 320.241C138.216 320.241 137.966 302.296 137.966 280.157C137.966 258.019 138.216 240.073 138.524 240.073C138.832 240.073 139.082 258.019 139.082 280.157C139.082 302.296 138.832 320.241 138.524 320.241Z" fill="#263238"/>
<path d="M158.163 267.925C151.24 268.481 144.293 268.667 137.351 268.482C130.416 268.668 123.475 268.482 116.559 267.925C123.475 267.367 130.416 267.181 137.351 267.367C144.293 267.182 151.24 267.368 158.163 267.925Z" fill="#263238"/>
<path d="M158.374 296.603C151.4 297.16 144.402 297.346 137.409 297.16C130.409 297.346 123.404 297.16 116.424 296.603C123.404 296.045 130.409 295.859 137.409 296.045C144.402 295.86 151.4 296.046 158.374 296.603Z" fill="#263238"/>
<path d="M158.163 347.958H116.559V428.126H158.163V347.958Z" fill="white"/>
<path d="M138.524 428.145C138.216 428.145 137.966 410.2 137.966 388.061C137.966 365.923 138.216 347.958 138.524 347.958C138.832 347.958 139.082 365.903 139.082 388.061C139.082 410.219 138.832 428.145 138.524 428.145Z" fill="#263238"/>
<path d="M158.163 375.809C151.24 376.366 144.293 376.552 137.351 376.367C130.416 376.552 123.475 376.366 116.559 375.809C123.476 375.276 130.416 375.097 137.351 375.27C144.293 375.097 151.239 375.277 158.163 375.809Z" fill="#263238"/>
<path d="M158.374 404.487C151.4 405.044 144.402 405.23 137.409 405.045C130.409 405.23 123.404 405.044 116.424 404.487C123.404 403.93 130.409 403.744 137.409 403.929C144.402 403.744 151.4 403.93 158.374 404.487Z" fill="#263238"/>
<path d="M286.146 0.53125H186.398V579.422H286.146V0.53125Z" fill="#455A64"/>
<g opacity="0.3">
<path d="M286.146 0.53125H186.398V579.422H286.146V0.53125Z" fill="black"/>
</g>
<path d="M256.314 29.4209H214.711V109.589H256.314V29.4209Z" fill="white"/>
<path d="M236.696 109.608C236.388 109.608 236.138 91.6434 236.138 69.5049C236.138 47.3664 236.388 29.4209 236.696 29.4209C237.003 29.4209 237.253 47.3664 237.253 69.5049C237.253 91.6434 237.003 109.608 236.696 109.608Z" fill="#263238"/>
<path d="M256.314 57.2721C249.399 57.8292 242.458 58.0154 235.522 57.8299C228.58 58.0155 221.633 57.8293 214.711 57.2721C221.633 56.7149 228.58 56.5287 235.522 56.7143C242.458 56.5288 249.399 56.715 256.314 57.2721Z" fill="#263238"/>
<path d="M256.545 85.9501C249.565 86.5068 242.56 86.693 235.56 86.5079C228.567 86.6933 221.569 86.5071 214.595 85.9501C221.569 85.3932 228.567 85.207 235.56 85.3924C242.56 85.2073 249.565 85.3935 256.545 85.9501Z" fill="#263238"/>
<path d="M256.487 138.229H214.884V218.396H256.487V138.229Z" fill="white"/>
<path d="M236.849 218.416C236.542 218.416 236.292 200.451 236.292 178.312C236.292 156.174 236.542 138.229 236.849 138.229C237.157 138.229 237.407 156.174 237.407 178.312C237.407 200.451 237.157 218.416 236.849 218.416Z" fill="#263238"/>
<path d="M256.487 166.08C249.565 166.636 242.618 166.822 235.676 166.637C228.74 166.823 221.8 166.637 214.884 166.08C221.8 165.523 228.74 165.336 235.676 165.522C242.618 165.337 249.565 165.523 256.487 166.08Z" fill="#263238"/>
<path d="M256.699 194.758C249.725 195.315 242.727 195.501 235.733 195.315C228.734 195.501 221.729 195.315 214.749 194.758C221.729 194.2 228.734 194.014 235.733 194.2C242.727 194.015 249.725 194.201 256.699 194.758Z" fill="#263238"/>
<path d="M256.487 240.073H214.884V320.241H256.487V240.073Z" fill="white"/>
<path d="M236.849 320.241C236.542 320.241 236.292 302.296 236.292 280.157C236.292 258.019 236.542 240.073 236.849 240.073C237.157 240.073 237.407 258.019 237.407 280.157C237.407 302.296 237.157 320.241 236.849 320.241Z" fill="#263238"/>
<path d="M256.487 267.925C249.565 268.481 242.618 268.667 235.676 268.482C228.74 268.668 221.8 268.482 214.884 267.925C221.8 267.367 228.74 267.181 235.676 267.367C242.618 267.182 249.565 267.368 256.487 267.925Z" fill="#263238"/>
<path d="M256.699 296.603C249.725 297.16 242.727 297.346 235.733 297.16C228.734 297.346 221.729 297.16 214.749 296.603C221.729 296.045 228.734 295.859 235.733 296.045C242.727 295.86 249.725 296.046 256.699 296.603Z" fill="#263238"/>
<path d="M258.18 349.708H216.576V429.876H258.18V349.708Z" fill="white"/>
<path d="M238.542 429.876C238.234 429.876 238.003 411.931 238.003 389.792C238.003 367.653 238.234 349.708 238.542 349.708C238.85 349.708 239.1 367.653 239.1 389.792C239.1 411.931 238.85 429.876 238.542 429.876Z" fill="#263238"/>
<path d="M258.18 377.559C251.264 378.116 244.323 378.302 237.388 378.117C230.445 378.303 223.498 378.116 216.576 377.559C223.498 377.002 230.445 376.816 237.388 377.001C244.323 376.816 251.264 377.002 258.18 377.559Z" fill="#263238"/>
<path d="M258.391 406.237C251.418 406.794 244.42 406.98 237.426 406.795C230.433 406.98 223.435 406.794 216.461 406.237C223.435 405.68 230.433 405.494 237.426 405.679C244.42 405.494 251.418 405.68 258.391 406.237Z" fill="#263238"/>
<path d="M158.163 458.4H116.559V538.568H158.163V458.4Z" fill="white"/>
<path d="M138.524 538.53C138.216 538.53 137.966 520.565 137.966 498.426C137.966 476.288 138.216 458.343 138.524 458.343C138.832 458.343 139.082 476.288 139.082 498.426C139.082 520.565 138.832 538.53 138.524 538.53Z" fill="#263238"/>
<path d="M158.163 486.251C151.24 486.808 144.293 486.994 137.351 486.809C130.416 486.995 123.475 486.808 116.559 486.251C123.475 485.694 130.416 485.508 137.351 485.693C144.293 485.508 151.24 485.695 158.163 486.251Z" fill="#263238"/>
<path d="M158.374 514.93C151.4 515.487 144.402 515.673 137.409 515.487C130.409 515.673 123.404 515.487 116.424 514.93C123.404 514.372 130.409 514.186 137.409 514.372C144.402 514.186 151.4 514.373 158.374 514.93Z" fill="#263238"/>
<path d="M256.487 461.843H214.884V542.011H256.487V461.843Z" fill="white"/>
<path d="M236.849 542.011C236.542 542.011 236.292 524.066 236.292 501.927C236.292 479.789 236.542 461.843 236.849 461.843C237.157 461.843 237.407 479.789 237.407 501.927C237.407 524.066 237.157 542.011 236.849 542.011Z" fill="#263238"/>
<path d="M256.487 489.694C249.565 490.251 242.618 490.437 235.676 490.252C228.74 490.438 221.8 490.251 214.884 489.694C221.8 489.137 228.74 488.951 235.676 489.137C242.618 488.952 249.565 489.138 256.487 489.694Z" fill="#263238"/>
<path d="M256.699 518.372C249.725 518.929 242.727 519.116 235.733 518.93C228.734 519.116 221.729 518.93 214.749 518.372C221.729 517.815 228.734 517.629 235.733 517.815C242.727 517.629 249.725 517.815 256.699 518.372Z" fill="#263238"/>
<path d="M354.274 321.722H402.782V251.614H354.274V321.722Z" fill="#C33633"/>
<g opacity="0.3">
<path d="M354.274 321.722H402.782V251.614H354.274V321.722Z" fill="black"/>
</g>
<path d="M310.631 321.722H359.14V251.614H310.631V321.722Z" fill="#C33633"/>
<path d="M322.21 307.566C322.21 307.566 322.21 307.335 322.21 306.854C322.21 306.373 322.21 305.585 322.21 304.7C322.21 302.777 322.21 299.949 322.21 296.468C322.21 289.332 322.114 279.311 322.037 267.617V267.328H344.233L344.58 267.694V278.869C344.58 282.504 344.58 286.004 344.58 289.39C344.58 296.122 344.58 302.277 344.58 307.604V307.874H344.233L328.057 307.739H323.691H322.576C322.326 307.739 322.21 307.739 322.21 307.739H322.633H323.807H328.231L344.233 307.604L343.964 307.855C343.964 302.527 343.964 296.314 343.964 289.64C343.964 286.255 343.964 282.754 343.964 279.119V267.944C343.656 267.617 344.387 268.348 344.31 268.271H322.21L322.537 267.944C322.537 279.484 322.422 289.486 322.383 296.583C322.383 300.084 322.383 302.892 322.287 304.873C322.287 305.796 322.287 306.547 322.287 307.104C322.272 307.26 322.246 307.414 322.21 307.566Z" fill="#263238"/>
<path d="M326.615 289.755C326.615 289.755 327.154 289.755 327.423 290.313C327.502 290.503 327.532 290.709 327.512 290.914C327.492 291.119 327.422 291.315 327.308 291.486C327.137 291.689 326.908 291.835 326.652 291.906C326.396 291.976 326.125 291.966 325.875 291.879C325.625 291.791 325.407 291.629 325.25 291.415C325.094 291.2 325.006 290.944 325 290.678C325.021 290.472 325.092 290.273 325.206 290.099C325.319 289.925 325.473 289.781 325.653 289.678C326.269 289.351 326.692 289.678 326.615 289.678C326.538 289.678 326.25 289.678 325.923 290.005C325.823 290.074 325.745 290.169 325.698 290.281C325.651 290.392 325.637 290.515 325.657 290.634C325.677 290.753 325.731 290.864 325.812 290.954C325.893 291.044 325.998 291.108 326.115 291.14C326.711 291.371 327.038 290.832 326.942 290.371C326.846 289.909 326.596 289.851 326.615 289.755Z" fill="#263238"/>
<path d="M261.2 579.864H462.37L462.37 308.72H261.2V579.864Z" fill="#C33633"/>
<path d="M381.817 579.864L489.721 579.999V308.739H381.817V579.864Z" fill="#C33633"/>
<g opacity="0.3">
<path d="M381.817 579.864L489.721 579.999V308.739H381.817V579.864Z" fill="black"/>
</g>
<path d="M275.971 492.637H312.766V455.842H275.971V492.637Z" fill="#EBEBEB"/>
<path d="M292.955 496.33C292.763 496.33 292.609 486.809 292.609 475.172C292.609 463.536 292.763 454.015 292.955 454.015C293.147 454.015 293.301 463.517 293.301 475.172C293.301 486.828 293.147 496.33 292.955 496.33Z" fill="#455A64"/>
<path d="M269.066 468.171C269.066 467.979 279.761 467.825 292.955 467.825C306.15 467.825 316.863 467.979 316.863 468.171C316.863 468.364 306.169 468.517 292.955 468.517C279.741 468.517 269.066 468.364 269.066 468.171Z" fill="#455A64"/>
<path d="M328.461 492.637H365.256V455.842H328.461V492.637Z" fill="#EBEBEB"/>
<path d="M345.446 496.33C345.253 496.33 345.08 486.809 345.08 475.172C345.08 463.536 345.253 454.015 345.446 454.015C345.638 454.015 345.792 463.517 345.792 475.172C345.792 486.828 345.638 496.33 345.446 496.33Z" fill="#455A64"/>
<path d="M321.537 468.171C321.537 467.979 332.231 467.825 345.426 467.825C358.621 467.825 369.334 467.979 369.334 468.171C369.334 468.364 358.64 468.517 345.426 468.517C332.212 468.517 321.537 468.364 321.537 468.171Z" fill="#455A64"/>
<path d="M275.971 434.511H312.766V397.717H275.971V434.511Z" fill="#EBEBEB"/>
<path d="M292.955 438.205C292.763 438.205 292.609 428.684 292.609 417.047C292.609 405.41 292.763 395.889 292.955 395.889C293.147 395.889 293.301 405.391 293.301 417.047C293.301 428.703 293.147 438.205 292.955 438.205Z" fill="#455A64"/>
<path d="M269.066 410.046C269.066 409.853 279.761 409.699 292.955 409.699C306.15 409.699 316.863 409.853 316.863 410.046C316.863 410.238 306.169 410.392 292.955 410.392C279.741 410.392 269.066 410.238 269.066 410.046Z" fill="#455A64"/>
<path d="M328.461 434.511H365.256V397.717H328.461V434.511Z" fill="#EBEBEB"/>
<path d="M345.446 438.205C345.253 438.205 345.08 428.684 345.08 417.047C345.08 405.41 345.253 395.889 345.446 395.889C345.638 395.889 345.792 405.391 345.792 417.047C345.792 428.703 345.638 438.205 345.446 438.205Z" fill="#455A64"/>
<path d="M321.537 410.046C321.537 409.853 332.231 409.699 345.426 409.699C358.621 409.699 369.334 409.853 369.334 410.046C369.334 410.238 358.64 410.392 345.426 410.392C332.212 410.392 321.537 410.238 321.537 410.046Z" fill="#455A64"/>
<path d="M275.971 376.232H312.766V339.437H275.971V376.232Z" fill="#EBEBEB"/>
<path d="M292.955 379.944C292.763 379.944 292.609 370.423 292.609 358.787C292.609 347.15 292.763 337.629 292.955 337.629C293.147 337.629 293.301 347.131 293.301 358.787C293.301 370.443 293.147 379.944 292.955 379.944Z" fill="#455A64"/>
<path d="M269.066 351.785C269.066 351.593 279.761 351.439 292.955 351.439C306.15 351.439 316.863 351.593 316.863 351.785C316.863 351.978 306.169 352.132 292.955 352.132C279.741 352.132 269.066 351.959 269.066 351.785Z" fill="#455A64"/>
<path d="M328.461 376.232H365.256V339.437H328.461V376.232Z" fill="#EBEBEB"/>
<path d="M345.446 379.944C345.253 379.944 345.08 370.423 345.08 358.787C345.08 347.15 345.253 337.629 345.446 337.629C345.638 337.629 345.792 347.131 345.792 358.787C345.792 370.443 345.638 379.944 345.446 379.944Z" fill="#455A64"/>
<path d="M321.537 351.785C321.537 351.593 332.231 351.439 345.426 351.439C358.621 351.439 369.334 351.593 369.334 351.785C369.334 351.978 358.64 352.132 345.426 352.132C332.212 352.132 321.537 351.959 321.537 351.785Z" fill="#455A64"/>
<g opacity="0.7">
<path d="M418.766 376.232H455.561V339.437H418.766V376.232Z" fill="white"/>
</g>
<path d="M437.173 379.944C436.981 379.944 436.827 370.423 436.827 358.787C436.827 347.15 436.981 337.629 437.173 337.629C437.365 337.629 437.519 347.131 437.519 358.787C437.519 370.443 437.365 379.944 437.173 379.944Z" fill="#263238"/>
<path d="M411.861 351.785C411.861 351.593 422.574 351.439 435.769 351.439C448.964 351.439 459.658 351.593 459.658 351.785C459.658 351.978 448.964 352.132 435.769 352.132C422.574 352.132 411.861 351.959 411.861 351.785Z" fill="#263238"/>
<g opacity="0.7">
<path d="M418.766 435.069H455.561V398.274H418.766V435.069Z" fill="white"/>
</g>
<path d="M437.173 438.781C436.981 438.781 436.827 429.261 436.827 417.624C436.827 405.987 436.981 396.466 437.173 396.466C437.365 396.466 437.519 405.968 437.519 417.624C437.519 429.28 437.365 438.781 437.173 438.781Z" fill="#263238"/>
<path d="M411.861 410.623C411.861 410.43 422.574 410.276 435.769 410.276C448.964 410.276 459.658 410.43 459.658 410.623C459.658 410.815 448.964 410.969 435.769 410.969C422.574 410.969 411.861 410.815 411.861 410.623Z" fill="#263238"/>
<g opacity="0.7">
<path d="M418.766 493.926H455.561V457.131H418.766V493.926Z" fill="white"/>
</g>
<path d="M437.173 497.6C436.981 497.6 436.827 488.098 436.827 476.442C436.827 464.786 436.981 455.284 437.173 455.284C437.365 455.284 437.519 464.805 437.519 476.442C437.519 488.079 437.365 497.6 437.173 497.6Z" fill="#263238"/>
<path d="M411.861 469.46C411.861 469.268 422.574 469.114 435.769 469.114C448.964 469.114 459.658 469.268 459.658 469.46C459.658 469.652 448.964 469.806 435.769 469.806C422.574 469.806 411.861 469.652 411.861 469.46Z" fill="#263238"/>
<path d="M302.861 578.652C302.861 578.652 302.861 578.537 302.861 578.325C302.861 578.114 302.861 577.748 302.861 577.344C302.861 576.434 302.861 575.184 302.861 573.594C302.861 570.266 302.861 565.515 302.765 559.591C302.765 547.608 302.765 530.913 302.63 511.775V511.448H341.098V511.775C341.098 531.009 341.098 547.916 340.983 560.014C340.983 565.996 340.983 570.805 340.983 574.152C340.983 575.786 340.983 577.037 340.983 577.998C340.983 578.402 340.983 578.729 340.983 578.979C340.983 579.229 340.983 579.306 340.983 579.306C340.975 579.197 340.975 579.088 340.983 578.979C340.983 578.729 340.983 578.402 340.983 577.998C340.983 577.075 340.983 575.825 340.983 574.152C340.983 570.805 340.983 565.996 340.983 560.014C340.983 547.916 340.983 531.067 340.867 511.775L341.194 512.121H303.495L303.842 511.775C303.842 531.009 303.745 547.608 303.707 559.591C303.707 565.515 303.707 570.266 303.611 573.594C303.611 575.197 303.611 576.447 303.611 577.344C303.611 577.748 303.611 578.075 303.611 578.325C303.611 578.575 302.861 578.652 302.861 578.652Z" fill="#263238"/>
<path d="M322.98 546.512H335.828V515.757H322.98V546.512Z" fill="#E0E0E0"/>
<path d="M335.866 546.551H322.941V515.776H335.866V546.551ZM322.999 546.551H335.789V515.776H323.076L322.999 546.551Z" fill="#263238"/>
<path d="M307.612 546.512H320.46V515.757H307.612V546.512Z" fill="#E0E0E0"/>
<path d="M320.499 546.551H307.573V515.776H320.499V546.551ZM307.631 546.551H320.422V515.776H307.689L307.631 546.551Z" fill="#263238"/>
<path d="M307.342 549.705C307.342 549.801 306.707 549.801 306.419 550.532C306.333 550.726 306.289 550.935 306.289 551.147C306.289 551.359 306.333 551.569 306.419 551.763C306.541 551.975 306.723 552.146 306.942 552.255C307.161 552.365 307.407 552.408 307.65 552.378C307.887 552.312 308.1 552.178 308.263 551.994C308.427 551.81 308.535 551.583 308.573 551.34C308.609 551.133 308.588 550.92 308.514 550.724C308.439 550.528 308.314 550.355 308.15 550.224C307.534 549.724 306.957 549.84 306.938 549.743C306.919 549.647 307.534 549.282 308.438 549.84C308.703 550.002 308.916 550.237 309.053 550.516C309.189 550.796 309.243 551.108 309.208 551.417C309.208 551.836 309.06 552.241 308.789 552.561C308.519 552.881 308.144 553.094 307.731 553.164C307.318 553.233 306.893 553.153 306.533 552.939C306.173 552.725 305.901 552.39 305.765 551.994C305.647 551.712 305.597 551.407 305.621 551.102C305.644 550.798 305.74 550.504 305.9 550.243C305.997 550.066 306.131 549.913 306.294 549.793C306.457 549.673 306.644 549.591 306.842 549.551C307.207 549.59 307.342 549.647 307.342 549.705Z" fill="#263238"/>
<path d="M267.797 511.775C267.788 511.634 267.788 511.493 267.797 511.352C267.797 510.986 267.797 510.563 267.797 510.063C267.797 508.794 267.797 507.159 267.797 505.158H267.893H289.359L289.493 505.293V511.987H289.359H273.971H269.49H274.01H289.397L289.262 512.121V505.562C289.532 505.851 289.262 505.562 289.397 505.716H267.932V505.62C267.932 507.544 267.932 509.217 267.932 510.467C267.932 510.967 267.932 511.41 267.932 511.775C267.932 512.14 267.797 511.775 267.797 511.775Z" fill="#263238"/>
<path d="M351.312 498.138C351.304 497.991 351.304 497.843 351.312 497.696C351.312 497.33 351.312 496.907 351.312 496.407C351.312 495.157 351.312 493.522 351.312 491.521V491.425H351.408H372.873C372.873 491.425 372.739 491.271 373.008 491.56V498.292H372.873H357.486H353.004H357.505H372.893L372.758 498.446V491.848L372.893 491.983H351.427C351.427 493.906 351.427 495.58 351.427 496.811C351.427 497.33 351.427 497.753 351.427 498.119C351.427 498.484 351.312 498.138 351.312 498.138Z" fill="#263238"/>
<path d="M364.699 444.283C364.699 444.283 364.699 444.148 364.699 443.859V442.571C364.699 441.32 364.699 439.686 364.699 437.666H386.164L386.318 437.801V444.494H386.183H370.796H366.314H370.815H386.202L386.068 444.629C386.068 443.59 386.068 442.494 386.068 441.397V438.07C386.356 438.358 386.068 438.07 386.202 438.224H364.737L364.833 438.128C364.833 440.051 364.833 441.744 364.833 442.975V444.283C364.788 444.283 364.744 444.283 364.699 444.283Z" fill="#263238"/>
<path d="M287.512 386.388V385.945C287.512 385.58 287.512 385.157 287.512 384.656C287.512 383.406 287.512 381.771 287.512 379.771H308.997L309.131 379.906V386.58H308.997H293.609H289.128H293.629H309.016L308.881 386.734C308.881 385.676 308.881 384.599 308.881 383.483V380.136L309.035 380.271H287.551H287.647C287.647 382.195 287.647 383.868 287.647 385.099V386.407C287.531 386.214 287.512 386.388 287.512 386.388Z" fill="#263238"/>
<path d="M348.619 324.569C348.61 324.428 348.61 324.287 348.619 324.146C348.619 323.781 348.619 323.357 348.619 322.857C348.619 321.575 348.619 319.94 348.619 317.953H370.084L370.219 318.087V324.781H370.084H354.697H350.215H354.716H370.103L369.969 324.915V318.357C370.238 318.645 369.969 318.357 370.103 318.51H348.638V318.414C348.638 320.338 348.638 322.03 348.638 323.261C348.638 323.761 348.638 324.204 348.638 324.569C348.638 324.935 348.619 324.569 348.619 324.569Z" fill="#263238"/>
<path d="M274.51 392.773C274.501 392.633 274.501 392.491 274.51 392.35V391.062C274.51 389.811 274.51 388.177 274.51 386.176V386.08H274.606H296.071C296.071 386.08 295.936 385.945 296.225 386.234V389.561C296.225 390.677 296.225 391.754 296.225 392.793V392.927H296.09H280.703H276.241H280.741H296.129L295.994 393.062V386.503L296.129 386.638H274.663H274.76C274.76 388.561 274.76 390.235 274.76 391.466C274.76 391.985 274.76 392.408 274.76 392.773C274.676 392.776 274.593 392.776 274.51 392.773Z" fill="#263238"/>
<path d="M373.912 450.764C373.912 450.764 373.912 450.63 373.912 450.341C373.912 450.053 373.912 449.553 373.912 449.052C373.912 447.783 373.912 446.148 373.912 444.148H395.377L395.531 444.282V447.61C395.531 448.706 395.531 449.783 395.531 450.841V450.976H395.396H380.009H375.547H380.047H395.435L395.3 451.11V444.282L395.435 444.417H373.969L374.066 444.321C374.066 446.296 374.066 447.911 374.066 449.168C374.066 449.668 374.066 450.091 374.066 450.476C374.066 450.86 373.912 450.764 373.912 450.764Z" fill="#263238"/>
<path d="M364.699 331.186C364.699 331.186 364.699 331.051 364.699 330.762V329.474C364.699 328.204 364.699 326.569 364.699 324.569H386.164L386.318 324.704V331.397H386.183H370.796H366.314H370.815H386.202L386.068 331.532C386.068 330.474 386.068 329.397 386.068 328.301V324.973L386.202 325.108H364.737L364.833 325.011C364.833 326.999 364.833 328.615 364.833 329.858V330.801C364.718 331.013 364.699 331.186 364.699 331.186Z" fill="#263238"/>
<path d="M260.834 518.392C260.825 518.251 260.825 518.109 260.834 517.969C260.834 517.603 260.834 517.18 260.834 516.68C260.834 515.43 260.834 513.795 260.834 511.775H260.93H282.396L282.53 511.91V518.603H282.396H267.008H262.527H267.047H282.434L282.3 518.738V515.507C282.3 514.949 282.3 514.391 282.3 513.833V512.179L282.453 512.333H260.988V512.237C260.988 514.16 260.988 515.853 260.988 517.084C260.988 517.584 260.988 518.026 260.988 518.392H260.834Z" fill="#263238"/>
</svg>
