<svg width="116" height="118" viewBox="0 0 116 118" fill="none" xmlns="http://www.w3.org/2000/svg">
<path d="M112 59C114.209 59 116.014 57.2071 115.867 55.0029C115.441 48.6227 113.997 42.3462 111.585 36.4217C108.67 29.2635 104.398 22.7594 99.0122 17.2807C93.6264 11.802 87.2325 7.45613 80.1956 4.49111C73.1588 1.52608 65.6167 -3.38675e-07 58 0C50.3833 3.38675e-07 42.8412 1.52608 35.8044 4.49111C28.7675 7.45614 22.3736 11.802 16.9878 17.2807C11.602 22.7594 7.32976 29.2635 4.41499 36.4217C2.00257 42.3462 0.559143 48.6227 0.133251 55.0029C-0.013886 57.2071 1.79086 59 4 59L58 59H112Z" fill="#C33633"/>
<ellipse cx="53.4889" cy="30.1413" rx="9.66667" ry="9.61956" fill="#EEEBDD"/>
<ellipse cx="67.9888" cy="39.4402" rx="4.83333" ry="4.80978" fill="#EEEBDD"/>
<line x1="48.5557" y1="47.0574" x2="48.5557" y2="29.9348" stroke="#EEEBDD" stroke-width="6" stroke-linecap="round"/>
<line x1="65.5222" y1="48.5217" x2="65.5222" y2="39.9782" stroke="#EEEBDD" stroke-width="3" stroke-linecap="round"/>
<line x1="2" y1="64.6957" x2="114" y2="64.6957" stroke="#C33633" stroke-width="4" stroke-linecap="round"/>
</svg>
