<svg width="1618" height="1613" viewBox="0 0 1618 1613" fill="none" xmlns="http://www.w3.org/2000/svg">
<path d="M809 1379.31C1155.52 1379.31 1436.43 1362.96 1436.43 1342.79C1436.43 1322.62 1155.52 1306.27 809 1306.27C462.481 1306.27 181.572 1322.62 181.572 1342.79C181.572 1362.96 462.481 1379.31 809 1379.31Z" fill="#121212"/>
<path d="M795.506 332.084H751.108C744.513 332.084 739.167 337.414 739.167 343.988V388.249C739.167 394.823 744.513 400.153 751.108 400.153H795.506C802.101 400.153 807.447 394.823 807.447 388.249V343.988C807.447 337.414 802.101 332.084 795.506 332.084Z" fill="#BE0000"/>
<path opacity="0.6" d="M753.988 353.634C758.454 345.601 767.773 348.182 772.822 354.021C777.287 347.731 786.348 344.343 791.558 351.86C800.295 364.764 784.148 377.668 776.478 382.733C775.604 383.313 774.893 383.83 774.278 384.184L771.948 382.959C763.696 378.571 746.416 367.183 753.988 353.634Z" fill="white"/>
<path d="M767.353 395.217C767.353 395.217 777.287 415.186 797.642 420.606C797.642 420.606 786.251 414.767 786.089 393.475L767.353 395.217Z" fill="#BE0000"/>
<path d="M487.245 581.454C514.039 589.777 514.686 617.231 576.008 671.589C610.18 701.881 664.739 714.72 664.739 714.72L657.361 735.754C657.361 735.754 575.555 738.238 491.84 641.071L487.245 581.454Z" fill="#BE0000"/>
<path opacity="0.6" d="M664.739 714.72L657.361 735.754C647.525 735.59 637.746 734.236 628.237 731.721C625.745 731.108 623.092 730.431 620.341 729.624C611.065 726.948 601.993 723.617 593.191 719.656C590.829 718.591 588.402 717.462 585.91 716.236C577.874 712.318 570.063 707.956 562.514 703.171C560.357 701.773 558.124 700.322 555.815 698.816C549.473 694.515 543.001 689.74 536.399 684.493C534.361 682.88 532.322 681.267 530.251 679.396C527.015 676.557 523.455 673.524 520.025 670.363C517.631 668.169 515.236 665.879 512.841 663.524C510.447 661.169 508.958 659.717 507.016 657.717C502.324 652.846 497.535 647.684 492.778 642.168C492.43 641.824 492.105 641.458 491.807 641.071L490.125 619.263L489.154 606.617L487.212 581.454C488.701 581.938 490.125 582.422 491.451 583.003C494.396 584.302 497.167 585.96 499.703 587.938C506.919 593.455 512.647 601.617 521.352 612.811C523.391 615.489 525.559 618.36 527.824 621.424C533.228 628.167 539.635 635.812 547.693 644.393C549.667 646.49 551.738 648.62 553.906 650.845C559.084 656.104 564.876 661.685 571.381 667.588C572.837 668.879 574.293 670.234 575.814 671.556C576.493 672.169 577.141 672.75 577.853 673.298C584.508 678.886 591.631 683.894 599.145 688.267C601.508 689.654 603.838 690.977 606.232 692.235C613.864 696.301 621.706 699.962 629.726 703.203C632.347 704.236 634.838 705.236 637.265 706.107C646.246 709.512 655.42 712.388 664.739 714.72Z" fill="white"/>
<path d="M492.81 642.168C492.462 641.824 492.138 641.458 491.84 641.071L490.157 619.263C491.822 607.251 492.266 595.103 491.484 583.003C494.428 584.302 497.2 585.96 499.735 587.938C500.286 602.681 499.444 623.586 492.81 642.168Z" fill="#BE0000"/>
<path d="M528.018 621.424C525.512 636.241 520.384 650.496 512.874 663.524C510.964 661.653 508.99 659.717 507.049 657.717C514.485 643.771 519.341 628.603 521.384 612.94C523.423 615.489 525.591 618.36 528.018 621.424Z" fill="#BE0000"/>
<path d="M554.1 650.845C549.78 662.803 543.835 674.113 536.432 684.46C534.393 682.847 532.354 681.234 530.283 679.363C537.797 668.593 543.725 656.806 547.887 644.361C549.861 646.49 551.932 648.62 554.1 650.845Z" fill="#BE0000"/>
<path d="M578.047 673.331C574.084 683.843 568.904 693.857 562.611 703.171C560.454 701.773 558.221 700.322 555.912 698.816C562.439 689.122 567.702 678.639 571.575 667.621C573.031 668.911 574.487 670.266 576.008 671.589C576.687 672.202 577.335 672.782 578.047 673.331Z" fill="#BE0000"/>
<path d="M606.426 692.267C602.982 701.814 598.581 710.99 593.288 719.656C590.926 718.591 588.499 717.462 586.007 716.236C591.417 707.413 595.885 698.05 599.34 688.299C601.702 689.686 604.032 691.009 606.426 692.267Z" fill="#BE0000"/>
<path d="M637.492 706.139C635.164 714.903 632.112 723.46 628.366 731.721C625.875 731.108 623.221 730.431 620.471 729.624C624.451 721.143 627.626 712.308 629.952 703.236C632.541 704.268 635.033 705.268 637.492 706.139Z" fill="#BE0000"/>
<path opacity="0.2" d="M520.058 670.363C517.663 668.169 515.268 665.879 512.874 663.524C510.479 661.169 508.99 659.717 507.049 657.717C502.357 652.846 497.567 647.684 492.81 642.168C492.462 641.825 492.138 641.458 491.84 641.071L490.157 619.263L489.186 606.617C498.7 615.489 513.521 634.49 520.058 670.363Z" fill="black"/>
<path d="M392.591 451.834C392.591 451.834 393.692 433.736 375.505 429.961C357.319 426.187 343.728 430.155 337.515 450.575C331.302 470.996 343.987 495.03 344.278 503.321C344.569 511.611 330.493 508.289 332.531 516.676C334.57 525.064 343.857 527.096 343.437 532.129C343.016 537.161 333.373 533.838 335.897 548.71C338.421 563.582 353.533 565.227 356.478 560.421C359.422 555.614 348.485 555.646 355.216 548.71C361.947 541.774 368.807 544.678 366.218 532.129C363.629 519.58 364.503 514.031 376.864 507.385C389.226 500.74 392.591 451.834 392.591 451.834Z" fill="#263238"/>
<path d="M457.311 503.256C457.311 503.256 459.836 479.835 452.749 470.996C447.687 464.978 441.943 459.565 435.63 454.866C429.879 450.79 423.353 447.93 416.453 446.46C409.553 444.99 402.424 444.941 395.504 446.317C372.852 451.317 361.947 472.448 364.438 499.998C365.126 507.981 367.602 515.708 371.685 522.609C375.768 529.51 381.353 535.409 388.029 539.871C388.029 539.871 390.229 554.808 413.205 545.872C436.18 536.935 457.311 503.256 457.311 503.256Z" fill="#263238"/>
<path d="M585.295 1301.76L564.067 1305.5L555.362 1276.66L547.434 1250.17L571.898 1241.66L579.017 1273.46L585.295 1301.76Z" fill="#E4897B"/>
<path d="M559.278 1304.95C558.922 1302.59 588.014 1299.37 588.014 1299.37C588.014 1299.37 608.853 1314.18 626.846 1315.18C644.838 1316.18 636.974 1328.08 617.752 1331.53L570.28 1339.89C556.592 1342.31 563.064 1329.11 559.278 1304.95Z" fill="#263238"/>
<path d="M602.284 1304.21C598.755 1304.05 595.258 1303.48 591.864 1302.5H591.605L591.411 1302.3C591.397 1302.24 591.397 1302.17 591.411 1302.11C591.38 1301.99 591.38 1301.87 591.411 1301.76C591.411 1301.43 592.706 1294.34 596.298 1292.08C596.846 1291.72 597.465 1291.48 598.114 1291.39C598.762 1291.29 599.423 1291.34 600.051 1291.53C601.475 1291.92 602.252 1292.63 602.349 1293.59C602.543 1295.11 600.763 1296.98 598.628 1298.66C600.703 1297.92 602.941 1297.77 605.1 1298.21C605.509 1298.35 605.886 1298.57 606.209 1298.86C606.531 1299.14 606.792 1299.49 606.976 1299.88C607.301 1300.36 607.474 1300.92 607.474 1301.5C607.474 1302.07 607.301 1302.63 606.976 1303.11C606.305 1303.59 605.545 1303.94 604.74 1304.13C603.935 1304.31 603.1 1304.34 602.284 1304.21ZM594.421 1301.56C598.951 1302.59 604.517 1303.27 605.682 1301.92C605.682 1301.92 606.07 1301.43 605.682 1300.37C605.586 1300.16 605.447 1299.98 605.274 1299.83C605.102 1299.68 604.898 1299.56 604.679 1299.5C602.317 1298.69 597.495 1300.27 594.421 1301.56ZM598.66 1292.72C598.085 1292.72 597.522 1292.89 597.042 1293.21C595.042 1295.08 593.694 1297.55 593.191 1300.24C597.171 1297.88 600.893 1294.92 600.731 1293.63C600.731 1293.21 599.954 1292.95 599.534 1292.85C599.251 1292.76 598.956 1292.72 598.66 1292.72Z" fill="#BE0000"/>
<path opacity="0.2" d="M579.115 1274.11L555.492 1277.24L547.499 1250.46L571.931 1241.78L579.115 1274.11Z" fill="black"/>
<path d="M443.623 1310.82H422.071L418.512 1280.92L415.308 1253.46L440.905 1249.3L442.361 1281.88L443.623 1310.82Z" fill="#E4897B"/>
<path d="M417.444 1309.43C417.444 1307.08 446.568 1308.95 446.568 1308.95C446.568 1308.95 464.528 1327.14 481.97 1331.24C499.412 1335.34 489.671 1345.76 470.158 1345.76H421.942C408.221 1345.76 416.861 1333.98 417.444 1309.43Z" fill="#263238"/>
<path d="M462.068 1316.37C457.848 1315.86 453.751 1314.62 449.966 1312.69C449.911 1312.68 449.86 1312.66 449.815 1312.62C449.77 1312.59 449.734 1312.55 449.707 1312.5V1312.34C449.643 1312.15 449.643 1311.94 449.707 1311.76C449.707 1311.47 452.263 1304.66 456.179 1303.01C456.767 1302.74 457.408 1302.6 458.056 1302.6C458.704 1302.6 459.344 1302.74 459.933 1303.01C461.292 1303.66 461.939 1304.47 461.874 1305.47C461.874 1307.01 459.706 1308.53 457.312 1309.79C459.496 1309.43 461.736 1309.69 463.784 1310.53C464.161 1310.74 464.493 1311.02 464.759 1311.36C465.026 1311.7 465.223 1312.08 465.337 1312.5C465.586 1313.04 465.651 1313.65 465.523 1314.23C465.394 1314.81 465.079 1315.34 464.625 1315.72C463.867 1316.21 462.968 1316.44 462.068 1316.37ZM452.619 1312.21C456.923 1314.01 462.327 1315.63 463.654 1314.5C463.654 1314.5 464.139 1314.11 463.848 1312.95C463.782 1312.74 463.674 1312.54 463.529 1312.36C463.385 1312.19 463.207 1312.05 463.007 1311.95C460.903 1310.76 455.888 1311.47 452.619 1312.21ZM457.862 1304.21C457.451 1304.2 457.044 1304.28 456.664 1304.43C454.369 1305.94 452.612 1308.13 451.649 1310.69C455.985 1309.05 460.159 1306.79 460.224 1305.5C460.224 1305.08 459.577 1304.69 459.188 1304.53C458.778 1304.32 458.323 1304.21 457.862 1304.21Z" fill="#BE0000"/>
<path opacity="0.2" d="M442.361 1282.53L418.512 1281.5L415.308 1253.75L440.905 1249.46L442.361 1282.53Z" fill="black"/>
<path d="M581.121 1257.33L546.237 1263.46C511.029 1176.04 485.982 1103.03 468.314 1042.45C458.768 1009.77 451.357 980.704 445.662 954.928L447.248 1050.13V1266.27H411.652C325.477 856.568 386.54 763.014 386.54 763.014L489.639 745.464C493.744 764.426 496.652 783.626 498.344 802.951L503.004 836.921L543.292 1044.39L581.121 1257.33Z" fill="#BE0000"/>
<path d="M540.768 1259.17L584.033 1244.88L583.451 1263.21L547.661 1274.59L540.768 1259.17Z" fill="#263238"/>
<path d="M407.186 1261.17L452.296 1254.59L448.51 1272.56L411.296 1277.56L407.186 1261.17Z" fill="#263238"/>
<path d="M386.702 747.625V762.981L491.84 754.916V736.786L386.702 747.625Z" fill="#263238"/>
<path d="M468.346 741.528H445.274V758.981H468.346V741.528Z" fill="white"/>
<path d="M422.654 741.302H417.444V767.82H422.654V741.302Z" fill="#BE0000"/>
<path d="M486.889 734.27H481.679V760.788H486.889V734.27Z" fill="#BE0000"/>
<path d="M492.293 738.754L387.123 747.819C386.096 721.832 382.343 696.023 375.926 670.814C373.402 660.782 370.263 649.555 366.218 636.619C364.05 629.683 361.655 622.231 358.969 614.23C356.963 608.165 354.795 601.713 352.497 594.874C366.766 590.331 381.344 586.817 396.119 584.358C411.73 581.589 427.518 579.929 443.364 579.39C463.816 579.228 487.309 581.519 487.309 581.519C487.309 581.519 490.545 582.325 492.778 603.939C494.623 624.166 496.499 664.782 492.293 738.754Z" fill="#BE0000"/>
<path opacity="0.6" d="M494.784 662.685C494.784 671.105 494.623 680.363 494.364 690.557C494.364 693.171 494.202 695.784 494.137 698.526C493.814 707.462 493.425 717.043 492.875 727.334C492.875 729.947 492.616 732.625 492.454 735.302C492.454 736.399 492.454 737.496 492.293 738.528L387.123 747.561C387.123 746.754 387.123 745.916 387.123 745.077C387.123 744.238 387.123 742.819 386.896 741.69C386.67 740.561 386.67 738.625 386.573 737.076C385.861 727.205 385.019 717.914 383.628 708.042C383.239 705.494 382.851 702.881 382.43 700.203C381.039 692.009 379.194 683.267 376.832 673.427C376.573 672.492 376.347 671.524 376.088 670.556C375.7 668.943 375.279 667.33 374.858 665.717C372.884 658.298 370.619 650.168 367.868 641.232C367.383 639.651 366.865 638.006 366.38 636.328C366.089 635.457 365.797 634.522 365.506 633.619C364.147 629.296 362.658 624.747 361.105 619.973C360.458 618.005 359.811 616.005 359.131 613.972C357.772 609.843 356.316 605.52 354.795 601.068C354.083 598.918 353.339 596.767 352.562 594.616C366.842 590.08 381.431 586.576 396.216 584.132C411.788 581.424 427.533 579.818 443.332 579.325C463.783 579.164 487.309 581.454 487.309 581.454C487.309 581.454 488.636 581.777 490.189 587.455C491.461 592.855 492.316 598.344 492.746 603.875C493.166 608.165 493.555 613.327 493.878 619.553C494.04 622.037 494.17 624.715 494.267 627.554C494.59 635.264 494.784 644.264 494.849 654.749C494.817 657.297 494.817 659.975 494.784 662.685Z" fill="white"/>
<path d="M475.886 587.132C475.886 587.132 468.735 615.779 441.326 619.102C408.577 623.102 376.865 594.81 376.865 594.81C376.865 594.81 366.736 597.487 354.633 601.262C353.921 599.111 353.177 596.961 352.4 594.81C366.68 590.274 381.269 586.77 396.054 584.325C411.675 581.545 427.474 579.874 443.332 579.325C463.784 579.164 487.309 581.454 487.309 581.454C487.309 581.454 488.636 581.777 490.189 587.455C485.488 586.417 480.629 586.307 475.886 587.132Z" fill="#BE0000"/>
<path d="M494.202 627.554C451.675 627.851 409.29 632.477 367.707 641.361C367.221 639.78 366.703 638.135 366.218 636.458C365.927 635.587 365.636 634.651 365.344 633.748C407.575 624.694 450.619 619.939 493.814 619.553C493.975 622.037 494.105 624.715 494.202 627.554Z" fill="#BE0000"/>
<path d="M494.784 662.685C455.15 662.427 415.587 666.069 376.67 673.556C376.411 672.621 376.185 671.653 375.926 670.685C375.538 669.072 375.117 667.459 374.696 665.846C414.268 658.276 454.491 654.602 494.784 654.878C494.817 657.297 494.817 659.975 494.784 662.685Z" fill="#BE0000"/>
<path d="M494.364 690.558C494.364 693.171 494.202 695.784 494.137 698.526C457.025 698.306 419.973 701.546 383.466 708.204C383.078 705.655 382.689 703.042 382.269 700.365C419.248 693.64 456.775 690.357 494.364 690.558Z" fill="#BE0000"/>
<path d="M492.875 727.334C492.875 729.947 492.616 732.625 492.454 735.302C457.067 735.488 421.765 738.792 386.961 745.174C386.767 742.464 386.605 739.819 386.411 737.173C421.547 730.836 457.169 727.544 492.875 727.334Z" fill="#BE0000"/>
<path opacity="0.2" d="M450.581 723.463L429.773 740.754C415.655 744.082 400.996 744.434 386.734 741.787C386.734 740.238 386.508 738.722 386.411 737.173C385.699 727.302 384.857 718.011 383.466 708.139C383.078 705.591 382.689 702.978 382.269 700.3C380.877 692.106 379.033 683.364 376.67 673.524C376.411 672.589 376.185 671.621 375.926 670.653C375.538 669.04 375.117 667.427 374.696 665.814C372.722 658.394 370.457 650.265 367.707 641.329C367.221 639.748 366.703 638.103 366.218 636.425C365.927 635.554 365.636 634.619 365.344 633.716C363.985 629.393 362.497 624.844 360.943 620.07C364.794 614.005 369.486 611.682 374.696 615.198C403.659 634.812 403.95 697.397 450.581 723.463Z" fill="black"/>
<path d="M434.595 602.488C408.707 599.262 400.908 588.132 400.908 588.132C417.347 572.679 403.691 545.871 403.691 545.871L434.886 551.678C434.174 556.011 433.763 560.387 433.656 564.776C433.43 583.648 442.005 583.841 442.005 583.841C447.474 594.068 434.595 602.488 434.595 602.488Z" fill="#EBB376"/>
<path opacity="0.2" d="M434.886 551.646C434.174 555.978 433.763 560.355 433.656 564.744C412.59 564.744 403.691 545.839 403.691 545.839L434.886 551.646Z" fill="black"/>
<path d="M456.276 518.289C465.563 518.289 469.835 533.645 461.971 538.484C451.843 544.71 444.626 528.419 451.487 520.354" stroke="#BE0000" stroke-width="0.5" stroke-linecap="round" stroke-linejoin="round"/>
<path d="M417.638 464.705C444.756 463.221 454.27 477.222 457.797 504.998C462.198 539.677 455.823 564.808 421.489 559.227C374.891 551.646 372.593 467.189 417.638 464.705Z" fill="#EBB376"/>
<path d="M440.096 504.417C442.487 508.348 445.344 511.976 448.607 515.224C447.867 516.377 446.824 517.305 445.591 517.908C444.359 518.511 442.984 518.766 441.617 518.644L440.096 504.417Z" fill="#D58745"/>
<path d="M423.463 503.256C423.463 505.482 422.589 507.353 421.101 507.482C419.612 507.611 418.253 505.901 418.091 503.675C417.929 501.449 418.965 499.578 420.453 499.449C421.942 499.32 423.301 500.901 423.463 503.256Z" fill="#263238"/>
<path d="M419.839 499.482L424.531 497.191C424.531 497.191 422.46 501.45 419.839 499.482Z" fill="#263238"/>
<path d="M451.098 500.514C451.098 502.74 450.192 504.611 448.704 504.74C447.215 504.869 445.888 503.159 445.727 500.933C445.565 498.707 446.6 496.804 448.089 496.707C449.577 496.61 450.904 498.288 451.098 500.514Z" fill="#263238"/>
<path d="M447.474 496.804L452.166 494.514C452.166 494.514 450.063 498.836 447.474 496.804Z" fill="#263238"/>
<path d="M422.169 484.481C420.01 484.335 417.847 484.683 415.844 485.5C413.842 486.316 412.053 487.579 410.616 489.191" stroke="#263238" stroke-width="0.72468" stroke-linecap="round" stroke-linejoin="round"/>
<path d="M441.811 482.255C443.64 481.685 445.575 481.538 447.47 481.823C449.365 482.108 451.17 482.818 452.749 483.9" stroke="#263238" stroke-width="0.72468" stroke-linecap="round" stroke-linejoin="round"/>
<path d="M438.349 529.516C437.229 532.673 436.342 535.908 435.695 539.194C435.113 539.226 434.53 539.226 433.948 539.194C425.987 538.839 422.427 535.968 421.004 533.064C420.265 531.607 419.909 529.986 419.968 528.354C419.94 527.427 420.06 526.502 420.324 525.612C425.114 528.014 430.369 529.357 435.727 529.548L438.349 529.516Z" fill="#263238"/>
<path d="M435.63 529.354L434.789 532.129C427.314 531.774 422.104 530.516 419.871 528.161C419.843 527.234 419.963 526.308 420.227 525.419C425.017 527.821 430.272 529.163 435.63 529.354Z" fill="white"/>
<path d="M433.948 539C425.987 538.645 422.427 535.774 421.004 532.871C424.022 533.068 426.98 533.8 429.741 535.032C431.515 535.897 432.983 537.281 433.948 539Z" fill="#DE5753"/>
<path d="M390.488 511.902C390.488 511.902 401.976 488.997 399.096 471.964C399.096 471.964 451.649 447.124 457.344 501.353C457.344 501.353 459.933 452.963 413.27 454.253C366.606 455.543 370.522 523.709 395.698 542.645C395.633 542.645 383.434 526.225 390.488 511.902Z" fill="#263238"/>
<path d="M385.084 511.547C384.219 499.823 387.207 488.136 393.595 478.254C404.306 461.608 437.41 456.898 452.684 471.028C447.095 461.694 438.151 454.831 427.67 451.834C413.14 448.091 372.658 449.027 381.622 509.643L385.084 511.547Z" fill="#BE0000"/>
<path d="M395.245 517.354C394.803 514.245 393.147 511.437 390.638 509.539C388.129 507.642 384.97 506.81 381.848 507.224C373.499 508.611 370.425 526.032 391.556 528.999C394.598 529.451 396.119 526.419 395.245 517.354Z" fill="#EBB376"/>
<path d="M388.579 525.451C397.737 526.774 399.646 542.645 391.135 546.259C380.165 550.872 375.505 533.677 383.498 526.741" stroke="#BE0000" stroke-width="0.5" stroke-linecap="round" stroke-linejoin="round"/>
<path d="M376.865 591.003C376.865 591.003 407.315 615.618 435.63 615.23C463.945 614.843 473.912 582.97 473.912 582.97C473.912 582.97 429.967 570.099 376.865 591.003Z" fill="#EBB376"/>
<path opacity="0.2" d="M468.314 1042.45C458.768 1009.77 451.357 980.704 445.662 954.928C446.132 924.395 448.347 893.914 452.296 863.632C452.296 863.632 467.408 981.382 468.314 1042.45Z" fill="black"/>
<path d="M730.139 542.645L689.786 679.17L679.625 677.944L723.311 528.774L730.139 542.645Z" fill="#263238"/>
<path opacity="0.1" d="M730.139 542.645L689.786 679.17L679.625 677.944L723.311 528.774L730.139 542.645Z" fill="white"/>
<path d="M498.829 702.332L679.625 677.944L678.46 695.397L502.81 724.334L498.829 702.332Z" fill="#263238"/>
<path opacity="0.4" d="M498.829 702.332L679.625 677.944L678.46 695.397L502.81 724.334L498.829 702.332Z" fill="white"/>
<path d="M679.625 677.944L834.208 742.109L826.507 764.53L678.46 695.397L679.625 677.944Z" fill="#263238"/>
<path opacity="0.2" d="M679.625 677.944L834.208 742.109L826.507 764.53L678.46 695.397L679.625 677.944Z" fill="white"/>
<path d="M502.81 724.334L678.46 695.396L826.507 764.53L645.485 822.114L502.81 724.334Z" fill="#263238"/>
<path d="M778.355 742.399C778.193 756.916 758.939 773.111 699.332 781.628C612.251 794.048 551.932 752.948 551.22 737.915C550.217 717.591 564.747 700.752 624.16 697.171C631.958 696.687 639.854 696.558 647.718 696.655L648.591 698.3C649.142 699.397 649.756 700.558 650.404 701.784L650.921 702.881L651.18 703.139C652.604 705.913 654.028 708.849 655.355 711.752C655.349 711.871 655.349 711.989 655.355 712.107C657.216 716.026 658.774 720.081 660.015 724.237C660.393 725.396 660.611 726.6 660.662 727.818C660.667 729.038 660.83 730.252 661.147 731.431C661.364 732.327 661.736 733.179 662.247 733.947C662.661 734.66 663.226 735.275 663.902 735.748C664.578 736.222 665.35 736.543 666.163 736.689C666.163 736.689 672.635 736.851 679.431 737.722C682.454 738.054 685.45 738.604 688.394 739.367C695.513 741.303 705.157 740.69 713.311 740.27L713.57 740.044C713.897 739.737 714.303 739.526 714.743 739.435C715.183 739.344 715.64 739.376 716.062 739.528C716.281 739.675 716.46 739.875 716.58 740.109H717.81C726.611 739.851 730.042 738.335 735.446 739.625C739.458 740.561 742.468 740.044 745.154 740.593C746.161 740.819 747.124 741.212 748.001 741.754C749.071 742.418 750.24 742.908 751.464 743.206C753.854 743.813 756.343 743.923 758.777 743.528C759.76 743.395 760.726 743.157 761.657 742.819C764.578 741.983 767.623 741.666 770.653 741.883C771.117 741.916 771.582 741.916 772.045 741.883C774.162 741.701 776.296 741.875 778.355 742.399Z" fill="#FF931D"/>
<path opacity="0.3" d="M770.815 741.98C769.23 754.884 750.752 768.691 698.62 776.176C618.853 787.563 563.582 749.916 562.935 736.141C562.029 717.527 575.328 702.074 629.726 698.816C635.971 698.429 642.281 698.3 648.591 698.332C649.142 699.429 649.756 700.59 650.404 701.816L650.921 702.913L651.18 703.171C652.604 705.946 654.028 708.881 655.355 711.785C655.349 711.903 655.349 712.021 655.355 712.14C657.216 716.058 658.774 720.113 660.015 724.269C660.393 725.428 660.611 726.633 660.662 727.85C660.667 729.07 660.83 730.285 661.147 731.463C661.364 732.36 661.736 733.211 662.247 733.98C662.661 734.692 663.226 735.307 663.902 735.78C664.578 736.254 665.35 736.575 666.163 736.722C666.163 736.722 672.635 736.883 679.431 737.754C682.454 738.087 685.45 738.637 688.394 739.399C695.513 741.335 705.157 740.722 713.311 740.303L713.57 740.077C713.897 739.769 714.303 739.558 714.743 739.467C715.183 739.376 715.64 739.408 716.062 739.561C716.281 739.707 716.46 739.907 716.58 740.141H717.81C726.611 739.883 730.042 738.367 735.446 739.657C739.458 740.593 742.468 740.077 745.154 740.625C746.161 740.852 747.124 741.244 748.001 741.786C749.071 742.45 750.24 742.94 751.464 743.238C753.854 743.845 756.343 743.955 758.777 743.561C759.76 743.427 760.725 743.19 761.657 742.851C764.633 742.018 767.735 741.723 770.815 741.98Z" fill="white"/>
<path opacity="0.3" d="M760.719 748.045C760.094 747.493 759.607 746.803 759.298 746.03C758.989 745.257 758.866 744.422 758.939 743.593C756.505 743.987 754.015 743.877 751.626 743.27C751.641 743.55 751.641 743.83 751.626 744.109C751.648 744.727 751.493 745.338 751.177 745.869C750.862 746.401 750.4 746.832 749.846 747.109C749.644 747.242 749.427 747.351 749.199 747.432C746.448 748.851 743.827 748.658 741.206 750.658C740.796 750.998 740.363 751.311 739.911 751.593C739.407 751.934 738.832 752.155 738.229 752.239C736.514 752.4 734.993 751.174 733.342 750.787C731.548 750.586 729.732 750.887 728.1 751.658C726.679 752.327 725.101 752.594 723.537 752.432C723.317 751.754 723.357 751.019 723.65 750.369C723.943 749.719 724.468 749.201 725.123 748.916C726.469 748.389 727.928 748.211 729.362 748.4C730.794 748.595 732.253 748.382 733.569 747.787C734.087 747.496 734.507 747.109 735.025 746.819C737.441 745.665 739.997 744.83 742.63 744.335L745.154 743.658C744.867 742.998 744.788 742.266 744.927 741.561C744.993 741.23 745.137 740.92 745.348 740.657C742.565 740.109 739.555 740.657 735.64 739.69C730.236 738.399 726.806 739.915 718.004 740.173H716.774C717.971 742.265 718.448 744.69 718.133 747.077C717.352 748.371 716.234 749.431 714.897 750.142C714.133 750.496 713.329 750.756 712.502 750.916C710.089 751.498 707.571 751.498 705.157 750.916C704.607 750.658 704.121 750.271 703.571 750.077C702.382 749.882 701.168 749.882 699.979 750.077C699.371 750.057 698.775 749.895 698.241 749.604C697.707 749.312 697.25 748.9 696.905 748.4C696.599 747.902 696.461 747.32 696.514 746.739C696.566 746.157 696.806 745.609 697.196 745.174C698.264 744.206 699.914 744.464 701.338 744.141C702.762 743.819 704.218 742.754 705.772 742.496C707.325 742.238 709.946 743.077 711.726 742.141C712.397 741.732 713.016 741.245 713.57 740.69C705.416 741.109 695.772 741.722 688.653 739.786C685.709 739.024 682.713 738.474 679.689 738.141C679.652 738.403 679.564 738.655 679.431 738.883C678.783 739.948 677.165 739.657 676.551 740.561C675.936 741.464 676.551 742.593 676.356 743.787C676.399 743.967 676.399 744.155 676.356 744.335C675.08 745.659 673.471 746.617 671.697 747.109C670.726 747.109 670.176 745.948 669.561 745.174C669.172 744.693 668.687 744.298 668.137 744.012C667.355 743.586 666.498 743.312 665.613 743.206C664.106 743.061 662.589 743.061 661.082 743.206C660.715 743.274 660.335 743.206 660.015 743.012C659.82 742.825 659.675 742.592 659.594 742.335C659.264 741.66 659.077 740.924 659.044 740.173C659.027 739.801 659.116 739.432 659.299 739.107C659.482 738.782 659.752 738.515 660.079 738.335C660.629 738.077 661.503 738.012 661.535 737.399C661.568 736.786 661.309 736.883 661.18 736.625C661.052 736.227 661.081 735.795 661.262 735.417C661.442 735.04 661.76 734.745 662.15 734.592L662.668 734.431C662.157 733.663 661.785 732.811 661.568 731.915C661.251 730.736 661.088 729.522 661.082 728.302C661.031 727.084 660.813 725.88 660.435 724.721C659.195 720.565 657.637 716.51 655.775 712.591C655.77 712.473 655.77 712.354 655.775 712.236C654.449 709.333 653.025 706.397 651.601 703.623L651.342 703.365L650.824 702.268L650.339 702.623C649.57 703.227 648.759 703.777 647.912 704.268C646.728 704.957 645.468 705.509 644.158 705.913C641.602 706.688 640.34 706.559 639.66 705.913C638.333 704.913 639.045 702.494 636.424 702.3C632.638 702.074 629.273 705.526 625.163 705.526C621.053 705.526 622.283 704.074 618.691 703.042C615.099 702.01 616.005 706.913 610.018 707.591C604.032 708.268 598.045 705.075 597.592 709.172C597.204 712.623 587.69 710.075 586.201 712.656C584.713 715.236 586.913 716.075 582.059 716.688C577.205 717.301 576.008 720.043 572.772 725.011C569.536 729.979 575.328 730.108 576.364 732.915C576.882 734.27 575.911 735.463 574.875 736.657C573.84 737.851 572.772 739.141 573.225 740.625C574.099 743.561 582.707 744.98 586.816 745.4C590.926 745.819 588.175 749.529 590.052 753.916C591.929 758.304 600.763 754.529 600.893 756.852C601.022 759.175 607.753 763.562 613.837 763.917C614.924 763.993 616.017 763.895 617.073 763.626C618.381 763.273 619.731 763.099 621.085 763.11C623.187 763.21 625.242 763.763 627.108 764.733C628.975 765.702 630.607 767.063 631.894 768.724C634.515 772.111 641.311 767.853 643.511 768.401C645.711 768.949 645.841 771.175 648.43 772.659C651.019 774.143 662.765 768.82 665.225 769.433C667.684 770.046 674.933 773.853 679.01 774.337C683.087 774.821 689.559 768.401 692.925 768.917C696.29 769.433 706.807 770.659 709.105 766.594C711.402 762.53 721.757 764.014 726.255 764.175C730.754 764.336 735.964 764.175 737.42 760.723C738.876 757.271 741.432 757.82 745.736 756.4C750.04 754.981 765.088 752.884 760.719 748.045ZM680.822 749.174C680.984 748.884 681.113 748.561 681.243 748.271C681.731 747.574 682.442 747.063 683.259 746.823C684.077 746.583 684.952 746.627 685.741 746.948C687.308 747.609 688.76 748.513 690.045 749.626C690.36 749.921 690.732 750.15 691.137 750.3C691.543 750.449 691.975 750.516 692.407 750.497C692.407 751.593 692.601 752.658 692.731 753.723C692.86 754.787 692.731 755.142 692.019 755.142C691.307 755.142 691.436 754.787 691.145 754.658C691.007 754.624 690.862 754.624 690.724 754.658C689.818 754.658 688.394 755.916 687.488 756.078C685.007 756.378 682.494 755.893 680.304 754.69C679.301 754.271 678.363 753.787 677.392 753.368C676.983 753.24 676.622 752.993 676.356 752.658C676.223 752.334 676.211 751.972 676.324 751.64C676.437 751.308 676.667 751.028 676.971 750.851C677.586 750.522 678.254 750.303 678.945 750.206C679.679 750.109 680.349 749.741 680.822 749.174ZM630.34 719.043C631.214 718.753 632.153 719.043 633.026 718.753C634.45 718.366 635.194 716.817 636.262 715.753C637.041 714.97 638.018 714.413 639.09 714.141C640.161 713.868 641.286 713.89 642.346 714.204C644.191 714.785 645.776 716.269 647.718 716.333C648.5 716.204 649.298 716.204 650.08 716.333C651.601 716.882 651.86 719.011 653.316 719.914C653.575 720.108 653.931 720.269 653.996 720.592C654.06 720.914 653.704 721.334 653.348 721.495C652.006 721.858 650.628 722.075 649.239 722.14C647.85 722.622 646.507 723.226 645.226 723.947C644.177 724.256 643.077 724.355 641.99 724.237C640.922 724.426 639.838 724.501 638.754 724.463C638.406 724.418 638.079 724.272 637.814 724.042C637.549 723.812 637.358 723.51 637.265 723.172C637.265 722.818 637.265 722.43 637.265 722.043C637.211 721.747 637.064 721.476 636.845 721.269C636.152 720.711 635.274 720.434 634.385 720.495C633.293 720.5 632.206 720.641 631.149 720.914C630.744 721.074 630.293 721.074 629.887 720.914C628.917 720.624 629.499 719.398 630.34 719.043ZM596.104 729.786C596.131 729.446 596.231 729.116 596.395 728.818C597.005 727.946 597.914 727.326 598.951 727.076L606.75 724.205C607.661 723.754 608.69 723.597 609.695 723.753C609.986 723.753 610.342 724.011 610.374 724.302C610.407 724.592 610.148 724.882 609.954 725.108C609.651 725.415 609.41 725.776 609.242 726.173C609.017 726.548 608.927 726.989 608.986 727.423C609.044 727.856 609.249 728.257 609.565 728.56C609.824 728.753 610.148 728.882 610.407 729.076C610.525 729.102 610.628 729.171 610.698 729.27C610.889 729.562 610.99 729.904 610.99 730.254C610.99 730.603 610.889 730.945 610.698 731.237C610.522 731.539 610.391 731.865 610.31 732.205C610.941 733.831 611.911 735.305 613.157 736.528C613.803 736.735 614.422 737.017 615.002 737.367C615.584 737.786 615.876 738.786 615.261 739.206C615.062 739.294 614.847 739.339 614.63 739.339C614.412 739.339 614.197 739.294 613.999 739.206C612.831 739.052 611.682 738.781 610.568 738.399C609.695 738.044 608.951 737.206 608.077 736.98C607.203 736.754 605.715 737.464 604.647 736.593C603.579 735.722 603.611 734.463 602.543 734.367C602.22 734.366 601.901 734.432 601.605 734.56C600.88 734.78 600.111 734.814 599.37 734.658C598.628 734.503 597.938 734.163 597.364 733.671C596.789 733.178 596.349 732.549 596.083 731.842C595.818 731.135 595.736 730.372 595.845 729.624L596.104 729.786ZM610.407 753.239C610.211 753.383 609.97 753.452 609.727 753.432C607.753 753.432 606.491 754.4 604.388 753.432C603.493 752.886 602.523 752.473 601.508 752.206C601.337 752.173 601.161 752.173 600.99 752.206H599.76H598.984C597.696 751.963 596.479 751.434 595.424 750.658C594.822 750.369 594.341 749.878 594.065 749.271C593.741 748.303 594.486 747.335 595.197 746.593L595.748 746.012C596.328 745.388 597.033 744.894 597.819 744.561C598.498 744.341 599.208 744.232 599.922 744.238C603.329 744.133 606.721 744.726 609.889 745.98C610.924 746.4 612.089 747.142 611.96 748.206C611.831 749.271 610.73 749.755 610.504 750.722C610.455 751.032 610.455 751.348 610.504 751.658C610.522 751.927 610.522 752.196 610.504 752.464C610.547 752.593 610.56 752.729 610.543 752.863C610.527 752.997 610.48 753.125 610.407 753.239ZM630.114 761.304C630.051 761.645 629.884 761.959 629.634 762.202C629.385 762.445 629.067 762.604 628.722 762.659C625.778 763.207 623.933 760.304 621.15 760.175C619.888 760.175 618.529 760.562 617.429 759.917C617.17 759.746 616.951 759.522 616.788 759.259C616.625 758.996 616.522 758.7 616.485 758.393C616.448 758.086 616.478 757.775 616.574 757.481C616.67 757.187 616.829 756.917 617.04 756.691C617.423 756.385 617.865 756.161 618.338 756.033C618.811 755.906 619.306 755.877 619.791 755.949C621.785 756.331 623.811 756.525 625.842 756.529C626.684 756.529 627.719 756.271 628.14 756.981C628.316 757.378 628.415 757.805 628.431 758.239C628.722 759.368 630.146 760.046 630.114 761.142V761.304ZM638.786 744.174C638.204 744.174 637.654 744.625 637.071 744.754C636.366 744.903 635.631 744.823 634.973 744.527C634.316 744.231 633.77 743.735 633.415 743.109C632.897 742.109 632.865 740.851 632.023 740.141C631.54 739.905 631.093 739.601 630.696 739.238C630.114 738.431 630.696 737.27 631.635 736.851C632.548 736.545 633.492 736.339 634.45 736.238C635.646 735.818 636.813 735.322 637.945 734.754C638.498 734.443 639.122 734.279 639.757 734.279C640.392 734.279 641.016 734.443 641.569 734.754L641.893 735.044C642.301 735.57 642.78 736.037 643.317 736.431C644.303 736.69 645.34 736.69 646.326 736.431C646.837 736.398 647.345 736.522 647.782 736.786C648.256 737.195 648.651 737.687 648.947 738.238C649.09 738.513 649.31 738.742 649.579 738.897C649.849 739.051 650.158 739.125 650.468 739.109C650.611 739.393 650.641 739.721 650.55 740.027C650.46 740.332 650.258 740.592 649.983 740.754C649.419 741.051 648.835 741.31 648.236 741.528C647.452 741.933 646.715 742.419 646.035 742.98C645.385 743.505 644.62 743.87 643.802 744.045C642.119 744.529 640.469 743.657 638.786 744.174ZM657.135 764.175C654.497 764.196 651.86 764.056 649.239 763.755C648.613 763.728 648.012 763.502 647.524 763.11C647.05 762.664 646.772 762.05 646.747 761.401C646.742 760.764 646.986 760.151 647.427 759.691C647.635 759.449 647.893 759.255 648.184 759.121C648.474 758.988 648.79 758.918 649.109 758.916C651.73 759.218 654.367 759.358 657.005 759.336C657.649 759.336 658.266 759.591 658.721 760.045C659.176 760.498 659.432 761.114 659.432 761.755C659.432 762.397 659.176 763.012 658.721 763.466C658.266 763.92 657.649 764.175 657.005 764.175H657.135ZM666.325 768.369C665.75 768.152 665.198 767.882 664.674 767.562C663.777 767.082 662.834 766.693 661.859 766.401C661.503 765.852 661.859 765.143 662.409 764.627L665.257 761.401C665.839 760.626 666.639 760.042 667.554 759.723C668.088 759.597 668.649 759.652 669.147 759.88C669.645 760.108 670.053 760.496 670.305 760.981C670.532 761.433 670.629 761.949 670.823 762.401C671.224 763.024 671.756 763.555 672.381 763.956C673.007 764.356 673.711 764.618 674.447 764.723C675.839 765.078 677.295 766.014 676.292 767.627C676.174 767.835 676.007 768.012 675.806 768.143C675.344 768.407 674.818 768.54 674.285 768.53C673.585 768.565 672.883 768.565 672.182 768.53C670.231 768.721 668.263 768.667 666.325 768.369ZM693.637 765.756C691.665 766.602 689.602 767.219 687.488 767.594H686.614C685.061 767.369 682.731 766.046 683.799 764.368C684.236 763.895 684.838 763.606 685.482 763.562L687.423 763.175C688.481 762.911 689.571 762.803 690.659 762.852C691.936 762.955 693.142 763.477 694.09 764.336C694.219 764.428 694.324 764.549 694.397 764.689C694.47 764.829 694.509 764.985 694.51 765.143C694.543 765.401 694.057 765.627 693.637 765.756Z" fill="white"/>
<path d="M627.784 712.752C627.784 714.752 623.933 716.495 619.079 716.624C614.225 716.753 610.212 715.269 610.148 713.398C610.083 711.526 613.999 709.655 618.853 709.526C623.707 709.397 627.557 710.785 627.784 712.752Z" fill="#BE0000"/>
<path d="M636.91 728.592C636.91 730.592 633.059 732.302 628.172 732.463C623.286 732.625 619.306 731.076 619.273 729.076C619.241 727.076 623.092 725.366 627.978 725.237C632.864 725.108 636.845 726.592 636.91 728.592Z" fill="#BE0000"/>
<path d="M661.212 731.528H660.824C655.937 731.528 651.957 730.141 651.892 728.302C651.827 726.463 655.484 724.689 660.079 724.463C660.457 725.622 660.675 726.826 660.726 728.044C660.743 729.221 660.906 730.391 661.212 731.528Z" fill="#BE0000"/>
<path d="M680.24 761.852C685.119 761.852 689.074 760.235 689.074 758.239C689.074 756.244 685.119 754.626 680.24 754.626C675.361 754.626 671.405 756.244 671.405 758.239C671.405 760.235 675.361 761.852 680.24 761.852Z" fill="#BE0000"/>
<path d="M735.51 739.689C735.51 741.69 731.66 743.399 726.806 743.528C721.952 743.657 717.939 742.174 717.874 740.302C726.676 739.915 730.106 738.399 735.51 739.689Z" fill="#BE0000"/>
<path d="M610.051 748.432C610.051 750.432 606.2 752.142 601.314 752.303C596.427 752.464 592.447 750.916 592.382 749.077C592.317 747.238 596.233 745.367 601.119 745.238C606.006 745.109 609.986 746.432 610.051 748.432Z" fill="#BE0000"/>
<path d="M716.709 760.82C716.709 762.82 712.858 764.562 707.972 764.691C703.086 764.82 699.105 763.304 699.041 761.465C698.976 759.626 702.892 757.723 707.778 757.594C712.664 757.465 716.645 758.82 716.709 760.82Z" fill="#BE0000"/>
<path d="M655.419 712.205H654.708L655.258 711.817C655.304 711.949 655.358 712.079 655.419 712.205Z" fill="#BE0000"/>
<path d="M626.587 754.432L619.888 750.851L628.658 749.045L635.389 750.432L626.587 754.432Z" fill="#BE0000"/>
<path d="M640.469 765.369L643.802 762.885L654.707 767.465L654.772 769.982L640.469 765.369Z" fill="#BE0000"/>
<path d="M658.397 747.077C659.338 745.575 660.742 744.417 662.399 743.777C664.056 743.138 665.876 743.05 667.587 743.528C673.638 745.271 675.45 742.916 675.45 742.916L678.33 744.658C678.33 744.658 674.447 749.948 670.111 747.884C668.721 747.307 667.211 747.077 665.711 747.212C664.212 747.347 662.767 747.843 661.503 748.658L658.397 747.077Z" fill="#BE0000"/>
<path d="M582.286 731.818L588.078 729.979C588.078 729.979 592.026 736.238 594.55 736.431C596.645 736.534 598.744 736.469 600.828 736.238L597.592 741.786C597.592 741.786 582.642 738.399 582.286 731.818Z" fill="#BE0000"/>
<path d="M738.973 751.271L745.769 746.271L751.237 748.077L743.503 752.852L738.973 751.271Z" fill="#BE0000"/>
<path d="M700.885 733.27L707.713 728.27L713.182 730.044L705.448 734.818L700.885 733.27Z" fill="#BE0000"/>
<path d="M701.435 746.98C701.696 746.449 702.073 745.984 702.54 745.62C703.007 745.255 703.551 745.002 704.13 744.877C704.71 744.753 705.31 744.762 705.886 744.902C706.462 745.043 706.998 745.312 707.454 745.69C711.532 748.271 712.988 745.69 712.988 745.69L716.224 747.174C714.688 748.634 712.651 749.453 710.529 749.464C708.371 749.253 706.194 749.329 704.057 749.69L701.435 746.98Z" fill="#BE0000"/>
<path d="M651.18 703.268L649.271 705.3C648.872 704.649 648.286 704.132 647.588 703.816C646.682 703.429 645.388 703.591 643.835 705.462C640.599 709.462 634.127 705.72 634.127 705.72L636.198 703.591C636.474 704.168 636.903 704.66 637.439 705.013C637.975 705.365 638.598 705.565 639.239 705.591C639.617 705.584 639.99 705.508 640.34 705.365C642.799 704.462 646.812 700.655 650.048 702.139C650.435 702.305 650.779 702.559 651.051 702.881L651.18 703.268Z" fill="#BE0000"/>
<path d="M596.783 713.624L602.478 711.785L602.705 719.301L597.689 719.43L596.783 713.624Z" fill="#BE0000"/>
<path d="M576.137 720.043L584.325 719.817L586.266 721.979L579.115 724.85L576.137 720.043Z" fill="#BE0000"/>
<path d="M571.348 734.044L574.94 733.947L575.134 740.593L573.354 740.625L571.348 734.044Z" fill="#BE0000"/>
<path d="M611.41 763.078L620.147 760.884L623.156 767.078L611.41 763.078Z" fill="#BE0000"/>
<path d="M639.725 738.754C637.007 738.754 641.052 734.076 642.961 735.367C644.074 736.104 645.352 736.558 646.682 736.689C646.682 736.689 646.682 739.915 645.355 740.528C644.029 741.141 641.278 738.754 639.725 738.754Z" fill="#BE0000"/>
<path d="M638.301 720.172C638.301 720.172 638.948 715.107 642.184 715.978C645.42 716.849 648.656 719.43 646.294 720.495C643.932 721.559 637.492 722.624 638.301 720.172Z" fill="#BE0000"/>
<path d="M668.428 717.043C668.428 717.043 669.075 711.978 672.279 712.817C675.483 713.656 678.751 716.269 676.389 717.366C674.026 718.462 667.749 719.398 668.428 717.043Z" fill="#BE0000"/>
<path d="M604.517 728.14L610.342 725.721L610.471 729.818L604.517 728.14Z" fill="#BE0000"/>
<path d="M649.627 755.497L649.53 751.174L658.72 758.852L649.627 755.497Z" fill="#BE0000"/>
<path d="M731.012 735.302L730.915 730.979L740.106 738.657L731.012 735.302Z" fill="#BE0000"/>
<path d="M670.758 770.853L670.726 769.53L678.978 767.433L679.075 770.627L670.758 770.853Z" fill="#BE0000"/>
<path d="M690.433 720.205L690.401 718.882L698.652 716.753L698.749 719.979L690.433 720.205Z" fill="#BE0000"/>
<path d="M726.482 761.013L726.417 757.884L733.86 757.658L731.433 760.884L726.482 761.013Z" fill="#BE0000"/>
<path d="M674.706 733.399L674.609 730.27L682.084 730.044L679.625 733.27L674.706 733.399Z" fill="#BE0000"/>
<path d="M716.645 740.206L713.409 740.367L713.667 740.141C713.994 739.834 714.4 739.623 714.84 739.531C715.28 739.44 715.737 739.473 716.159 739.625C716.367 739.776 716.533 739.975 716.645 740.206Z" fill="white"/>
<path d="M644.417 784.66L834.208 742.109L826.507 764.53L645.485 822.114L644.417 784.66Z" fill="#263238"/>
<path opacity="0.4" d="M644.417 784.66L834.208 742.109L826.507 764.53L645.485 822.114L644.417 784.66Z" fill="white"/>
<path d="M502.81 724.334L498.829 702.333L644.417 784.66L645.485 822.114L502.81 724.334Z" fill="#263238"/>
<path opacity="0.2" d="M502.81 724.334L498.829 702.333L644.417 784.66L645.485 822.114L502.81 724.334Z" fill="white"/>
<path d="M498.829 702.332L540.088 531.354L723.311 528.774L679.625 677.944L498.829 702.332Z" fill="#263238"/>
<path opacity="0.2" d="M498.829 702.332L540.088 531.354L723.311 528.774L679.625 677.944L498.829 702.332Z" fill="white"/>
<path d="M540.088 531.354L551.156 545.807L512.388 705.3L498.829 702.332L540.088 531.354Z" fill="#263238"/>
<path opacity="0.3" d="M540.088 531.354L551.156 545.807L512.388 705.3L498.829 702.332L540.088 531.354Z" fill="white"/>
<path d="M540.088 531.354L551.156 545.807L730.139 542.645L723.311 528.774L540.088 531.354Z" fill="#263238"/>
<path opacity="0.4" d="M540.088 531.354L551.156 545.807L730.139 542.645L723.311 528.774L540.088 531.354Z" fill="white"/>
<path d="M517.533 739.915L547.208 747.496C549.215 745.413 551.542 743.66 554.1 742.303C556.462 741.593 579.309 749.303 581.121 751.303C582.933 753.303 590.085 772.111 590.085 777.595C590.085 783.079 559.828 777.24 557.304 774.917C554.199 772.429 550.958 770.113 547.596 767.981L510.285 760.078L517.533 739.915Z" fill="#EBB376"/>
<path d="M528.018 737.851L525.138 767.982C525.138 767.982 515.106 766.562 500.221 763.594C497.729 763.11 495.076 762.562 492.357 761.949C483.523 760.078 473.524 757.755 463.233 755.013L455.532 752.852C443.634 749.471 431.934 745.432 420.486 740.754C417.962 739.657 415.438 738.56 413.011 737.367C403.155 733.065 394.054 727.217 386.055 720.043C385.634 719.656 385.213 719.237 384.825 718.817C383.381 717.343 382.03 715.781 380.78 714.14C374.545 705.924 369.269 697.028 365.053 687.622C363.921 685.267 362.82 682.847 361.817 680.363C357.408 669.996 353.763 659.322 350.912 648.426C350.2 645.845 349.585 643.232 349.035 640.684C346.251 629.862 345.385 618.639 346.479 607.52C346.842 604.79 347.605 602.127 348.744 599.617C349.619 597.754 350.888 596.104 352.465 594.778C352.465 594.778 366.412 591.39 379.356 613.908C382.183 618.928 384.565 624.185 386.475 629.618L387.317 631.941C388.579 635.522 390.067 639.78 391.75 644.361C392.98 647.587 394.274 651.071 395.633 654.588C397.704 659.975 400.002 665.459 402.429 670.718C403.626 673.298 404.824 675.815 406.053 678.234C408.465 683.061 411.325 687.651 414.596 691.945C415.453 693.069 416.372 694.146 417.347 695.171C418.318 696.139 419.353 697.106 420.583 698.01C426.528 703.006 433.045 707.283 439.999 710.752C442.555 712.107 445.177 713.365 447.895 714.591C454.597 717.639 461.456 720.331 468.443 722.656C470.967 723.592 473.556 724.431 476.145 725.205C483.426 727.528 490.934 729.624 498.538 731.495C501.095 732.173 503.683 732.754 506.305 733.367C513.359 734.98 520.769 736.528 528.018 737.851Z" fill="#BE0000"/>
<path opacity="0.5" d="M528.018 737.851L525.138 767.982C525.138 767.982 515.106 766.562 500.221 763.594C497.729 763.11 495.076 762.562 492.357 761.949C483.523 760.078 473.524 757.755 463.233 755.013L455.532 752.852C443.634 749.471 431.934 745.432 420.486 740.754C417.962 739.657 415.438 738.56 413.011 737.367C403.155 733.065 394.054 727.217 386.055 720.043C385.634 719.656 385.213 719.237 384.825 718.817C383.381 717.343 382.03 715.781 380.78 714.14C374.545 705.924 369.269 697.028 365.053 687.622C363.921 685.267 362.82 682.847 361.817 680.363C357.408 669.996 353.763 659.322 350.912 648.426C350.2 645.845 349.585 643.232 349.035 640.684C346.251 629.862 345.385 618.639 346.479 607.52C346.842 604.79 347.605 602.127 348.744 599.617C349.619 597.754 350.888 596.104 352.465 594.778C352.465 594.778 366.412 591.39 379.356 613.908C382.183 618.928 384.565 624.185 386.475 629.618L387.317 631.941C388.579 635.522 390.067 639.78 391.75 644.361C392.98 647.587 394.274 651.071 395.633 654.588C397.704 659.975 400.002 665.459 402.429 670.718C403.626 673.298 404.824 675.815 406.053 678.234C408.465 683.061 411.325 687.651 414.596 691.945C415.453 693.069 416.372 694.146 417.347 695.171C418.318 696.139 419.353 697.106 420.583 698.01C426.528 703.006 433.045 707.283 439.999 710.752C442.555 712.107 445.177 713.365 447.895 714.591C454.597 717.639 461.456 720.331 468.443 722.656C470.967 723.592 473.556 724.431 476.145 725.205C483.426 727.528 490.934 729.624 498.538 731.495C501.095 732.173 503.683 732.754 506.305 733.367C513.359 734.98 520.769 736.528 528.018 737.851Z" fill="white"/>
<path d="M387.252 631.941C371.881 615.585 357.61 609.359 346.414 607.52C346.777 604.789 347.54 602.127 348.679 599.617C359.894 601.837 370.4 606.741 379.292 613.908C382.119 618.928 384.501 624.185 386.411 629.618L387.252 631.941Z" fill="#BE0000"/>
<path d="M395.569 654.588C381.641 648.034 366.036 645.884 350.847 648.426C350.135 645.845 349.52 643.232 348.97 640.684C363.292 638.293 377.987 639.558 391.685 644.361C392.915 647.652 394.209 651.071 395.569 654.588Z" fill="#BE0000"/>
<path d="M405.989 678.234C392.085 680.169 378.377 683.31 365.021 687.622C363.888 685.267 362.788 682.847 361.785 680.363C375.009 675.949 388.599 672.71 402.397 670.685C403.562 673.298 404.759 675.815 405.989 678.234Z" fill="#BE0000"/>
<path d="M420.356 697.913C408.057 703.88 396.529 711.311 386.022 720.043C385.602 719.656 385.181 719.237 384.793 718.817C383.348 717.343 381.997 715.781 380.748 714.14C391.074 705.415 402.417 697.963 414.532 691.945C415.389 693.069 416.307 694.146 417.282 695.171C418.253 696.042 419.289 697.01 420.356 697.913Z" fill="#BE0000"/>
<path d="M447.571 714.494C437.636 722.279 428.548 731.081 420.453 740.754C417.929 739.657 415.405 738.56 412.978 737.367C420.872 727.518 429.825 718.561 439.675 710.656C442.232 712.01 444.853 713.269 447.571 714.494Z" fill="#BE0000"/>
<path d="M475.692 725.108C470.825 734.786 466.609 744.777 463.072 755.013L455.37 752.852C458.887 742.482 463.103 732.362 467.99 722.559C470.644 723.495 473.233 724.334 475.692 725.108Z" fill="#BE0000"/>
<path d="M505.981 733.27C503.275 743.214 501.349 753.352 500.221 763.594C497.729 763.11 495.076 762.562 492.357 761.949C493.544 751.634 495.501 741.422 498.215 731.399C500.771 732.076 503.36 732.657 505.981 733.27Z" fill="#BE0000"/>
<path d="M1077.2 1319.01H1050.96L1048.79 1258.43H1075.03L1077.2 1319.01Z" fill="#B97964"/>
<path d="M1047.3 1315.98H1079.17C1079.7 1315.98 1080.21 1316.16 1080.61 1316.49C1081.02 1316.82 1081.3 1317.28 1081.41 1317.79L1086.58 1341.08C1086.8 1342.08 1086.6 1343.12 1086.04 1343.98C1085.49 1344.84 1084.61 1345.44 1083.61 1345.66H1082.77C1072.44 1345.66 1064.94 1344.85 1051.99 1344.85C1044 1344.85 1019.95 1345.69 1008.92 1345.69C997.885 1345.69 996.461 1334.85 1000.99 1333.85C1021.22 1329.47 1036.43 1323.37 1042.9 1317.72C1044.09 1316.61 1045.66 1315.99 1047.3 1315.98Z" fill="#263238"/>
<path d="M1038.76 1320.56C1036.97 1320.71 1035.19 1320.25 1033.71 1319.24C1033.24 1318.85 1032.88 1318.35 1032.66 1317.79C1032.43 1317.23 1032.35 1316.62 1032.41 1316.01C1032.41 1315.65 1032.51 1315.3 1032.7 1314.99C1032.89 1314.68 1033.16 1314.43 1033.48 1314.27C1036.39 1312.79 1044.87 1317.98 1045.81 1318.56C1045.92 1318.62 1046 1318.71 1046.06 1318.82C1046.11 1318.93 1046.12 1319.06 1046.1 1319.18C1046.09 1319.3 1046.04 1319.41 1045.95 1319.5C1045.87 1319.6 1045.77 1319.66 1045.65 1319.69C1043.39 1320.24 1041.08 1320.53 1038.76 1320.56ZM1034.87 1315.14C1034.59 1315.13 1034.32 1315.18 1034.06 1315.3C1033.9 1315.3 1033.68 1315.56 1033.64 1316.05C1033.6 1316.46 1033.65 1316.87 1033.79 1317.26C1033.94 1317.65 1034.18 1317.99 1034.48 1318.27C1037.43 1319.59 1040.77 1319.76 1043.84 1318.76C1041.07 1316.98 1037.98 1315.75 1034.74 1315.14H1034.87Z" fill="#BE0000"/>
<path d="M1045.23 1319.63H1044.94C1042.25 1318.18 1037.01 1312.43 1037.53 1309.66C1037.62 1309.2 1037.87 1308.78 1038.24 1308.49C1038.6 1308.19 1039.06 1308.04 1039.53 1308.05C1040 1307.98 1040.48 1308.02 1040.94 1308.16C1041.4 1308.29 1041.82 1308.51 1042.19 1308.82C1045.2 1311.3 1045.84 1318.82 1045.88 1319.18C1045.88 1319.29 1045.85 1319.4 1045.8 1319.5C1045.75 1319.6 1045.68 1319.69 1045.58 1319.76C1045.45 1319.76 1045.33 1319.71 1045.23 1319.63ZM1039.99 1309.01H1039.66C1038.89 1309.01 1038.79 1309.5 1038.76 1309.66C1038.43 1311.37 1041.77 1315.72 1044.48 1317.76C1044.26 1314.76 1043.14 1311.9 1041.25 1309.56C1040.92 1309.27 1040.52 1309.08 1040.08 1309.01H1039.99Z" fill="#BE0000"/>
<path opacity="0.2" d="M1075.03 1258.46H1048.79L1049.92 1289.69H1076.16L1075.03 1258.46Z" fill="black"/>
<path d="M942.064 1320.98L915.011 1323.82L909.931 1265.62L936.984 1262.75L942.064 1320.98Z" fill="#B97964"/>
<path d="M912.131 1315.14H944.006C944.527 1315.15 945.031 1315.33 945.435 1315.66C945.84 1315.99 946.123 1316.44 946.239 1316.95L951.416 1340.24C951.628 1341.24 951.433 1342.29 950.876 1343.14C950.318 1344 949.442 1344.61 948.439 1344.82C948.149 1344.85 947.856 1344.85 947.566 1344.82C937.275 1344.66 929.768 1344.05 916.791 1344.05C908.831 1344.05 884.755 1344.85 873.752 1344.85C862.75 1344.85 861.294 1334.02 865.792 1333.02C886.017 1328.63 901.388 1322.53 907.86 1316.89C909.021 1315.8 910.541 1315.18 912.131 1315.14Z" fill="#263238"/>
<path d="M903.459 1319.76C901.672 1319.88 899.895 1319.4 898.411 1318.4C897.947 1318.01 897.587 1317.51 897.361 1316.95C897.136 1316.39 897.052 1315.78 897.116 1315.18C897.099 1314.82 897.193 1314.46 897.383 1314.16C897.574 1313.85 897.853 1313.61 898.184 1313.47C901.097 1311.95 909.575 1317.14 910.513 1317.76C910.614 1317.81 910.696 1317.9 910.748 1318C910.8 1318.11 910.82 1318.22 910.805 1318.34C910.789 1318.47 910.734 1318.59 910.647 1318.69C910.561 1318.78 910.446 1318.85 910.319 1318.89C908.067 1319.4 905.769 1319.69 903.459 1319.76ZM899.608 1314.3C899.327 1314.31 899.05 1314.37 898.799 1314.5C898.637 1314.5 898.443 1314.72 898.411 1315.21C898.356 1315.62 898.404 1316.04 898.551 1316.43C898.698 1316.81 898.939 1317.16 899.252 1317.43C902.193 1318.78 905.539 1318.95 908.604 1317.92C905.86 1316.16 902.808 1314.93 899.608 1314.3Z" fill="#BE0000"/>
<path d="M910.157 1318.82H909.866C907.148 1317.34 901.906 1311.59 902.456 1308.82C902.553 1308.36 902.805 1307.95 903.171 1307.66C903.536 1307.36 903.992 1307.2 904.462 1307.21C904.929 1307.14 905.406 1307.17 905.859 1307.31C906.311 1307.44 906.729 1307.67 907.083 1307.98C910.125 1310.47 910.772 1317.98 910.805 1318.34C910.801 1318.45 910.773 1318.56 910.723 1318.66C910.673 1318.76 910.601 1318.85 910.513 1318.92C910.388 1318.92 910.264 1318.89 910.157 1318.82ZM904.883 1308.21H904.591C903.782 1308.21 903.718 1308.66 903.685 1308.82C903.362 1310.53 906.695 1314.89 909.381 1316.92C909.219 1313.94 908.147 1311.08 906.307 1308.72C905.905 1308.39 905.403 1308.21 904.883 1308.21Z" fill="#BE0000"/>
<path opacity="0.2" d="M936.984 1262.75L909.931 1265.62L912.552 1295.63L939.637 1292.79L936.984 1262.75Z" fill="black"/>
<path d="M1064.22 726.947H925.075C911.84 799.016 870.387 1054.1 900.126 1281.37L947.274 1275.56C947.274 1275.56 942.906 973.833 984.521 862.278C989.31 921.991 995.005 985.511 999.956 1019.29C1012.06 1102.49 1037.98 1284.27 1037.98 1284.27H1086C1086 1284.27 1076.29 1110.26 1071.63 1028.51C1066.55 939.766 1064.42 745.206 1064.22 726.947Z" fill="#BE0000"/>
<path opacity="0.4" d="M1064.22 726.947H925.075C911.84 799.016 870.387 1054.1 900.126 1281.37L947.274 1275.56C947.274 1275.56 942.906 973.833 984.521 862.278C989.31 921.991 995.005 985.511 999.956 1019.29C1012.06 1102.49 1037.98 1284.27 1037.98 1284.27H1086C1086 1284.27 1076.29 1110.26 1071.63 1028.51C1066.55 939.766 1064.42 745.206 1064.22 726.947Z" fill="white"/>
<path d="M870.484 605.811C870.484 605.811 836.765 711.752 813.725 718.721C790.684 725.689 732.048 638.232 732.048 638.232C732.048 638.232 679.528 637.716 677.036 634.135C674.544 630.554 690.692 593.584 694.543 593.584C698.394 593.584 744.118 610.746 745.898 613.617C747.678 616.489 800.133 666.524 802.69 665.233C805.246 663.943 825.115 600.713 825.115 600.713L870.484 605.811Z" fill="#B97964"/>
<path d="M889.479 593.584L885.37 601.133L866.18 636.619L862.2 643.91L808.385 625.263C808.385 625.263 830.746 541.968 838.512 533.451L889.479 593.584Z" fill="#263238"/>
<path d="M738.326 613.198C739.338 614.703 739.858 616.484 739.814 618.295C739.814 621.521 736.934 626.521 732.889 626.78C728.844 627.038 725.22 624.07 719.654 626.78C714.088 629.489 711.467 632.038 706.872 633.232C703.652 634.114 700.689 635.751 698.232 638.006C696.925 639.102 695.406 639.917 693.769 640.4C692.132 640.883 690.412 641.023 688.718 640.813C684.6 641.035 680.474 641.035 676.356 640.813C674.124 640.458 666.454 646.168 666.454 646.168C666.454 646.168 663.218 640.135 673.897 627.36C684.576 614.585 738.326 613.198 738.326 613.198Z" fill="#BB5600"/>
<path d="M738.326 613.198L737.581 614.714C736.934 616.069 736.222 617.618 735.413 619.231C735.219 619.715 734.96 620.231 734.734 620.715C733.181 623.941 730.462 623.941 727.518 623.554H726.676C724.571 622.975 722.373 622.811 720.204 623.07C717.606 623.769 715.13 624.857 712.858 626.296C713.048 626.555 713.265 626.793 713.506 627.005L712.244 626.683C709.008 628.586 705.448 631.102 701.176 634.006C699.669 635.039 698.065 635.925 696.387 636.651L695.222 637.135C691.964 638.343 688.505 638.923 685.029 638.845C682.396 638.79 679.769 638.564 677.165 638.167C668.719 637.006 666.519 646.232 666.519 646.232C665.963 646.034 665.464 645.704 665.064 645.272C664.664 644.839 664.375 644.316 664.221 643.748C663.868 642.712 663.768 641.605 663.93 640.522C663.975 639.259 663.822 637.996 663.477 636.78C662.873 634.493 662.138 632.242 661.277 630.038C659.527 625.854 658.109 621.539 657.037 617.134C657.049 613.096 657.715 609.087 659.011 605.262C659.173 604.52 659.4 603.81 659.594 603.068C659.788 602.326 659.917 602.036 660.047 601.552C686.502 602.423 712.768 606.331 738.326 613.198Z" fill="#FF8500"/>
<path opacity="0.3" d="M737.581 614.714C736.934 616.069 736.222 617.618 735.413 619.231C735.219 619.715 734.96 620.231 734.734 620.715C733.181 623.941 730.462 623.941 727.518 623.554H726.676C724.571 622.975 722.373 622.811 720.204 623.07C717.606 623.769 715.13 624.857 712.858 626.296C713.048 626.555 713.265 626.793 713.506 627.005L712.244 626.683C709.008 628.586 705.448 631.102 701.176 634.006C699.669 635.039 698.065 635.925 696.387 636.651L695.222 637.135C691.964 638.343 688.505 638.923 685.029 638.845C682.396 638.79 679.769 638.564 677.165 638.167C668.719 637.006 666.519 646.232 666.519 646.232C665.963 646.034 665.464 645.704 665.064 645.272C664.664 644.839 664.375 644.317 664.221 643.748C663.868 642.712 663.768 641.605 663.93 640.522C663.975 639.259 663.822 637.997 663.477 636.78C662.873 634.493 662.138 632.242 661.277 630.038C659.527 625.854 658.109 621.539 657.037 617.134C657.049 613.096 657.715 609.087 659.011 605.262C659.173 604.52 659.4 603.81 659.594 603.068C685.976 603.683 712.177 607.596 737.581 614.714Z" fill="#FFEBEB"/>
<path opacity="0.3" d="M725.22 615.069C721.984 612.134 718.489 614.134 713.247 613.682C709.396 613.359 708.846 613.682 707.519 612.359C707.034 611.908 706.484 611.295 705.61 610.392C702.374 606.972 699.461 609.262 694.446 609.746C689.43 610.23 688.556 608.617 683.993 607.907C680.601 606.804 676.911 607.059 673.703 608.617C669.14 610.585 668.105 609.488 661.762 606.294C660.881 605.818 659.931 605.481 658.947 605.294C657.651 609.12 656.984 613.129 656.973 617.166C658.045 621.571 659.462 625.886 661.212 630.07C662.074 632.274 662.808 634.525 663.412 636.812C663.757 638.029 663.91 639.291 663.865 640.555C663.703 641.638 663.803 642.744 664.157 643.781C664.227 643.676 664.329 643.597 664.448 643.555C664.998 643.297 665.872 643.2 665.904 642.587C665.936 641.974 665.678 642.071 665.548 641.78C665.43 641.378 665.468 640.946 665.654 640.57C665.839 640.194 666.16 639.901 666.551 639.748C667.337 639.461 668.177 639.351 669.011 639.426C669.862 639.468 670.7 639.205 671.373 638.683C671.955 638.103 672.117 637.2 672.732 636.651C673.194 636.321 673.729 636.105 674.292 636.02C674.854 635.936 675.429 635.987 675.968 636.167L682.214 637.006C682.841 637.051 683.45 637.238 683.993 637.554C684.429 637.942 684.81 638.387 685.126 638.877C688.602 638.955 692.061 638.375 695.319 637.167L696.484 636.683C698.162 635.957 699.766 635.071 701.274 634.038C705.545 631.135 709.169 628.618 712.341 626.715L713.603 627.038C713.362 626.825 713.145 626.587 712.956 626.328C712.049 625.005 711.952 623.586 709.914 622.779H709.493C707.272 622.005 704.853 622.005 702.633 622.779C701.375 622.85 700.158 623.251 699.105 623.941C698.393 624.586 697.649 625.425 696.678 625.425C696.24 625.404 695.811 625.294 695.416 625.102L693.119 624.231C692.763 624.231 692.31 623.844 692.342 623.457C692.375 623.07 693.151 622.876 693.701 622.908C694.986 622.878 696.206 622.345 697.099 621.424C699.882 618.844 702.018 616.65 706.322 617.005C709.185 617.433 711.904 618.539 714.25 620.231L714.865 620.586C715.577 621.037 716.289 621.424 717.001 621.812L717.68 622.134L718.489 622.328H719.751C722.049 621.876 723.246 621.231 725.382 622.328C725.873 622.58 726.33 622.895 726.741 623.263C727.073 623.484 727.377 623.744 727.647 624.037C730.592 624.521 733.31 624.489 734.863 621.199C735.09 620.715 735.349 620.199 735.543 619.715C733.576 619.814 731.613 619.444 729.818 618.636C728.023 617.828 726.447 616.606 725.22 615.069ZM666.778 614.263C668.462 613.893 670.207 613.893 671.891 614.263C672.582 614.383 673.256 614.589 673.897 614.876C674.9 615.424 675.677 616.456 676.809 616.682C677.442 616.676 678.073 616.752 678.686 616.908C678.874 617.006 679.037 617.143 679.166 617.31C679.294 617.478 679.385 617.671 679.431 617.877C679.477 618.082 679.478 618.296 679.433 618.502C679.388 618.708 679.299 618.901 679.172 619.069C678.868 619.36 678.49 619.562 678.079 619.653C677.668 619.744 677.24 619.721 676.842 619.586C676.055 619.302 675.242 619.097 674.415 618.973C672.181 619.134 669.935 618.971 667.749 618.489C666.884 618.297 666.123 617.791 665.613 617.069C665.477 616.827 665.379 616.566 665.322 616.295C665.095 615.198 665.742 614.618 666.745 614.327L666.778 614.263ZM682.569 627.909C682.052 628.36 681.663 628.973 681.146 629.393C680.095 630.055 678.858 630.36 677.618 630.264C675.902 630.472 674.162 630.227 672.57 629.554C672.02 629.264 671.535 628.876 670.985 628.618C670.434 628.36 668.946 628.102 667.943 627.715C667.431 627.578 666.976 627.283 666.645 626.871C666.313 626.459 666.121 625.952 666.098 625.425C666.213 624.871 666.457 624.351 666.81 623.908C667.749 622.618 669.043 621.166 670.629 621.424C671.153 621.553 671.655 621.76 672.117 622.037C673.953 622.878 675.955 623.297 677.974 623.263C679.836 623.567 681.674 623.998 683.476 624.554C683.652 624.591 683.82 624.664 683.967 624.769C684.115 624.873 684.239 625.006 684.333 625.16C684.427 625.314 684.489 625.486 684.514 625.665C684.539 625.843 684.527 626.025 684.479 626.199C684.22 627.038 683.249 627.36 682.569 627.909Z" fill="white"/>
<path d="M674.382 632.844C674.382 634.877 670.499 636.619 665.548 636.748C664.837 636.797 664.123 636.797 663.412 636.748C662.808 634.461 662.074 632.209 661.212 630.006C662.56 629.691 663.937 629.518 665.322 629.489C670.273 629.296 674.35 630.812 674.382 632.844Z" fill="#BE0000"/>
<path d="M726.709 623.199C726.724 623.284 726.724 623.371 726.709 623.457C724.603 622.878 722.405 622.714 720.237 622.973C717.639 623.673 715.162 624.76 712.891 626.199C713.08 626.458 713.297 626.696 713.538 626.909L712.276 626.586C710.237 625.973 709.04 624.973 708.878 623.844C708.882 623.348 709.079 622.874 709.428 622.521C710.936 621.214 712.812 620.403 714.8 620.199C715.773 620.032 716.758 619.935 717.745 619.908C722.34 619.908 726.158 621.102 726.709 622.908C726.723 623.005 726.723 623.102 726.709 623.199Z" fill="#BE0000"/>
<path d="M664.869 613.069L671.017 616.811L659.335 617.134L664.869 613.069Z" fill="#BE0000"/>
<path d="M688.265 620.618L686.55 616.36L692.86 615.973L694.996 620.424L688.265 620.618Z" fill="#BE0000"/>
<path d="M696.322 636.425L695.158 636.909L695.416 635.909L696.322 636.425Z" fill="#BE0000"/>
<path d="M679.042 611.133C675.483 609.553 679.269 607.746 682.278 608.391C685.288 609.036 685.191 613.876 679.042 611.133Z" fill="#BE0000"/>
<path d="M684.285 628.877L691.015 627.876L689.98 631.877L684.285 628.877Z" fill="#BE0000"/>
<path d="M707.487 611.262L713.247 613.682L707.551 613.843L707.487 611.262Z" fill="#BE0000"/>
<path d="M725.22 632.615C724.794 632.541 724.373 632.445 723.958 632.326L724.573 631.941C724.763 632.189 724.98 632.415 725.22 632.615Z" fill="#B97964"/>
<path opacity="0.2" d="M885.37 601.133L866.18 636.619C854.336 613.392 857.767 581.615 857.767 581.615L885.37 601.133Z" fill="black"/>
<path d="M894.592 1292.34L952.97 1283.69L951.19 1267.56L890.482 1275.5L894.592 1292.34Z" fill="#BE0000"/>
<path d="M1032.09 1284.66H1088.69V1267.82L1029.95 1266.69L1032.09 1284.66Z" fill="#BE0000"/>
<path d="M838.512 533.322C848.651 521.648 861.065 512.15 875.001 505.406C888.936 498.662 904.101 494.814 919.574 494.094C972.321 491.642 988.889 496.869 1008.18 514.031C1036.33 539.097 1071.34 755.078 1071.34 755.078C1019.93 769.349 966.521 775.146 913.232 772.24C913.232 772.24 912.617 712.269 893.589 671.879C872.172 626.961 853.772 580.673 838.512 533.322Z" fill="#263238"/>
<path opacity="0.3" d="M1069.53 744.238C1067.85 734.334 1065.03 718.43 1061.44 699.268C1058.92 686.009 1056.04 671.234 1052.86 656.007C1051.6 649.974 1050.31 643.845 1048.98 637.716C1048.11 633.715 1047.2 629.683 1046.3 625.683C1043.06 611.553 1039.82 597.584 1036.23 584.487C1035.46 581.583 1034.68 578.712 1033.9 575.906C1029.71 559.905 1024.3 544.246 1017.72 529.064C1015.47 523.488 1012.17 518.387 1008.01 514.031C1003.77 510.13 999.127 506.681 994.164 503.74C978.793 494.804 959.603 492.223 919.412 494.062H917.665C889.953 495.816 863.809 507.49 844.046 526.935C842.022 528.892 840.12 530.972 838.351 533.161C838.351 533.161 839.418 536.742 841.587 543.291C843.237 548.226 845.502 554.872 848.382 562.937C850.971 570.195 854.077 578.648 857.702 588.068C862.75 601.197 868.801 616.231 875.856 632.651C879.092 640.458 882.813 648.781 886.632 657.007C888.789 661.803 891.054 666.696 893.427 671.685C897.648 680.877 901.016 690.433 903.491 700.236C904.559 704.397 905.53 708.559 906.371 712.688C907.957 720.366 909.187 727.915 910.093 734.915C910.999 741.915 911.646 747.819 912.067 753.336C913.005 764.691 913.07 772.079 913.07 772.079C966.359 774.985 1019.77 769.188 1071.18 754.916C1071.18 754.916 1070.7 751.142 1069.53 744.238ZM942.161 501.288C941.32 504.675 932.809 515.095 921.095 522.806C914.937 527.087 907.93 530.002 900.546 531.354C879.383 534.58 871.131 520.999 870.549 515.612C869.966 510.224 891.647 498.901 905.951 496.998C909.187 496.578 912.779 496.288 916.5 496.159C929.412 495.772 943.165 497.288 942.161 501.288Z" fill="white"/>
<g opacity="0.2">
<path d="M1036.23 584.487C1030.08 585.132 1021.8 582.487 1014.94 581.486C1005.23 580.067 990.831 586.745 979.343 588.551C967.855 590.358 963.972 584.196 954.944 581.486C945.915 578.777 934.525 585.454 922.584 590.132C910.643 594.81 913.944 586.745 913.944 581.454C913.944 576.164 929.315 572.68 942.161 569.26C955.008 565.84 951.708 562.485 954.879 548.42C957.597 536.226 1005.1 530.419 1017.75 529.064C1025.4 547.014 1031.58 565.548 1036.23 584.487Z" fill="black"/>
<path d="M897.375 572.938C892.262 572.68 886.793 572.196 881.519 577.551C876.244 582.906 887.441 589.777 872.49 588.551C867.634 588.019 862.739 587.911 857.864 588.229C854.239 578.809 851.133 570.357 848.544 563.098C861.488 563.098 875.37 564.647 875.37 564.647C881.813 564.514 888.241 564.008 894.625 563.131C901.841 561.84 909.381 557.195 913.62 560.163C917.859 563.131 902.488 573.163 897.375 572.938Z" fill="black"/>
<path d="M975.622 637.199C968.405 637.78 952.97 635.328 947.922 637.199C942.873 639.071 938.958 637.619 930.026 644.393C921.095 651.168 917.082 657.62 905.951 656.33C899.563 655.532 893.086 655.816 886.794 657.168C882.975 648.781 879.383 640.619 876.018 632.812C885.467 632.296 897.828 631.264 900.547 629.393C905.045 626.167 913.976 619.715 922.648 621.36C931.321 623.005 949.216 627.521 951.772 627.812C957.338 628.681 963.036 627.965 968.211 625.747C977.919 622.521 979.246 622.069 984.391 623.199C989.537 624.328 982.838 636.587 975.622 637.199Z" fill="black"/>
<path d="M1052.86 656.007C1051.78 655.898 1050.68 656.007 1049.63 656.33C1045.69 657.622 1041.44 657.622 1037.49 656.33C1028.76 655.652 1019.98 655.652 1011.25 656.33C999.73 657.007 995.232 660.104 984.326 660.427C973.421 660.749 973.486 658.201 975.557 651.813C977.628 645.426 984.359 651.813 987.595 651.813C995.036 651.6 1002.21 648.998 1008.05 644.393C1015.07 638.264 1023.39 639.071 1028.76 632.619C1031.99 628.78 1036.98 626.36 1046.23 625.683C1048.46 635.812 1050.79 646.006 1052.86 656.007Z" fill="black"/>
<path d="M1006.82 702.332C1000.94 707.389 993.831 710.806 986.203 712.236C974.179 714.171 962.039 715.302 949.863 715.624C949.863 715.624 927.211 719.398 919.574 715.624C915.451 713.972 911.071 713.044 906.63 712.881C905.789 708.752 904.818 704.591 903.75 700.429C912.358 701.913 923.943 703.268 930.738 701.171C939.152 698.221 947.285 694.529 955.041 690.138C977.466 677.234 983.873 676.557 992.19 679.202C1000.51 681.847 1011.9 684.977 1013.87 684.041C1015.85 683.105 1018.92 686.88 1028.92 684.041C1038.92 681.202 1040.21 672.718 1042.77 679.202C1045.33 685.686 1006.82 702.332 1006.82 702.332Z" fill="black"/>
<path d="M1069.53 744.238C1062.52 747.863 1054.95 750.295 1047.14 751.432C1025.39 754.658 1022.83 756.303 1003 757.658C991.005 758.455 978.964 757.19 967.402 753.916C967.402 753.916 960.154 753.594 957.694 748.658C953.293 740.141 973.421 737.593 986.365 733.947C993.878 732.241 1001.06 729.321 1007.63 725.302C1013.39 722.076 1019.15 718.462 1019.15 718.462L1036.43 711.785C1036.43 711.785 1045.71 701.139 1053.71 700.494C1056.36 700.234 1059 699.825 1061.6 699.268C1065.03 718.366 1067.88 734.334 1069.53 744.238Z" fill="black"/>
<path d="M917.827 746.722C915.79 748.834 913.918 751.099 912.228 753.497C911.808 748.142 911.161 741.851 910.254 735.076C914.649 734.737 919.063 734.737 923.457 735.076C931.936 736.012 933.165 731.625 935.075 734.786C936.984 737.947 923.49 741.238 917.827 746.722Z" fill="black"/>
<path d="M994.326 503.74C990.648 506.463 986.247 508.045 981.673 508.289C959.442 510.805 963.292 507.192 951.772 512.192C940.252 517.192 951.19 517.773 935.075 520.967C930.464 521.905 925.792 522.52 921.095 522.806C932.809 515.095 941.32 504.675 942.161 501.288C943.165 497.288 929.412 495.772 916.5 496.159L917.827 494.223H919.574C959.765 492.223 978.955 494.804 994.326 503.74Z" fill="black"/>
<path d="M846.182 542.387C844.625 542.228 843.061 542.603 841.748 543.452C839.58 537 838.512 533.322 838.512 533.322C840.281 531.133 842.184 529.054 844.208 527.096C847.546 527.32 850.853 527.882 854.077 528.774C859.275 530.148 864.548 531.226 869.869 532C871.778 532.484 849.418 542.71 846.182 542.387Z" fill="black"/>
</g>
<path opacity="0.2" d="M984.391 862.31C977.543 881.868 972.336 901.96 968.826 922.378C964.943 869.246 980.508 812.952 980.508 812.952L984.391 862.31Z" fill="black"/>
<path d="M935.204 501.417C929.509 517.547 908.28 525.064 897.149 525.999C893.049 526.639 888.853 525.918 885.204 523.948C881.556 521.978 878.658 518.868 876.956 515.095C876.956 515.095 889.674 508.805 888.411 501.675C887.472 497.351 885.691 493.251 883.169 489.61C881.838 487.541 880.39 485.548 878.833 483.642L899.187 440.091C903.621 459.092 917.535 495.32 935.204 501.417Z" fill="#B97964"/>
<path opacity="0.2" d="M899.867 460.318C909.575 481.416 895.887 496.094 888.282 501.675C887.343 497.351 885.562 493.251 883.04 489.61L899.867 460.318Z" fill="black"/>
<path d="M831.652 403.766C831.652 403.766 825.18 439.639 843.917 454.059C862.653 468.48 864.627 401.379 864.627 401.379L831.652 403.766Z" fill="#263238"/>
<path d="M898.702 484.255C894.51 490.069 888.521 494.353 881.654 496.45C874.786 498.548 867.419 498.344 860.679 495.869C851.91 492.816 844.634 486.554 840.324 478.351C839.71 477.222 839.192 476.061 838.674 474.835C829.872 452.543 827.963 413.96 851.618 400.185C856.852 397.118 862.785 395.437 868.855 395.3C874.924 395.164 880.927 396.577 886.294 399.406C891.661 402.235 896.213 406.385 899.518 411.462C902.822 416.539 904.769 422.374 905.174 428.413C907.407 454.253 909.898 469.319 898.702 484.255Z" fill="#B97964"/>
<path d="M867.248 441.123C867.669 443.156 866.698 445.059 865.306 445.253C863.915 445.446 862.588 443.865 862.264 441.801C861.941 439.736 862.847 437.865 864.206 437.671C865.565 437.478 866.924 438.994 867.248 441.123Z" fill="#263238"/>
<path d="M843.56 444.478C843.981 446.511 842.978 448.414 841.619 448.575C840.26 448.737 838.901 447.22 838.577 445.156C838.254 443.091 839.16 441.22 840.519 441.026C841.878 440.833 843.269 442.478 843.56 444.478Z" fill="#263238"/>
<path d="M851.23 444.414C849.65 451.18 847.134 457.694 843.755 463.77C845.336 464.598 847.081 465.068 848.865 465.146C850.65 465.224 852.43 464.908 854.077 464.221L851.23 444.414Z" fill="#A24E3F"/>
<path d="M873.494 432.445C873.273 432.508 873.041 432.511 872.819 432.454C872.597 432.397 872.394 432.283 872.232 432.123C871.155 431.002 869.831 430.147 868.365 429.626C866.898 429.105 865.33 428.933 863.786 429.123C863.623 429.173 863.451 429.189 863.282 429.169C863.112 429.15 862.949 429.096 862.801 429.01C862.654 428.924 862.526 428.809 862.426 428.671C862.326 428.534 862.256 428.377 862.22 428.211C862.184 428.044 862.183 427.873 862.217 427.706C862.251 427.54 862.32 427.382 862.418 427.243C862.517 427.104 862.643 426.988 862.789 426.9C862.936 426.813 863.099 426.757 863.268 426.735C865.213 426.437 867.202 426.609 869.066 427.238C870.93 427.867 872.615 428.934 873.979 430.348C874.204 430.583 874.33 430.895 874.33 431.219C874.33 431.544 874.204 431.856 873.979 432.09L873.494 432.445Z" fill="#263238"/>
<path d="M832.202 437.768C831.985 437.889 831.738 437.945 831.49 437.93C831.181 437.826 830.923 437.607 830.772 437.318C830.622 437.029 830.589 436.693 830.681 436.381C831.238 434.49 832.247 432.761 833.623 431.345C834.998 429.929 836.699 428.867 838.577 428.252C838.73 428.208 838.89 428.194 839.048 428.213C839.207 428.231 839.359 428.281 839.498 428.359C839.637 428.437 839.758 428.542 839.856 428.668C839.953 428.793 840.025 428.937 840.066 429.09C840.156 429.403 840.117 429.738 839.96 430.022C839.802 430.306 839.537 430.517 839.224 430.607C837.772 431.14 836.462 432 835.396 433.118C834.33 434.237 833.536 435.585 833.076 437.059C832.988 437.231 832.865 437.383 832.714 437.506C832.564 437.628 832.389 437.717 832.202 437.768Z" fill="#263238"/>
<path d="M881.842 399.089L881.519 410.605C883.532 411.339 885.194 412.803 886.172 414.704C887.15 416.606 887.372 418.806 886.793 420.864C884.011 430.768 890.838 445.091 898.767 450.317C898.767 450.317 898.605 446.156 902.197 446.833C905.789 447.511 906.857 469.157 900.967 480.061C900.967 480.061 913.523 468.577 917.147 445.382C920.577 423.929 919.995 410.347 916.921 400.218L881.842 399.089Z" fill="#263238"/>
<path d="M919.509 447.866C917.473 454.074 913.051 459.225 907.213 462.189C899.479 466.06 893.945 459.544 894.689 451.382C895.434 444.123 900.288 433.155 908.766 432.768C917.244 432.381 921.904 440.22 919.509 447.866Z" fill="#B97964"/>
<path d="M887.958 409.444C886.197 412.509 883.692 415.084 880.672 416.932C877.653 418.781 874.217 419.845 870.678 420.025C870.678 420.025 874.853 419.412 878.25 413.057C878.25 413.057 862.07 422.735 847.217 419.509C848.863 419.256 850.442 418.682 851.864 417.818C853.285 416.954 854.522 415.819 855.501 414.477C855.501 414.477 838.965 421.09 826.377 413.638C813.789 406.186 816.669 392.249 827.154 387.023C827.154 387.023 825.698 392.346 828.643 394.217C828.643 394.217 828.643 378.087 856.699 373.377C884.755 368.667 911.97 376.603 919.704 389.185C917.63 387.611 915.149 386.659 912.552 386.443C912.552 386.443 930.544 399.96 918.571 410.315C908.151 419.187 887.958 409.444 887.958 409.444Z" fill="#263238"/>
<path d="M857.767 471.706C860.108 474.151 862.271 476.76 864.239 479.513L865.857 478.738C873.073 475.19 875.241 471.157 875.565 467.738C875.637 466.084 875.315 464.437 874.626 462.931C874.253 462.062 873.763 461.248 873.17 460.511C869.687 464.7 865.338 468.089 860.42 470.448C858.737 471.254 857.767 471.706 857.767 471.706Z" fill="#263238"/>
<path d="M860.226 470.448L862.167 472.706C868.963 469.318 873.299 466.028 874.432 463.028C874.059 462.159 873.569 461.345 872.976 460.608C869.483 464.762 865.135 468.118 860.226 470.448Z" fill="white"/>
<path d="M865.759 478.738C872.976 475.19 875.144 471.157 875.467 467.738C872.745 469.152 870.292 471.03 868.219 473.287C866.842 474.8 865.982 476.708 865.759 478.738Z" fill="#DE5753"/>
<path opacity="0.2" d="M1048.98 637.716C1015.55 623.876 989.116 566.744 989.116 566.744L1008.11 555.291L1034 575.97C1034.78 578.777 1035.55 581.648 1036.33 584.551C1039.79 597.649 1043.19 611.617 1046.39 625.747C1047.2 629.683 1048.11 633.715 1048.98 637.716Z" fill="black"/>
<path d="M1028.14 523.225C1028.14 523.225 1091.15 586.293 1099.75 598.552C1108.36 610.811 1124.77 746.69 1124.77 746.69C1124.77 746.69 1128.23 747.884 1128.55 750.819C1128.88 753.755 1129.11 791.918 1128.55 793.693C1128 795.467 1098.98 813.275 1094.71 809.049C1090.43 804.822 1084.45 761.594 1084.45 761.594L1099.75 746.69C1099.75 746.69 1081.96 646.684 1070.82 630.554C1059.69 614.424 1013.77 579.648 1013.77 579.648L1028.14 523.225Z" fill="#B97964"/>
<path d="M979.699 497.836C970.509 517.192 977.498 558.066 994.423 572.454C1012.32 587.258 1031.25 600.786 1051.05 612.94L1082.02 572.615C1082.02 572.615 1049.14 540.581 1029.24 522.16C1005 499.772 979.699 497.836 979.699 497.836Z" fill="#263238"/>
<path d="M1370.83 644.522L1346.37 662.782L1209.1 649.2L1211.17 571.518C1230.49 568.077 1250.16 566.994 1269.74 568.292C1279.47 569.06 1289.09 570.899 1298.41 573.776C1301.1 574.551 1303.78 575.422 1306.41 576.293C1326.95 583.325 1343.85 592.648 1346.37 595.068C1350.35 599.004 1370.83 644.522 1370.83 644.522Z" fill="#EEC1BB"/>
<path d="M1303.4 633.522C1313.1 658.136 1274.6 637.296 1274.6 637.296L1287.54 623.263C1287.54 623.263 1284.08 595.455 1298.35 573.873C1301.03 574.647 1303.72 575.518 1306.34 576.389C1303.53 584.777 1295.14 612.94 1303.4 633.522Z" fill="#263238"/>
<path d="M1383.42 604.068L1376.59 568.099C1376.59 568.099 1373.78 559.259 1375.75 555.549C1377.73 551.84 1395.72 533.935 1399.18 534.451C1402.64 534.968 1414.46 550.581 1412.13 555.614C1409.8 560.646 1392.13 573.712 1389.96 574.325L1399.67 601.875L1383.42 604.068Z" fill="#EEC1BB"/>
<path d="M1306.99 445.801C1306.99 445.801 1287.57 421.767 1255.86 427.122C1224.15 432.477 1229.97 490.933 1229.97 490.933C1224.11 495.99 1219.76 502.555 1217.38 509.91C1215.01 517.266 1214.71 525.13 1216.51 532.645C1222.66 559.098 1294.82 574.422 1322.42 556.001C1350.03 537.581 1328.67 479.287 1315.4 471.028C1302.13 462.77 1306.99 445.801 1306.99 445.801Z" fill="#263238"/>
<path d="M1257.51 589.261C1283.4 586.035 1291.23 574.938 1291.23 574.938C1274.79 559.453 1288.45 532.645 1288.45 532.645L1257.25 538.452C1257.97 542.783 1258.37 547.16 1258.45 551.549C1258.71 570.421 1250.13 570.615 1250.13 570.615C1244.66 580.841 1257.51 589.261 1257.51 589.261Z" fill="#EEC1BB"/>
<path opacity="0.2" d="M1257.25 538.452C1257.97 542.783 1258.37 547.16 1258.45 551.549C1273.5 548.065 1288.45 532.645 1288.45 532.645L1257.25 538.452Z" fill="black"/>
<path d="M1285.05 452.382C1258.61 446.156 1246.77 458.253 1238.38 484.932C1227.9 518.289 1229.71 544.194 1264.47 544.742C1311.68 545.484 1328.93 462.77 1285.05 452.382Z" fill="#EEC1BB"/>
<path d="M1255.79 487.481C1252.76 490.926 1249.31 493.992 1245.54 496.61C1246.04 497.883 1246.9 498.988 1248 499.803C1249.1 500.618 1250.41 501.11 1251.78 501.224L1255.79 487.481Z" fill="#D4827D"/>
<path d="M1272.49 489.158C1271.94 491.32 1272.49 493.352 1274.08 493.739C1275.66 494.126 1277.15 492.675 1277.7 490.513C1278.25 488.352 1277.7 486.319 1276.12 485.932C1274.53 485.545 1273.07 487.126 1272.49 489.158Z" fill="#263238"/>
<path d="M1276.7 486.223L1272.49 483.158C1272.49 483.158 1273.79 487.707 1276.7 486.223Z" fill="#263238"/>
<path d="M1245.86 481.706C1245.31 483.868 1245.86 485.9 1247.45 486.287C1249.03 486.674 1250.68 485.223 1251.07 483.061C1251.46 480.9 1251.07 478.867 1249.52 478.48C1247.96 478.093 1246.35 479.545 1245.86 481.706Z" fill="#263238"/>
<path d="M1249.97 478.771L1245.76 475.706C1245.76 475.706 1247.06 480.255 1249.97 478.771Z" fill="#263238"/>
<path d="M1277.09 470.996C1279.24 471.24 1281.3 471.971 1283.13 473.134C1284.95 474.297 1286.48 475.861 1287.6 477.706" stroke="#263238" stroke-width="0.72468" stroke-linecap="round" stroke-linejoin="round"/>
<path d="M1258.16 465.383C1256.46 464.496 1254.58 464.006 1252.66 463.951C1250.74 463.895 1248.84 464.274 1247.09 465.06" stroke="#263238" stroke-width="0.72468" stroke-linecap="round" stroke-linejoin="round"/>
<path d="M1253.17 512.515C1253.72 515.778 1254.02 519.078 1254.08 522.386L1255.83 522.644C1263.69 523.676 1267.7 521.547 1269.74 518.902C1270.71 517.587 1271.34 516.06 1271.59 514.45C1271.76 513.536 1271.82 512.604 1271.75 511.676C1266.59 513.178 1261.18 513.574 1255.86 512.837C1254.21 512.676 1253.17 512.515 1253.17 512.515Z" fill="#263238"/>
<path d="M1255.86 512.934L1256.22 515.837C1263.63 516.773 1268.97 516.483 1271.59 514.547C1271.76 513.633 1271.82 512.7 1271.75 511.773C1266.59 513.275 1261.18 513.671 1255.86 512.934Z" fill="white"/>
<path d="M1255.83 522.612C1263.69 523.644 1267.7 521.515 1269.74 518.87C1266.73 518.524 1263.69 518.721 1260.75 519.45C1258.81 519.959 1257.09 521.066 1255.83 522.612Z" fill="#DE5753"/>
<path d="M1303.36 503.611C1303.36 503.611 1296.18 479.061 1302 462.77C1302 462.77 1254.73 429.09 1239.52 481.448C1239.52 481.448 1245.6 433.058 1291.29 442.736C1336.99 452.414 1321 518.612 1292.85 532.806C1292.85 532.967 1307.8 518.967 1303.36 503.611Z" fill="#263238"/>
<path d="M1297.64 508.16C1298.61 505.172 1300.74 502.693 1303.55 501.266C1306.36 499.839 1309.62 499.58 1312.62 500.546C1320.61 503.385 1320.51 521.064 1299.19 520.257C1296.24 520.16 1295.27 516.934 1297.64 508.16Z" fill="#EEC1BB"/>
<path d="M1285.05 452.382C1285.05 452.382 1275.34 485.577 1305.08 500.772C1341.06 518.934 1337.63 558.163 1302.52 563.163C1302.52 563.163 1338.12 559.614 1344.88 536.516C1351.64 513.418 1332.2 477.9 1332.2 477.9C1332.2 477.9 1342.94 458.092 1313.82 442.865C1297.64 434.187 1285.05 452.382 1285.05 452.382Z" fill="#263238"/>
<path d="M1288.45 448.414C1288.45 448.414 1274.89 458.092 1284.98 483.61" stroke="#263238" stroke-width="0.5" stroke-linecap="round" stroke-linejoin="round"/>
<path d="M1232.92 488.771C1232.92 488.771 1195.67 512.805 1219.81 543.775" stroke="#263238" stroke-width="0.5" stroke-linecap="round" stroke-linejoin="round"/>
<path d="M1231.72 1186.94C1252.36 1212.75 1270.91 1236.3 1287.09 1253.4C1303.27 1270.72 1311.62 1281.46 1311.62 1281.46L1327.6 1272.3C1327.6 1272.3 1312.81 1248.98 1292.75 1216.81C1275.7 1189.52 1254.82 1155.84 1235.86 1124.65C1211.33 1084.32 1190.04 1048.16 1184.41 1035.22C1180.4 1026.03 1191.24 990.705 1203.24 957.412C1215.44 923.507 1228.84 891.666 1228.84 891.666L1185.19 817.952C1185.19 817.952 1167.42 867.02 1151.63 918.797C1141.24 952.67 1131.82 987.737 1128.62 1011.03C1124.15 1043.58 1180.46 1122.65 1231.72 1186.94Z" fill="#EEC1BB"/>
<path opacity="0.2" d="M1231.56 1186.94C1252.2 1212.75 1272.04 1236.3 1286.8 1253.4C1288.9 1242.88 1291.03 1230.43 1292.72 1216.85C1275.66 1189.56 1254.79 1155.88 1235.83 1124.68C1236.23 1145.52 1234.8 1166.35 1231.56 1186.94Z" fill="black"/>
<path opacity="0.2" d="M1151.63 918.829L1203.24 957.541C1215.44 923.636 1228.84 891.795 1228.84 891.795L1185.18 818.081C1185.18 818.081 1167.42 867.052 1151.63 918.829Z" fill="black"/>
<path d="M1241.78 1319.14L1260.39 1321.56C1260.39 1321.56 1287.09 1190.56 1286.28 1082.45C1296.19 1046.68 1303.93 1010.34 1309.45 973.639C1315.92 929.378 1319.16 880.085 1310.55 843.309L1245.83 872.343L1244.5 969.123L1243.4 1049.77L1241.78 1319.14Z" fill="#EEC1BB"/>
<path opacity="0.2" d="M1244.5 969.123L1309.45 973.639C1315.92 929.378 1319.16 880.085 1310.55 843.309L1245.83 872.343L1244.5 969.123Z" fill="black"/>
<path d="M1326.53 1262.17C1324.62 1260.79 1308.54 1284.75 1308.54 1284.75C1308.54 1284.75 1312.1 1309.82 1304.85 1326.02C1297.6 1342.21 1311.71 1340.82 1323.43 1325.5L1352.55 1287.56C1360.84 1276.79 1346.18 1276.5 1326.53 1262.17Z" fill="#263238"/>
<path d="M1302.55 1303.08C1302.08 1303.05 1301.62 1302.91 1301.2 1302.67C1300.79 1302.43 1300.45 1302.09 1300.19 1301.69C1299.92 1301.35 1299.73 1300.96 1299.62 1300.55C1299.52 1300.13 1299.5 1299.7 1299.58 1299.27C1300.11 1297.15 1301.23 1295.23 1302.81 1293.72C1300.39 1294.82 1297.93 1295.53 1296.67 1294.66C1295.4 1293.79 1295.56 1293.11 1295.89 1291.69C1296.01 1291.06 1296.27 1290.46 1296.64 1289.94C1297.02 1289.42 1297.5 1288.98 1298.06 1288.66C1301.75 1286.53 1308.54 1288.66 1308.9 1288.66L1309.16 1288.82V1289.01V1289.24V1289.56C1308.7 1291.63 1306.34 1302.01 1302.68 1302.88L1302.55 1303.08ZM1307.54 1291.5C1305.01 1293.63 1301.39 1297.11 1301.07 1299.47C1301.02 1299.69 1301.03 1299.92 1301.09 1300.15C1301.14 1300.37 1301.25 1300.58 1301.39 1300.76C1302.1 1301.66 1302.55 1301.56 1302.72 1301.53C1304.43 1301.11 1306.37 1295.95 1307.54 1291.5ZM1302.46 1289.24C1301.25 1289.18 1300.04 1289.44 1298.96 1289.98C1298.59 1290.19 1298.26 1290.49 1298.01 1290.84C1297.76 1291.19 1297.59 1291.59 1297.51 1292.01C1297.51 1292.43 1297.31 1293.17 1297.51 1293.4C1298.61 1294.14 1302.91 1292.24 1306.79 1289.82C1305.37 1289.47 1303.92 1289.27 1302.46 1289.24Z" fill="#BE0000"/>
<path d="M1266.99 1309.76C1266.99 1307.4 1237.87 1309.24 1237.87 1309.24C1237.87 1309.24 1220.07 1327.31 1202.76 1331.37C1185.44 1335.43 1195.12 1345.79 1214.47 1345.79H1262.33C1276.15 1345.76 1267.57 1334.08 1266.99 1309.76Z" fill="#263238"/>
<path d="M1222.75 1316.6C1221.85 1316.66 1220.95 1316.42 1220.2 1315.92C1219.74 1315.54 1219.41 1315.01 1219.28 1314.43C1219.16 1313.84 1219.23 1313.23 1219.49 1312.69C1219.6 1312.28 1219.8 1311.89 1220.06 1311.55C1220.33 1311.21 1220.66 1310.93 1221.04 1310.72C1223.09 1309.9 1225.33 1309.65 1227.51 1310.01C1225.18 1308.76 1223.11 1307.24 1223.01 1305.72C1223.01 1304.72 1223.6 1303.92 1224.92 1303.3C1225.51 1303.03 1226.15 1302.89 1226.8 1302.89C1227.45 1302.89 1228.09 1303.03 1228.68 1303.3C1232.59 1304.92 1235.15 1311.59 1235.15 1311.95C1235.16 1312.05 1235.16 1312.14 1235.15 1312.24C1235.16 1312.31 1235.16 1312.39 1235.15 1312.47C1235.15 1312.47 1235.15 1312.63 1235.15 1312.66L1234.92 1312.82C1231.12 1314.77 1227 1316.05 1222.75 1316.6ZM1225.21 1311.56C1224.04 1311.5 1222.86 1311.72 1221.78 1312.21C1221.58 1312.31 1221.41 1312.45 1221.27 1312.62C1221.13 1312.79 1221.03 1312.99 1220.98 1313.21C1220.68 1314.34 1220.98 1314.66 1221.17 1314.76C1222.53 1315.85 1227.84 1314.27 1232.11 1312.47C1229.85 1311.93 1227.54 1311.63 1225.21 1311.56ZM1226.9 1304.53C1226.44 1304.53 1225.99 1304.63 1225.57 1304.82C1225.18 1305.01 1224.53 1305.4 1224.53 1305.79C1224.53 1307.11 1228.77 1309.34 1233.05 1310.98C1232.12 1308.43 1230.38 1306.24 1228.09 1304.76C1227.71 1304.61 1227.31 1304.53 1226.9 1304.53Z" fill="#BE0000"/>
<path d="M1215.77 939.282L1145.77 902.731C1167.81 836.018 1187.64 798.209 1187.64 798.209C1256.44 809.952 1250.16 864.181 1250.16 864.181C1250.16 864.181 1232.62 900.344 1215.77 939.282Z" fill="#BE0000"/>
<path opacity="0.6" d="M1220.26 929.088L1215.77 939.379L1145.8 902.828C1167.81 836.147 1187.64 798.306 1187.64 798.306C1230.1 805.597 1243.95 828.985 1248.35 845.857C1249.98 851.854 1250.59 858.08 1250.16 864.278C1250.16 864.278 1235.63 894.215 1220.26 929.088Z" fill="white"/>
<path opacity="0.2" d="M1220.26 929.088C1235.63 894.312 1250.16 864.278 1250.16 864.278C1250.59 858.08 1249.98 851.854 1248.35 845.857C1246.16 844.445 1243.74 843.429 1241.2 842.857C1241.2 842.857 1222.5 872.02 1220.26 929.088Z" fill="black"/>
<path d="M1237.45 954.347L1239.84 842.76L1184.38 826.63C1184.38 826.63 1188.74 775.434 1195.22 750.174C1195.22 750.174 1285.34 727.818 1299.06 758.271C1299.06 758.271 1299.06 758.755 1299.25 758.916L1299.48 759.207C1299.48 759.207 1325.37 804.597 1317.63 954.347H1237.45Z" fill="#BE0000"/>
<path opacity="0.6" d="M1237.45 954.347L1239.84 842.76L1184.38 826.63C1184.38 826.63 1188.74 775.434 1195.22 750.174C1195.22 750.174 1285.34 727.818 1299.06 758.271C1299.06 758.271 1299.06 758.755 1299.25 758.916L1299.48 759.207C1299.48 759.207 1325.37 804.597 1317.63 954.347H1237.45Z" fill="white"/>
<path d="M1300.03 742.819V758.045L1196.48 750.077V732.076L1300.03 742.819Z" fill="#263238"/>
<path d="M1269.45 736.528H1264.27V762.852H1269.45V736.528Z" fill="#BE0000"/>
<path d="M1241.88 736.754H1218.97V754.078H1241.88V736.754Z" fill="white"/>
<path d="M1205.73 729.56H1200.56V755.884H1205.73V729.56Z" fill="#BE0000"/>
<path opacity="0.6" d="M1269.45 736.528H1264.27V762.852H1269.45V736.528Z" fill="white"/>
<path opacity="0.6" d="M1205.73 729.56H1200.56V755.884H1205.73V729.56Z" fill="white"/>
<path d="M1324.3 949.767L1232.88 948.96L1234.5 962.671L1320.26 961.864L1324.3 949.767Z" fill="#BE0000"/>
<path d="M1221.56 938.476L1145.51 897.344L1141.47 909.442L1215.09 945.734L1221.56 938.476Z" fill="#BE0000"/>
<path d="M1182.92 560.969L1200.36 530.225C1203.97 527.658 1207.31 524.752 1210.36 521.547C1212.66 518.321 1220.33 508.643 1218.39 508.643C1216.44 508.643 1182.27 502.837 1180.36 505.127C1178.45 507.418 1188.55 526.096 1188.55 526.096L1168.78 548.872L1182.92 560.969Z" fill="#EEC1BB"/>
<path d="M1179.68 503.675C1179.08 505.054 1178.91 506.585 1179.2 508.063C1179.65 510.644 1182.76 514.515 1186.09 513.966C1189.42 513.418 1191.98 510.74 1196.9 512.063C1201.82 513.386 1204.37 515.289 1208.29 515.289C1211.04 515.552 1213.69 516.459 1216.02 517.934C1217.25 518.642 1218.61 519.091 1220.02 519.252C1221.43 519.413 1222.86 519.283 1224.21 518.87C1227.61 518.469 1230.98 517.866 1234.31 517.063C1236.09 516.45 1243.17 519.999 1243.17 519.999C1243.17 519.999 1244.92 514.612 1234.34 505.74C1223.76 496.869 1179.68 503.675 1179.68 503.675Z" fill="#D58745"/>
<path d="M1243.95 517.999C1243.56 516.304 1242.83 514.703 1241.82 513.289C1239.94 510.74 1237.35 508.772 1235.7 506.063C1235.07 505.073 1234.62 503.981 1234.37 502.837C1233.03 502.628 1231.71 502.315 1230.42 501.901C1228.46 501.04 1226.82 499.569 1225.76 497.707C1224.93 496.018 1223.52 494.68 1221.78 493.933C1219.07 492.997 1215.31 492.771 1213.11 490.546C1201.67 494.122 1190.5 498.498 1179.68 503.643L1180.49 504.772L1182.92 507.998L1183.7 509.127C1185.44 511.579 1187.68 511.224 1190.01 510.418L1190.69 510.192C1192.34 509.406 1194.13 508.957 1195.96 508.869C1198.18 509.02 1200.36 509.51 1202.43 510.321C1202.34 510.571 1202.19 510.8 1202.01 510.998L1203.02 510.547C1205.86 511.644 1209.2 513.192 1213.11 514.934C1214.5 515.557 1215.94 516.054 1217.42 516.418L1218.42 516.644C1221.25 517.177 1224.16 517.177 1226.99 516.644C1229.19 516.222 1231.35 515.662 1233.47 514.966C1240.2 512.773 1243.34 519.999 1243.34 519.999C1243.63 519.813 1243.89 519.585 1244.11 519.321C1244.03 518.885 1243.97 518.443 1243.95 517.999Z" fill="#FF931D"/>
<path opacity="0.3" d="M1243.95 517.999C1243.56 516.303 1242.83 514.703 1241.82 513.289C1239.94 510.74 1237.35 508.772 1235.7 506.063C1235.07 505.073 1234.62 503.981 1234.37 502.837C1233.03 502.628 1231.71 502.315 1230.42 501.901C1228.46 501.04 1226.82 499.569 1225.76 497.707C1224.93 496.018 1223.52 494.68 1221.78 493.933C1219.15 493.388 1216.59 492.543 1214.15 491.417C1202.6 494.99 1191.35 499.456 1180.49 504.772L1182.92 507.998L1183.7 509.127C1185.44 511.579 1187.68 511.224 1190.01 510.418L1190.69 510.192C1192.34 509.406 1194.13 508.956 1195.96 508.869C1198.18 509.02 1200.36 509.51 1202.43 510.321C1202.34 510.571 1202.19 510.8 1202.01 510.998L1203.02 510.547C1205.86 511.643 1209.2 513.192 1213.11 514.934C1214.5 515.557 1215.94 516.054 1217.42 516.418L1218.42 516.644C1221.25 517.177 1224.16 517.177 1226.99 516.644C1229.19 516.222 1231.35 515.662 1233.47 514.966C1240.2 512.773 1243.34 519.999 1243.34 519.999C1243.63 519.813 1243.89 519.585 1244.11 519.321C1244.03 518.885 1243.97 518.443 1243.95 517.999Z" fill="white"/>
<path opacity="0.3" d="M1241.82 513.289C1240.16 511.063 1238 509.224 1236.38 506.837L1235.76 507.353C1234.56 508.126 1233.18 508.581 1231.75 508.676C1230.75 508.926 1229.69 508.846 1228.74 508.45C1228.26 508.192 1227.87 507.74 1227.38 507.45C1226.9 507.159 1225.89 506.966 1225.57 506.321C1225.5 506.187 1225.46 506.039 1225.45 505.889C1225.45 505.739 1225.47 505.588 1225.53 505.448C1225.58 505.308 1225.67 505.181 1225.77 505.075C1225.88 504.97 1226.01 504.889 1226.15 504.837C1227.54 504.125 1228.98 503.511 1230.46 502.998L1232.69 502.385C1231.92 502.249 1231.16 502.044 1230.42 501.772C1228.46 500.911 1226.82 499.44 1225.76 497.578C1224.93 495.889 1223.52 494.551 1221.78 493.804C1221 493.538 1220.2 493.323 1219.39 493.159C1218.05 493.883 1216.55 494.281 1215.02 494.32C1210.85 494.675 1208.19 493.223 1205.99 496.481C1205.41 497.352 1205.05 497.933 1204.73 498.352C1203.82 499.546 1203.34 499.449 1200.23 500.288C1196.03 501.385 1192.89 500.288 1190.52 503.127C1189.7 504.482 1188.58 505.627 1187.23 506.473C1185.89 507.318 1184.37 507.841 1182.79 507.998L1183.57 509.127C1185.31 511.579 1187.55 511.224 1189.88 510.418C1190.05 510.127 1190.27 509.866 1190.52 509.643C1190.8 509.274 1191.12 508.948 1191.5 508.676C1193.05 507.385 1194.12 507.74 1196.06 507.772H1196.71H1197.13L1197.74 507.514L1198.26 507.127L1199.81 505.837L1200.26 505.45C1201.95 503.76 1204.01 502.499 1206.28 501.772C1207.73 501.476 1209.23 501.53 1210.66 501.928C1212.08 502.327 1213.39 503.058 1214.47 504.062C1215.33 504.672 1216.4 504.927 1217.45 504.772C1217.9 504.772 1218.55 504.579 1218.65 505.03C1218.74 505.482 1218.39 505.611 1218.13 505.772L1216.38 506.805C1216.09 507.019 1215.76 507.172 1215.41 507.256C1214.71 507.212 1214.03 506.941 1213.5 506.482C1212.53 506.075 1211.47 505.931 1210.43 506.063C1208.5 505.732 1206.52 506.086 1204.83 507.063C1204.71 507.09 1204.6 507.146 1204.5 507.224C1202.95 508.159 1203.08 509.353 1202.53 510.45C1202.43 510.7 1202.29 510.93 1202.11 511.127L1203.11 510.676C1205.96 511.773 1209.29 513.321 1213.21 515.063C1214.6 515.686 1216.04 516.183 1217.51 516.547L1218.52 516.773C1221.35 517.306 1224.26 517.306 1227.09 516.773C1227.28 516.329 1227.53 515.916 1227.84 515.547C1228.22 515.205 1228.69 514.962 1229.19 514.837L1234.18 513.224C1234.58 513.032 1235.02 512.933 1235.47 512.933C1235.92 512.933 1236.36 513.032 1236.77 513.224C1237.35 513.579 1237.61 514.289 1238.19 514.676C1238.82 515.006 1239.54 515.098 1240.23 514.934C1240.9 514.789 1241.6 514.789 1242.27 514.934C1242.6 515.01 1242.89 515.191 1243.11 515.45C1242.76 514.685 1242.32 513.96 1241.82 513.289Z" fill="white"/>
<path d="M1190.62 510.16C1190.61 510.223 1190.61 510.289 1190.62 510.353C1192.27 509.567 1194.07 509.118 1195.9 509.031C1198.12 509.182 1200.3 509.671 1202.37 510.482C1202.27 510.732 1202.13 510.962 1201.95 511.16L1202.95 510.708C1204.5 509.934 1205.44 508.902 1205.31 507.998C1205.28 507.795 1205.21 507.601 1205.1 507.429C1204.99 507.257 1204.84 507.11 1204.67 506.998C1203.25 506.13 1201.6 505.734 1199.94 505.869C1199.12 505.873 1198.3 505.938 1197.48 506.063C1193.73 506.611 1190.78 508.256 1190.62 509.805C1190.59 509.921 1190.59 510.043 1190.62 510.16Z" fill="#BE0000"/>
<path d="M1221.65 502.482L1222.43 498.772L1217.22 499.353L1216.15 503.288L1221.65 502.482Z" fill="#BE0000"/>
<path d="M1217.38 516.577L1218.39 516.801L1218.03 515.999L1217.38 516.577Z" fill="#BE0000"/>
<path d="M1226.12 508.676L1220.46 508.805L1221.91 511.934L1226.12 508.676Z" fill="#BE0000"/>
<path d="M1204.6 497.61L1200.23 500.449L1204.92 499.74L1204.6 497.61Z" fill="#BE0000"/>
<path d="M1204.89 568.26L1200.56 606.069L1193.34 668.653C1179.5 675.181 1165.04 680.294 1150.17 683.912C1132.02 688.009 1113.77 688.138 1107.94 674.879C1085.87 624.521 1174.21 538.742 1174.21 538.742L1196.48 554.549L1186.38 577.841C1191.15 572.479 1197.75 569.066 1204.89 568.26Z" fill="#BE0000"/>
<path opacity="0.2" d="M1200.56 606.068L1193.34 668.653C1179.5 675.181 1165.04 680.294 1150.17 683.912C1152.02 646.942 1190.1 614.359 1200.56 606.068Z" fill="black"/>
<path d="M1420.96 758.11C1372.94 774.24 1346.37 726.14 1346.37 726.14C1346.37 726.14 1346.86 746.432 1346.86 770.982C1346.86 799.37 1346.27 833.437 1343.62 848.406C1338.47 876.278 1319.16 879.246 1319.16 879.246C1299.22 876.698 1172.34 831.953 1172.34 831.953C1155.93 799.371 1184.21 747.787 1187.42 735.496C1190.62 723.205 1184.86 666.104 1184.86 666.104L1184.38 629.618C1184.36 607.509 1191.57 585.996 1204.89 568.324C1211.36 566.711 1235.28 563.066 1235.28 568.615C1234.89 569.744 1233.27 576.744 1269.74 596.745C1303.49 615.295 1343.43 614.392 1360.64 611.23C1376.37 636.361 1376.82 641.49 1379.67 642.361C1384.17 643.716 1378.5 592.487 1378.5 592.487L1401.16 584.938C1401.16 584.938 1469.14 741.98 1420.96 758.11Z" fill="#BE0000"/>
<path opacity="0.2" d="M1346.86 771.014C1339.22 767.046 1329.03 758.82 1320 741.98C1302.85 709.946 1324.3 662.556 1324.3 662.556C1323.46 688.106 1346.37 726.237 1346.37 726.237C1346.37 726.237 1346.86 746.367 1346.86 771.014Z" fill="black"/>
<path opacity="0.2" d="M1186.38 577.809C1186.38 577.809 1159.17 650.071 1139.95 662.395C1139.95 662.395 1157.65 658.556 1167.16 636.587C1174.68 617.374 1181.1 597.75 1186.38 577.809Z" fill="black"/>
<path opacity="0.4" d="M1289.97 715.398C1291.23 718.624 1291.62 728.011 1291.58 739.012C1291.58 759.658 1289.97 785.757 1289.97 785.757L1198 765.239C1198 765.239 1207.42 728.398 1209.1 715.398C1209.47 711.24 1209.39 707.055 1208.87 702.913C1207.57 691.4 1205.66 679.964 1203.14 668.653L1211.49 638.135L1294.34 645.006C1294.34 645.006 1286.34 706.268 1289.97 715.398Z" fill="white"/>
<path opacity="0.2" d="M1291.58 739.012C1291.58 759.658 1289.97 785.757 1289.97 785.757L1198 765.239C1198 765.239 1207.42 728.398 1209.1 715.398C1209.47 711.24 1209.39 707.055 1208.87 702.913L1226.12 726.076L1258.16 696.816L1291.58 739.012Z" fill="white"/>
</svg>
