<svg width="571" height="546" viewBox="0 0 571 546" fill="none" xmlns="http://www.w3.org/2000/svg">
<path d="M187.36 476.808H0L10.5403 466.402H193.515L187.36 476.808Z" fill="#E0E0E0"/>
<path d="M344.733 257.25C345.911 256.678 347.032 255.995 348.08 255.211C350.1 253.865 352.85 251.98 355.774 249.845L357.293 248.768L356.736 248.633C358.351 251.461 359.794 253.942 360.871 255.692C361.408 256.677 362.053 257.6 362.794 258.443C362.448 257.39 361.977 256.382 361.39 255.442C360.448 253.615 359.063 251.076 357.543 248.248L357.313 247.864L356.966 248.114L355.428 249.191C352.427 251.326 349.657 253.288 347.734 254.75C346.646 255.472 345.64 256.311 344.733 257.25Z" fill="#191919"/>
<path d="M566.323 469.797C568.756 435.05 542.559 404.91 507.812 402.478C473.065 400.046 442.926 426.242 440.493 460.989C438.061 495.736 464.257 525.876 499.004 528.308C533.751 530.74 563.891 504.544 566.323 469.797Z" fill="#191919"/>
<path d="M437.769 464.229V464.402C437.696 480.979 444.169 496.915 455.78 508.747C467.392 520.579 483.204 527.349 499.779 527.588C516.355 527.826 532.355 521.512 544.302 510.019C556.249 498.526 563.176 482.782 563.58 466.21C563.58 466.21 563.58 466.094 563.58 466.056L437.769 464.229Z" fill="#191919"/>
<path d="M456.503 464.671C456.363 473.426 458.824 482.025 463.574 489.38C468.325 496.735 475.151 502.515 483.188 505.988C491.225 509.462 500.113 510.472 508.724 508.891C517.336 507.309 525.285 503.209 531.565 497.107C537.844 491.005 542.172 483.178 544 474.615C545.828 466.052 545.074 457.139 541.833 449.005C538.592 440.871 533.011 433.882 525.795 428.922C518.58 423.963 510.055 421.256 501.3 421.144C489.593 420.995 478.304 425.493 469.908 433.652C461.511 441.81 456.691 452.965 456.503 464.671Z" fill="#FAFAFA"/>
<path d="M501.3 421.144C489.593 420.995 478.304 425.493 469.908 433.652C461.511 441.81 456.691 452.965 456.503 464.671L544.827 465.941C544.976 454.234 540.478 442.945 532.319 434.549C524.161 426.152 513.006 421.332 501.3 421.144Z" fill="#E0E0E0"/>
<path d="M473.756 464.921C473.677 470.248 475.179 475.478 478.073 479.951C480.967 484.424 485.123 487.937 490.014 490.048C494.906 492.158 500.313 492.77 505.552 491.806C510.792 490.842 515.628 488.346 519.448 484.634C523.268 480.921 525.902 476.159 527.015 470.949C528.128 465.739 527.671 460.317 525.701 455.367C523.731 450.417 520.338 446.163 515.95 443.142C511.562 440.121 506.376 438.47 501.05 438.397C493.914 438.3 487.032 441.038 481.914 446.012C476.797 450.985 473.863 457.786 473.756 464.921Z" fill="#191919"/>
<path d="M470.813 373.059C470.813 373.059 535.229 353.575 561.887 423.549L427.094 465.306L470.813 373.059Z" fill="#C33633"/>
<path d="M49.5855 464.402C49.408 476.844 52.9241 489.06 59.6892 499.504C66.4544 509.948 76.1646 518.151 87.5921 523.077C99.0196 528.002 111.651 529.428 123.889 527.174C136.127 524.92 147.421 519.088 156.345 510.415C165.268 501.742 171.419 490.618 174.019 478.449C176.62 466.28 175.554 453.613 170.956 442.05C166.357 430.487 158.433 420.548 148.186 413.488C137.938 406.429 125.828 402.567 113.385 402.391C105.124 402.271 96.9198 403.781 89.2419 406.833C81.564 409.885 74.5626 414.42 68.6379 420.178C62.7131 425.937 57.981 432.806 54.7119 440.395C51.4428 447.983 49.7009 456.14 49.5855 464.402Z" fill="#191919"/>
<path d="M49.5856 464.229V464.402C49.5125 480.979 55.9851 496.915 67.5966 508.747C79.2081 520.579 95.02 527.349 111.596 527.588C128.172 527.826 144.172 521.512 156.118 510.019C168.065 498.526 174.993 482.782 175.396 466.21C175.396 466.21 175.396 466.094 175.396 466.056L49.5856 464.229Z" fill="#191919"/>
<path d="M68.3196 464.671C68.1793 473.428 70.6415 482.03 75.3942 489.386C80.1469 496.743 86.9763 502.523 95.0171 505.995C103.058 509.466 111.948 510.473 120.562 508.887C129.175 507.302 137.124 503.195 143.402 497.088C149.679 490.98 154.002 483.147 155.824 474.58C157.645 466.014 156.883 457.099 153.633 448.966C150.384 440.833 144.793 433.848 137.57 428.895C130.347 423.942 121.816 421.244 113.058 421.144C101.361 421.011 90.0877 425.515 81.7035 433.672C73.3193 441.829 68.5071 452.975 68.3196 464.671Z" fill="#FAFAFA"/>
<path d="M113.058 421.144C101.351 420.995 90.0628 425.493 81.666 433.652C73.2693 441.81 68.4491 452.965 68.2617 464.671L156.585 465.941C156.734 454.234 152.236 442.945 144.078 434.549C135.919 426.152 124.764 421.332 113.058 421.144Z" fill="#E0E0E0"/>
<path d="M85.5728 464.921C85.4934 470.248 86.9957 475.478 89.8897 479.951C92.7837 484.424 96.9393 487.937 101.831 490.048C106.722 492.158 112.13 492.77 117.369 491.806C122.608 490.842 127.444 488.346 131.264 484.634C135.085 480.921 137.718 476.159 138.831 470.949C139.944 465.739 139.487 460.317 137.517 455.367C135.548 450.417 132.154 446.163 127.766 443.142C123.378 440.121 118.193 438.47 112.866 438.397C105.731 438.3 98.8484 441.038 93.7309 446.012C88.6134 450.985 85.6792 457.786 85.5728 464.921Z" fill="#191919"/>
<path d="M201.978 440.051C201.535 440.225 168.837 434.935 168.837 434.935C167.067 437.25 164.812 439.15 162.23 440.502C159.649 441.854 156.803 442.626 153.892 442.763C139.755 443.437 125.907 444.071 113.924 444.687C108.58 444.932 103.549 447.279 99.9282 451.217C96.3074 455.155 94.3898 460.364 94.5933 465.71C94.811 470.804 96.9348 475.63 100.544 479.232C104.153 482.834 108.983 484.948 114.078 485.156L183.744 487.887C195.284 488.348 210.441 481.386 217.596 472.499L201.978 440.051Z" fill="#C33633"/>
<path d="M30.8133 412.2C30.8133 412.2 27.8128 350.901 85.4383 338.11V330.263H287.282V348.997C287.282 348.997 257.661 384.676 267.336 414.297C277.01 443.917 280.03 446.995 280.03 446.995H394.916C403.973 434.245 409.023 419.084 409.418 403.449C410.034 377.463 399.224 332.994 391.165 304.585C383.837 278.735 379.202 257.135 379.202 257.135L413.65 245.594C413.65 245.594 477.43 328.974 480.027 333.667C482.624 338.36 491.567 349.285 489.413 373.251C487.259 397.217 430.018 471.192 414.919 479.539C399.821 487.887 386.184 488.406 372.72 490.503C360.948 492.311 273.991 491.099 251.237 490.753C243.327 490.709 235.573 488.558 228.771 484.521C221.962 480.405 216.846 473.577 211.21 462.363L199.228 438.917L30.8133 412.2Z" fill="#C33633"/>
<path d="M46.258 408.007L20.8304 447.764C20.102 448.875 19.7501 450.191 19.8267 451.517C19.9034 452.844 20.4045 454.11 21.256 455.13C22.1076 456.15 23.2645 456.869 24.5559 457.181C25.8474 457.492 27.2048 457.381 28.4279 456.862C31.591 455.465 34.4772 453.51 36.9487 451.092C48.5853 440.013 69.3197 410.873 69.3197 410.873L46.258 408.007Z" fill="#C33633"/>
<path d="M228.579 415.105C228.607 414.909 228.652 414.716 228.713 414.528C228.842 414.13 229.015 413.572 229.233 412.854C229.845 410.706 230.288 408.513 230.56 406.295C231.446 398.082 230.118 389.78 226.713 382.253C224.401 377.069 221.234 372.309 217.346 368.173C212.87 363.458 207.677 359.478 201.959 356.383C195.62 352.96 188.836 350.436 181.801 348.882C174.218 347.243 166.478 346.443 158.72 346.496C150.998 346.556 143.288 347.122 135.639 348.189C128.196 349.209 121.041 350.439 114.309 352.036C102.342 354.569 90.8086 358.832 80.0719 364.692C72.8646 368.696 66.2757 373.723 60.5107 379.618C58.4719 381.714 57.0294 383.465 56.0484 384.657L54.9521 386.023C54.8376 386.182 54.7088 386.33 54.5674 386.465C56.2775 383.945 58.2085 381.583 60.3376 379.406C66.0487 373.393 72.6295 368.271 79.8603 364.211C90.6091 358.233 102.186 353.883 114.212 351.305C120.964 349.747 128.119 348.497 135.582 347.458C143.292 346.364 151.067 345.786 158.855 345.727C166.653 345.672 174.433 346.485 182.051 348.151C189.156 349.768 196.004 352.357 202.401 355.844C208.196 358.989 213.455 363.033 217.981 367.827C221.906 372.028 225.087 376.868 227.386 382.137C230.799 389.757 232.082 398.159 231.098 406.449C230.792 408.68 230.297 410.881 229.617 413.027L229.021 414.682C228.882 414.831 228.734 414.972 228.579 415.105Z" fill="#191919"/>
<path d="M216.923 401.352C216.827 401.352 217.25 400.371 217.692 398.621C218.261 396.094 218.333 393.481 217.904 390.927C217.315 387.173 216.051 383.556 214.172 380.252C213.102 378.277 211.853 376.403 210.441 374.655C208.939 372.777 207.243 371.063 205.382 369.539C201.775 366.583 197.725 364.214 193.38 362.519C189.818 361.147 186.125 360.142 182.359 359.518C179.812 359.09 177.244 358.795 174.665 358.633C173.713 358.626 172.762 358.555 171.819 358.422C172.068 358.388 172.32 358.388 172.569 358.422C173.05 358.422 173.761 358.422 174.685 358.422C177.261 358.461 179.831 358.673 182.378 359.056C186.201 359.612 189.953 360.573 193.573 361.922C198.011 363.615 202.148 366.011 205.825 369.02C207.711 370.599 209.42 372.379 210.922 374.328C212.375 376.132 213.663 378.063 214.769 380.099C216.663 383.494 217.909 387.211 218.442 391.062C218.816 393.665 218.646 396.318 217.942 398.852C217.764 399.516 217.519 400.16 217.211 400.775C217.132 400.975 217.035 401.168 216.923 401.352Z" fill="#F5F5F5"/>
<g opacity="0.4">
<path d="M177.416 347.631C188.285 349.632 198.629 353.841 207.806 359.999C217.036 366.133 224.15 374.966 228.175 385.292C232.195 395.659 231.599 409.392 227.348 417.99L241.62 419.163C246.428 403.16 241.196 383.503 229.656 370.962C223.049 363.656 214.99 357.807 205.995 353.79C197.001 349.773 187.267 347.675 177.416 347.631Z" fill="black"/>
</g>
<path d="M287.185 337.399C287.185 337.63 241.812 337.803 185.86 337.803C129.908 337.803 84.5342 337.63 84.5342 337.399C84.5342 337.168 129.908 336.995 185.86 336.995C241.812 336.995 287.185 337.187 287.185 337.399Z" fill="#191919"/>
<path d="M287.281 330.263C289.329 327.655 290.596 324.521 290.936 321.223C291.244 316.145 289.012 309.798 283.492 309.798H213.788C211.101 309.798 208.441 310.327 205.959 311.356C203.477 312.385 201.222 313.892 199.323 315.793C197.425 317.694 195.919 319.95 194.893 322.433C193.866 324.915 193.339 327.576 193.342 330.263H287.281Z" fill="#C33633"/>
<path d="M379.201 257.096L367.065 231.822C365.444 228.354 365.175 224.406 366.31 220.75C367.445 217.094 369.901 213.992 373.2 212.05L409.437 190.431C411.333 189.297 413.5 188.699 415.708 188.699H423.536L426.691 239.785L414.592 244.517L422.286 256.942L379.201 257.096Z" fill="#C33633"/>
<path d="M423.651 190.546C423.651 190.546 436.057 193.393 437.615 212.511C439.173 231.63 426.69 237.516 426.69 237.516L423.651 190.546Z" fill="white"/>
<path d="M423.651 190.546C423.736 190.879 423.782 191.221 423.786 191.565L424.017 194.316C424.228 196.816 424.478 200.202 424.805 204.356C425.459 212.819 426.325 224.456 427.171 237.554L426.46 237.131C427.792 236.401 429.016 235.489 430.095 234.419C432.552 232.041 434.423 229.124 435.557 225.898C436.631 222.889 437.209 219.726 437.269 216.531C437.47 211.084 436.424 205.664 434.211 200.682C432.662 197.353 430.251 194.498 427.229 192.412C426.097 191.663 424.9 191.02 423.651 190.488C424.007 190.512 424.358 190.589 424.69 190.719C425.649 191.061 426.57 191.499 427.441 192.027C430.639 194.039 433.206 196.912 434.846 200.317C437.213 205.372 438.359 210.913 438.192 216.493C438.158 219.771 437.579 223.021 436.481 226.11C435.275 229.486 433.299 232.535 430.71 235.015C429.568 236.15 428.273 237.121 426.863 237.9L426.19 238.247V237.477C425.344 224.148 424.69 212.281 424.267 203.837C424.075 199.74 423.901 196.393 423.786 193.912L423.671 191.277C423.645 191.034 423.639 190.79 423.651 190.546Z" fill="#191919"/>
<path d="M379.009 222.532C379.009 222.532 345.984 238.189 341.945 240.67C339.156 242.459 336.752 245.575 338.945 251.076C342.695 260.424 358.179 251.634 358.179 251.634L388.953 236.246C388.953 236.246 400.763 230.649 396.397 223.686C391.435 215.954 379.009 222.532 379.009 222.532Z" fill="#191919"/>
<path d="M374.835 202.029C380.242 202.029 384.625 194.304 384.625 184.776C384.625 175.247 380.242 167.523 374.835 167.523C369.428 167.523 365.045 175.247 365.045 184.776C365.045 194.304 369.428 202.029 374.835 202.029Z" fill="#191919"/>
<path d="M376.432 196.643L381.817 215.281C382.8 214.788 383.584 213.973 384.039 212.972C384.494 211.971 384.593 210.845 384.318 209.78C382.971 203.394 382.202 198.855 380.721 193.258C380.548 192.7 376.432 196.643 376.432 196.643Z" fill="#191919"/>
<g opacity="0.3">
<path d="M269.99 422.26C269.451 420.721 268.912 419.163 268.393 417.547C267.874 415.932 267.354 414.489 266.951 412.989C266.321 410.687 265.871 408.34 265.604 405.968C256.526 442.917 270.374 468.941 294.186 470.768C328.942 473.442 371.334 475.385 388.433 470.884C419.689 462.69 431.153 436.628 433.884 432.415C436.615 428.203 461.485 382.676 446.251 338.937C431.018 295.199 404.475 248.729 404.455 248.729L379.163 257.173C379.163 257.173 383.798 278.773 391.126 304.624C399.185 333.033 409.995 377.502 409.379 403.487C408.984 419.122 403.934 434.283 394.877 447.033H280.03C280.03 447.033 277.568 444.571 269.99 422.337" fill="black"/>
</g>
<path d="M26.2163 402.583L27.0241 393.812L236.676 417.971C239.479 418.302 242.185 419.202 244.628 420.616C247.071 422.03 249.199 423.928 250.883 426.193C252.567 428.458 253.77 431.044 254.42 433.79C255.069 436.537 255.151 439.388 254.66 442.167L253.718 447.476L36.7373 415.932C33.608 415.477 30.7723 413.839 28.8148 411.356C26.8574 408.872 25.9273 405.732 26.2163 402.583Z" fill="#C33633"/>
<g opacity="0.3">
<path d="M26.2163 402.583L27.0241 393.812L236.676 417.971C239.479 418.302 242.185 419.202 244.628 420.616C247.071 422.03 249.199 423.928 250.883 426.193C252.567 428.458 253.77 431.044 254.42 433.79C255.069 436.537 255.151 439.388 254.66 442.167L253.718 447.476L36.7373 415.932C33.608 415.477 30.7723 413.839 28.8148 411.356C26.8574 408.872 25.9273 405.732 26.2163 402.583Z" fill="black"/>
</g>
<g opacity="0.3">
<path d="M433.922 461.247C433.922 461.247 480.084 410.489 489.605 370.558C494.389 370.534 499.168 370.888 503.896 371.616C503.896 371.616 476.584 445.822 433.922 461.247Z" fill="black"/>
</g>
<path d="M488.932 352.671C489.058 353.091 489.142 353.523 489.182 353.959C489.298 354.806 489.548 356.037 489.721 357.671C490.143 362.26 490.021 366.883 489.355 371.443C488.288 378.214 486.233 384.791 483.258 390.966C479.607 398.47 475.529 405.759 471.044 412.797C463.001 425.662 453.965 437.881 444.02 449.341C440.27 453.785 437.173 457.324 435 459.747L432.518 462.536C432.239 462.877 431.93 463.192 431.595 463.479C431.826 463.109 432.09 462.762 432.384 462.44L434.769 459.555L443.597 448.976C453.381 437.452 462.322 425.239 470.352 412.431C474.82 405.409 478.91 398.154 482.604 390.697C485.566 384.61 487.652 378.134 488.798 371.462C489.518 366.942 489.718 362.353 489.394 357.787C489.298 356.171 489.086 354.921 489.028 354.075C488.956 353.61 488.924 353.141 488.932 352.671Z" fill="#191919"/>
<path d="M409.13 460.882C404.025 456.63 399.271 451.973 394.916 446.957C397.552 448.981 400.022 451.213 402.301 453.631C404.772 455.857 407.055 458.283 409.13 460.882Z" fill="#191919"/>
<path d="M272.144 459.324C272.88 456.95 274.025 454.724 275.529 452.746C276.823 450.63 278.462 448.745 280.376 447.168C280.569 447.322 278.453 449.861 276.202 453.188C273.952 456.516 272.356 459.42 272.144 459.324Z" fill="#191919"/>
<path d="M183.456 488.637C185.977 486.333 188.102 483.63 189.745 480.635C191.471 477.364 192.524 473.78 192.842 470.095C193.311 465.604 192.528 461.07 190.579 456.996C188.631 452.923 185.593 449.468 181.801 447.014C178.743 444.935 175.295 443.495 171.665 442.783C168.305 442.169 164.866 442.124 161.49 442.648C161.49 442.648 161.721 442.552 162.183 442.436C162.814 442.262 163.456 442.133 164.106 442.052C166.625 441.704 169.184 441.762 171.684 442.225C175.41 442.883 178.959 444.304 182.109 446.399C186.057 448.897 189.218 452.459 191.229 456.675C193.24 460.891 194.019 465.59 193.477 470.23C193.122 473.999 191.989 477.654 190.149 480.962C188.933 483.192 187.376 485.216 185.533 486.963C184.898 487.598 184.302 487.983 183.956 488.291C183.803 488.425 183.635 488.541 183.456 488.637Z" fill="#191919"/>
<path d="M106.884 472.557C106.364 470.13 106.113 467.653 106.134 465.171C105.879 462.697 105.879 460.202 106.134 457.728C106.655 460.161 106.906 462.644 106.884 465.133C107.15 467.6 107.15 470.09 106.884 472.557Z" fill="#191919"/>
<path d="M112.443 472.576C111.738 470.168 111.287 467.693 111.097 465.19C110.655 462.722 110.468 460.215 110.539 457.708C111.257 460.114 111.709 462.59 111.885 465.094C112.35 467.56 112.537 470.069 112.443 472.576Z" fill="#191919"/>
<path d="M198.92 330.263C198.92 330.474 173.434 330.667 141.987 330.667C110.539 330.667 85.0342 330.474 85.0342 330.263C85.0342 330.051 110.539 329.859 141.987 329.859C173.434 329.859 198.92 330.032 198.92 330.263Z" fill="#191919"/>
<path d="M65.4347 508.025C65.1856 507.827 64.9598 507.601 64.7615 507.352C64.3576 506.89 63.7037 506.217 62.9728 505.274C60.8165 502.667 58.8861 499.881 57.2025 496.946C51.6392 487.222 48.7335 476.206 48.7773 465.003C48.8212 453.801 51.8132 442.807 57.4526 433.127C59.1337 430.203 61.0643 427.429 63.2228 424.837C63.9537 423.895 64.6269 423.241 65.0308 422.779C65.2381 422.532 65.4701 422.306 65.7232 422.106C65.5617 422.379 65.3749 422.637 65.1654 422.875C64.7808 423.375 64.1653 424.068 63.4728 425.03C61.4265 427.673 59.5874 430.47 57.9719 433.396C52.5319 443.042 49.6512 453.919 49.604 464.992C49.5569 476.065 52.3449 486.966 57.7026 496.658C59.3043 499.598 61.1238 502.414 63.1459 505.082C63.8191 506.063 64.4346 506.736 64.8 507.256C65.0418 507.486 65.255 507.744 65.4347 508.025Z" fill="#C33633"/>
<path d="M280.396 483.021C280.396 483.021 282.165 524.162 282.204 526.144L290.936 532.76L311.882 527.548L309.958 482.078L280.396 483.021Z" fill="#FFBE9D"/>
<path d="M338.098 121.034L360.006 132.747L396.647 106.031L407.302 124.419C407.302 124.419 384.991 145.942 377.066 153.27C369.142 160.598 363.949 164.503 358.159 163.368C352.37 162.233 320.133 144.326 320.133 144.326C320.133 144.326 329.52 121.418 338.098 121.034Z" fill="#FFBE9D"/>
<path d="M360.121 140.903C360.121 140.903 360.256 141.037 360.333 141.268V141.46H359.852V141.287V140.71C359.719 139.612 359.648 138.508 359.64 137.402C359.459 135.82 359.596 134.218 360.044 132.69C360.583 134.192 360.787 135.794 360.64 137.383C360.64 138.671 360.64 139.845 360.544 140.71V141.287V141.46C359.544 141.46 360.256 141.46 360.044 141.46V141.249C359.986 141.037 360.063 140.903 360.121 140.903Z" fill="#EB996E"/>
<path d="M401.205 129.42C401.936 129.651 408.764 122.284 408.764 122.284C408.764 122.284 421.555 122.053 424.613 120.361C427.671 118.668 432.307 112.359 432.307 112.359L426.133 93.5481C420.422 93.9219 414.738 94.6284 409.11 95.6639C405.033 96.7987 395.281 107.012 395.281 107.012L391.088 113.532C391.088 113.532 389.78 125.9 401.205 129.42Z" fill="#FFBE9D"/>
<path d="M422.824 121.418C424.392 121.306 425.952 121.107 427.498 120.822C430.576 120.303 433.749 120.034 433.653 116.975C433.662 116.469 433.561 115.966 433.359 115.501C433.157 115.037 432.857 114.621 432.48 114.283C432.48 114.283 434.75 113.34 434.73 111.628C434.725 111.13 434.602 110.641 434.372 110.199C434.141 109.758 433.809 109.378 433.403 109.089C433.403 109.089 436.538 107.647 436.634 105.108C436.647 104.17 436.398 103.246 435.916 102.441C435.433 101.636 434.737 100.981 433.903 100.549C433.903 100.549 443.52 97.7989 444.29 97.4912C447.021 96.3756 452.233 93.8944 450.06 91.8556C449.271 91.1054 448.964 90.2784 443.463 90.9516C438.462 91.5478 430.595 93.3943 430.595 93.3943C430.595 93.3943 423.863 93.7213 420.324 94.0867C415.937 94.4883 411.594 95.2669 407.341 96.4141C402.802 98.5106 398.839 104.473 398.839 104.473L408.822 122.284L422.824 121.418Z" fill="#FFBE9D"/>
<path d="M431.73 114.206C430.831 114.083 429.924 114.032 429.018 114.052H426.075C425.492 114.006 424.907 114.006 424.325 114.052C423.659 114.136 423.038 114.433 422.555 114.898C422.291 115.134 422.097 115.439 421.996 115.778C421.894 116.118 421.888 116.479 421.978 116.821C422.174 117.423 422.594 117.926 423.151 118.226C423.606 118.507 424.09 118.739 424.594 118.918L425.863 119.399C426.671 119.687 427.306 119.88 427.787 119.995C428.268 120.11 428.498 120.168 428.498 120.13C428.498 120.091 427.537 119.745 425.998 119.13C425.095 118.789 424.22 118.377 423.382 117.899C422.918 117.637 422.568 117.212 422.401 116.706C422.338 116.439 422.35 116.159 422.434 115.898C422.519 115.637 422.674 115.404 422.882 115.225C423.301 114.827 423.831 114.565 424.402 114.475C424.965 114.428 425.531 114.428 426.094 114.475H429.037C429.94 114.457 430.841 114.367 431.73 114.206Z" fill="#EB996E"/>
<path d="M421.228 101.069C422.228 100.643 423.112 99.983 423.805 99.1453C424.615 98.4245 425.23 97.5117 425.594 96.491C425.498 96.491 424.709 97.6066 423.497 98.8568C422.286 100.107 421.151 100.973 421.228 101.069Z" fill="#EB996E"/>
<path d="M413.111 96.6256C415.66 97.2388 417.977 98.5745 419.786 100.472C421.574 102.365 423.066 104.518 424.209 106.858C425.171 108.782 425.998 110.994 424.94 112.782C424.296 113.658 423.352 114.267 422.289 114.494C421.226 114.721 420.116 114.55 419.17 114.013C417.324 112.901 415.872 111.24 415.016 109.262C414.167 107.292 413.082 105.431 411.784 103.723" fill="#FFBE9D"/>
<path d="M411.918 103.704C411.918 103.704 412.265 104.146 412.822 105.031C413.527 106.28 414.169 107.564 414.746 108.878C415.181 109.805 415.696 110.694 416.285 111.532C416.958 112.517 417.837 113.344 418.862 113.956C420.028 114.619 421.402 114.819 422.709 114.513C423.429 114.351 424.094 113.999 424.632 113.494C425.152 112.971 425.495 112.298 425.613 111.571C425.749 110.141 425.461 108.703 424.786 107.435C424.208 106.272 423.566 105.142 422.863 104.05C421.71 102.181 420.254 100.516 418.554 99.126C417.404 98.1939 416.103 97.4653 414.707 96.9718C414.326 96.8338 413.934 96.7308 413.534 96.6641C413.265 96.6641 413.13 96.6641 413.13 96.6641C413.13 96.6641 413.688 96.8179 414.65 97.1834C416.001 97.7302 417.26 98.4829 418.381 99.4145C420.031 100.81 421.441 102.467 422.555 104.319C423.222 105.402 423.831 106.52 424.382 107.666C425.016 108.843 425.29 110.181 425.171 111.513C425.072 112.163 424.777 112.767 424.324 113.244C423.856 113.687 423.279 113.999 422.651 114.148C421.441 114.452 420.16 114.28 419.074 113.667C418.096 113.086 417.25 112.306 416.592 111.378C416.005 110.562 415.484 109.7 415.034 108.801C414.403 107.476 413.69 106.191 412.899 104.954C412.611 104.531 412.342 104.223 412.168 104.011C411.995 103.8 411.918 103.685 411.918 103.704Z" fill="#EB996E"/>
<path d="M431.441 114.206C427.497 114.209 423.555 114.414 419.632 114.821C418.51 115.027 417.354 114.928 416.285 114.533C415.458 114.129 415.15 112.051 414.938 111.167L429.403 108.916" fill="#FFBE9D"/>
<path d="M429.403 108.916C429.029 108.913 428.655 108.946 428.287 109.012L425.21 109.436L414.9 110.955H414.688V111.186C414.842 111.84 414.977 112.571 415.208 113.282C415.3 113.579 415.429 113.864 415.592 114.129C415.672 114.263 415.769 114.386 415.881 114.494C416.006 114.606 416.149 114.697 416.304 114.763C416.849 114.977 417.431 115.081 418.016 115.071C419.151 115.071 420.189 114.917 421.19 114.84C423.113 114.667 425.036 114.513 426.498 114.417C427.96 114.321 429.229 114.283 430.095 114.244C430.53 114.276 430.968 114.276 431.403 114.244C430.971 114.172 430.533 114.14 430.095 114.148C429.229 114.148 427.998 114.148 426.479 114.148C424.959 114.148 423.151 114.321 421.151 114.475C420.151 114.475 419.093 114.686 418.035 114.667C417.501 114.68 416.971 114.582 416.477 114.379C416.016 114.225 415.804 113.686 415.612 113.167C415.419 112.648 415.265 111.782 415.112 111.109L414.939 111.359C419.016 110.724 422.632 110.128 425.21 109.686L428.268 109.147C428.652 109.101 429.031 109.024 429.403 108.916Z" fill="#EB996E"/>
<path d="M433.615 108.108L418.554 110.993C417.499 111.259 416.406 111.344 415.323 111.243C414.784 111.189 414.267 111.003 413.817 110.701C413.368 110.399 412.999 109.991 412.746 109.512C412.524 108.806 412.542 108.046 412.795 107.351C413.049 106.655 413.525 106.063 414.15 105.666C415.438 104.9 416.873 104.415 418.362 104.242C422.94 103.342 427.442 102.088 431.826 100.492" fill="#FFBE9D"/>
<path d="M431.788 100.434C431.636 100.455 431.488 100.493 431.345 100.549L430.095 100.953C429.018 101.28 427.46 101.78 425.517 102.3C423.575 102.819 421.228 103.415 418.612 103.935C417.2 104.119 415.824 104.522 414.535 105.127C413.842 105.489 413.263 106.035 412.861 106.704C412.415 107.4 412.237 108.234 412.361 109.051C412.455 109.457 412.634 109.838 412.885 110.169C413.137 110.501 413.457 110.775 413.823 110.974C414.507 111.347 415.275 111.539 416.054 111.532C417.46 111.429 418.855 111.217 420.228 110.897L427.21 109.512L431.903 108.551L433.172 108.262L433.615 108.128C433.462 108.106 433.306 108.106 433.153 108.128L431.864 108.339L427.152 109.166L420.151 110.474C418.804 110.783 417.433 110.982 416.054 111.07C415.349 111.081 414.653 110.909 414.034 110.57C413.722 110.402 413.449 110.169 413.233 109.888C413.018 109.606 412.865 109.281 412.784 108.935C412.68 108.225 412.837 107.5 413.227 106.897C413.591 106.297 414.109 105.806 414.727 105.473C415.98 104.882 417.316 104.486 418.689 104.3C421.305 103.761 423.652 103.146 425.594 102.588C427.537 102.03 429.095 101.473 430.153 101.088L431.364 100.607L431.788 100.434Z" fill="#EB996E"/>
<path d="M403.494 111.801C403.494 111.801 403.706 112.244 404.283 112.763C405.056 113.408 405.962 113.875 406.937 114.129C407.909 114.392 408.929 114.432 409.918 114.244C410.668 114.09 411.092 113.879 411.072 113.821C409.738 114.034 408.375 114.001 407.052 113.725C405.753 113.321 404.544 112.668 403.494 111.801Z" fill="#EB996E"/>
<path d="M321.999 218.359C321.999 218.359 358.544 225.11 361.083 225.802C363.622 226.495 374.066 231.418 374.547 234.573C374.826 238.723 374.826 242.887 374.547 247.037C374.547 247.037 372.623 248.556 371.508 245.517C370.736 242.562 370.405 239.509 370.527 236.458L364.757 234.227L367.911 239.843L368.43 252.999C368.43 252.999 364.391 252.634 363.602 249.479C363.106 247.295 362.848 245.064 362.833 242.824L358.602 239.247L361.775 243.536L362.833 252.999C362.833 252.999 359.756 253.999 358.775 251.903C358.072 249.17 357.723 246.358 357.736 243.536L345.811 239.362L337.925 243.767L329.366 239.074C328.168 238.412 327.131 237.495 326.327 236.388C325.522 235.282 324.971 234.012 324.711 232.669L321.999 218.359Z" fill="#FFBE9D"/>
<path d="M249.025 36.7882L250.236 100.549C250.331 105.566 252.322 110.36 255.809 113.967C259.295 117.575 264.018 119.729 269.028 119.995C271.739 120.135 274.449 119.717 276.992 118.768C279.535 117.818 281.856 116.357 283.812 114.475C285.768 112.593 287.317 110.33 288.364 107.826C289.41 105.321 289.932 102.629 289.897 99.9147C289.897 93.8367 289.705 88.8743 289.705 88.8743C289.705 88.8743 305.208 87.2779 306.208 71.9098C306.765 63.0236 306.208 42.7893 305.765 27.2865C305.597 22.2134 303.524 17.3897 299.96 13.7756C296.396 10.1615 291.601 8.02202 286.531 7.7831L277.241 7.30225C273.439 7.3411 269.683 8.13977 266.194 9.65128C262.705 11.1628 259.553 13.3566 256.924 16.1038C254.295 18.851 252.242 22.0961 250.885 25.6483C249.529 29.2004 248.896 32.988 249.025 36.7882Z" fill="#FFBE9D"/>
<path d="M289.705 88.7203C282.604 88.3267 275.763 85.9108 269.99 81.7576C269.99 81.7576 274.356 93.2981 289.782 92.6056L289.705 88.7203Z" fill="#EB996E"/>
<path d="M302.111 41.7313C301.842 42.0198 300.187 40.6927 297.86 40.5773C295.533 40.4619 293.706 41.5582 293.475 41.2505C293.244 40.9427 293.648 40.6157 294.436 40.0964C295.5 39.4506 296.733 39.1422 297.975 39.2116C299.206 39.2708 300.386 39.7224 301.341 40.5003C302.034 41.0773 302.265 41.6159 302.111 41.7313Z" fill="#191919"/>
<path d="M279.357 46.7899C279.337 47.3647 279.092 47.9087 278.674 48.3044C278.257 48.7002 277.701 48.9161 277.126 48.9057C276.845 48.9108 276.567 48.8606 276.306 48.758C276.045 48.6554 275.806 48.5024 275.605 48.3077C275.403 48.113 275.241 47.8804 275.129 47.6233C275.017 47.3662 274.957 47.0896 274.952 46.8092C274.972 46.2344 275.217 45.6905 275.635 45.2947C276.052 44.8989 276.608 44.683 277.183 44.6934C277.464 44.6857 277.744 44.7341 278.006 44.8358C278.268 44.9375 278.508 45.0904 278.71 45.2856C278.912 45.4808 279.074 45.7144 279.185 45.9727C279.296 46.2309 279.354 46.5088 279.357 46.7899Z" fill="#191919"/>
<path d="M300.88 46.7899C300.86 47.3647 300.614 47.9087 300.197 48.3044C299.78 48.7002 299.224 48.9161 298.649 48.9057C298.368 48.9134 298.088 48.8649 297.826 48.7633C297.563 48.6616 297.324 48.5087 297.122 48.3135C296.92 48.1183 296.758 47.8847 296.647 47.6264C296.536 47.3681 296.478 47.0903 296.475 46.8092C296.495 46.2344 296.74 45.6905 297.158 45.2947C297.575 44.8989 298.131 44.683 298.706 44.6934C298.987 44.6857 299.267 44.7341 299.529 44.8358C299.791 44.9375 300.031 45.0904 300.233 45.2856C300.435 45.4808 300.597 45.7144 300.708 45.9727C300.819 46.2309 300.877 46.5088 300.88 46.7899Z" fill="#191919"/>
<path d="M279.28 40.8851C278.991 41.1543 277.357 39.8272 275.029 39.7118C272.702 39.5964 270.875 40.6927 270.625 40.3849C270.375 40.0772 270.817 39.7502 271.606 39.2501C272.662 38.586 273.899 38.2698 275.145 38.3461C276.375 38.4053 277.555 38.8569 278.511 39.6348C279.203 40.2311 279.415 40.7504 279.28 40.8851Z" fill="#191919"/>
<path d="M286.743 59.696C288 59.3714 289.292 59.2035 290.59 59.1959C291.186 59.1959 291.782 59.0805 291.898 58.6766C291.973 58.0568 291.866 57.4285 291.59 56.8686L290.013 52.1754C288.559 48.1947 287.427 44.104 286.627 39.9425C288.398 43.7949 289.858 47.7826 290.994 51.8677C291.513 53.5218 291.994 55.0798 292.475 56.58C292.815 57.3288 292.877 58.1749 292.648 58.9651C292.551 59.1761 292.407 59.3622 292.227 59.5089C292.047 59.6556 291.835 59.7591 291.609 59.8114C291.271 59.8566 290.928 59.8566 290.59 59.8114C289.308 59.9305 288.016 59.8917 286.743 59.696Z" fill="#191919"/>
<path d="M279.684 60.9655C280.088 60.9655 279.953 63.5429 282.05 65.4663C284.146 67.3897 286.897 67.2551 286.897 67.6205C286.897 67.986 286.262 68.0821 285.108 68.0629C283.604 68.001 282.168 67.416 281.05 66.4088C279.979 65.4033 279.333 64.0276 279.242 62.5619C279.203 61.5618 279.511 60.9463 279.684 60.9655Z" fill="#191919"/>
<path d="M279.569 32.3066C279.299 32.9221 276.972 32.4989 274.164 32.6913C271.356 32.8836 269.105 33.5184 268.759 32.9221C268.605 32.6528 269.028 32.0566 269.971 31.4795C271.212 30.77 272.602 30.3615 274.029 30.287C275.457 30.189 276.888 30.433 278.203 30.9987C279.203 31.4603 279.684 31.9988 279.569 32.3066Z" fill="#191919"/>
<path d="M301.399 33.1913C300.957 33.7107 299.36 33.0567 297.398 32.9413C295.437 32.8259 293.763 33.1144 293.417 32.5181C293.263 32.2489 293.552 31.7295 294.302 31.2487C295.305 30.6889 296.452 30.4412 297.596 30.5371C298.741 30.6331 299.83 31.0683 300.726 31.7872C301.399 32.3643 301.553 32.9413 301.399 33.1913Z" fill="#191919"/>
<path d="M253.621 48.521C253.371 48.3863 243.216 44.8472 243.004 55.3683C242.793 65.8894 253.467 63.9468 253.467 63.7159C253.467 63.4851 253.621 48.521 253.621 48.521Z" fill="#FFBE9D"/>
<path d="M250.294 59.5806C250.294 59.5806 250.121 59.7153 249.794 59.8499C249.354 60.0169 248.868 60.0169 248.429 59.8499C247.776 59.3919 247.255 58.7708 246.917 58.0485C246.58 57.3263 246.438 56.5282 246.505 55.7338C246.501 54.8319 246.692 53.9398 247.063 53.1179C247.17 52.7891 247.356 52.4912 247.604 52.2499C247.852 52.0087 248.155 51.8313 248.486 51.7331C248.695 51.6828 248.916 51.7072 249.109 51.802C249.302 51.8968 249.456 52.0561 249.544 52.2524C249.679 52.5601 249.544 52.7717 249.679 52.791C249.813 52.8102 249.91 52.6178 249.833 52.1755C249.772 51.914 249.631 51.6783 249.429 51.5023C249.137 51.282 248.773 51.1791 248.409 51.2138C247.982 51.2998 247.582 51.4907 247.246 51.7694C246.911 52.048 246.649 52.4057 246.486 52.8102C246.012 53.7105 245.773 54.7164 245.793 55.7338C245.723 56.6713 245.929 57.6089 246.387 58.4298C246.846 59.2506 247.536 59.9184 248.371 60.35C248.655 60.4309 248.952 60.4504 249.244 60.4073C249.536 60.3642 249.815 60.2594 250.063 60.0999C250.275 59.8691 250.333 59.5999 250.294 59.5806Z" fill="#EB996E"/>
<path d="M247.794 47.8478C248.796 47.8389 249.783 48.1003 250.649 48.6047C251.516 49.109 252.23 49.8376 252.718 50.7137C253.314 52.2524 253.391 53.9642 253.987 55.503C254.218 56.2958 254.706 56.9892 255.375 57.4735C256.044 57.9577 256.855 58.2051 257.68 58.1765C258.235 58.0341 258.743 57.7474 259.152 57.3454C259.561 56.9434 259.856 56.4405 260.007 55.8876C260.29 54.7825 260.362 53.6341 260.219 52.5024C259.834 47.5593 259.065 42.6353 259.123 37.6729C258.977 32.6837 260.316 27.7636 262.969 23.5358C264.319 21.4483 266.208 19.7639 268.435 18.6603C270.663 17.5566 273.147 17.0748 275.626 17.2655C278.876 17.6886 281.78 19.5543 285.012 20.1891C286.919 20.5288 288.878 20.4338 290.743 19.9109C292.608 19.388 294.331 18.4509 295.783 17.1693C296.168 16.8423 297.86 15.8421 297.86 15.8421C297.876 14.671 297.548 13.521 296.918 12.5339C290.782 6.2443 279.261 3.97467 270.644 5.68651C266.264 6.52154 262.12 8.30162 258.499 10.9027C254.878 13.5037 251.868 16.8632 249.679 20.7469C245.601 28.5367 246.12 39.6925 247.755 47.8478" fill="#191919"/>
<path d="M293.109 14.1495C287.339 14.3611 276.164 16.5154 271.567 20.0929C271.028 20.5161 270.432 21.2085 270.798 21.8048C271.163 22.401 271.702 22.2664 272.221 22.2471C277.558 22.5196 282.855 23.325 288.031 24.6514C291.326 25.8153 294.811 26.3439 298.302 26.2094C300.047 26.1137 301.736 25.5672 303.206 24.6233C304.676 23.6793 305.876 22.3702 306.688 20.8238L308.17 21.3816C306.485 18.9914 304.216 17.072 301.58 15.8061C298.944 14.5402 296.028 13.9699 293.109 14.1495Z" fill="#191919"/>
<path d="M305.169 21.2278C302.031 18.2758 298.01 16.4375 293.725 15.9961C280.415 14.7843 258.565 18.785 246.986 41.6544C245.724 37.6966 244.937 33.6032 244.639 29.46C244.639 26.3248 246.563 7.68691 265.797 1.91667C265.835 1.91667 294.802 -8.98908 305.169 21.2278Z" fill="#C33633"/>
<g opacity="0.3">
<path d="M305.169 21.2278C301.833 17.6641 297.236 15.5451 292.359 15.3229C280.434 14.7458 257.891 20.0929 246.986 41.6544C245.724 37.6966 244.937 33.6032 244.639 29.46C244.639 26.3248 246.563 7.68691 265.797 1.91667C265.835 1.91667 294.802 -8.98908 305.169 21.2278Z" fill="black"/>
</g>
<path d="M248.794 38.4039C254.564 28.7868 263.22 22.151 272.548 16.3807C281.877 10.6105 297.245 4.9749 307.843 2.20519C310.981 1.1931 314.3 0.865168 317.575 1.24348C319.207 1.45647 320.746 2.12528 322.015 3.17314C323.284 4.22101 324.232 5.60548 324.75 7.1676C325.75 11.1683 318.633 17.2848 315.286 19.689C312.189 21.7524 308.978 23.6403 305.669 25.3439C305.669 25.3439 305.285 18.1888 293.436 16.6308C277.299 14.515 248.294 38.8078 248.794 38.4039Z" fill="#C33633"/>
<path d="M270.778 8.87938C274.292 7.22571 277.965 5.93669 281.742 5.03255C285.558 4.44311 289.424 4.23051 293.282 4.39782C292.197 4.00305 291.052 3.79493 289.897 3.78231C287.106 3.55909 284.298 3.71438 281.549 4.24394C278.811 4.77985 276.158 5.68573 273.663 6.93671C272.604 7.42661 271.631 8.08243 270.778 8.87938Z" fill="white"/>
<path d="M312.151 524.99L312.266 526.798C312.266 526.798 344.964 537.703 345.715 543.493L282.319 545.916L281.934 525.663C286.744 527.643 291.912 528.606 297.113 528.49C302.314 528.375 307.434 527.183 312.151 524.99Z" fill="#C33633"/>
<g opacity="0.6">
<path d="M282.319 545.916L282.223 541.05L342.964 540.492C342.964 540.492 345.849 541.569 345.657 543.493L282.319 545.916Z" fill="white"/>
</g>
<path d="M312.498 526.951C312.498 527.24 310.978 527.432 309.516 528.452C308.054 529.471 307.324 530.741 307.016 530.644C306.708 530.548 307.016 528.721 308.939 527.605C310.863 526.49 312.555 526.682 312.498 526.951Z" fill="#191919"/>
<path d="M319.306 529.336C319.403 529.625 318.095 530.163 317.114 531.471C316.133 532.779 315.921 534.106 315.613 534.106C315.306 534.106 314.998 532.433 316.248 530.837C317.498 529.24 319.287 529.048 319.306 529.336Z" fill="#191919"/>
<path d="M323.557 536.876C323.269 536.876 322.749 535.472 323.442 533.818C324.134 532.164 325.557 531.471 325.692 531.702C325.827 531.933 325 532.856 324.442 534.222C323.884 535.587 323.865 536.876 323.557 536.876Z" fill="#191919"/>
<path d="M317.229 383.407L306.497 347.631L292.206 302.085L292.994 278.638L269.067 262.155C253.429 262.424 207.864 259.731 207.864 259.731C207.864 259.731 209.037 283.505 211.384 300.623C211.859 304.019 213.117 307.259 215.057 310.086L236.042 340.688L272.125 408.007C272.125 408.007 274.529 432.05 275.53 452.823C276.645 476.096 280.396 518.219 280.396 518.219L317.518 519.104L319.845 425.857C320.787 411.854 321.826 396.678 317.229 383.407Z" fill="#191919"/>
<path d="M340.214 382.272C344.484 385.734 348.311 432.8 341.272 429.376L349.639 437.282L372.027 433.435L375.124 383.984L340.214 382.272Z" fill="#FFBE9D"/>
<path d="M276.933 241.613C276.933 241.613 369.68 266.848 379.298 286.813C383.173 293.35 384.983 300.906 384.491 308.49C383.933 321.954 376.278 418.759 376.278 418.759L341.252 416.451L337.886 380.733L337.309 326.666L339.752 320.511C337.071 321.13 334.281 321.097 331.616 320.415C327.635 319.242 267.201 300.95 267.201 300.95L243.601 263.751L276.933 241.613Z" fill="#191919"/>
<path d="M372.566 430.723V432.646C372.566 432.646 405.418 447.322 405.418 453.65L339.233 450.88L341.041 428.896C345.856 431.446 351.164 432.929 356.604 433.244C362.044 433.559 367.488 432.699 372.566 430.723Z" fill="#C33633"/>
<g opacity="0.6">
<path d="M339.291 450.88L339.714 445.591L403.013 450.188C403.013 450.188 405.898 451.592 405.475 453.65L339.291 450.88Z" fill="white"/>
</g>
<path d="M372.719 432.896C372.719 433.223 371.065 433.3 369.43 434.262C367.795 435.224 366.891 436.57 366.603 436.416C366.314 436.262 366.872 434.493 368.872 433.3C370.873 432.108 372.815 432.589 372.719 432.896Z" fill="#191919"/>
<path d="M379.548 436.051C379.548 436.378 378.201 436.859 377.028 438.186C375.855 439.513 375.508 440.936 375.105 440.917C374.701 440.898 374.662 438.994 376.124 437.436C377.586 435.878 379.567 435.743 379.548 436.051Z" fill="#191919"/>
<path d="M383.145 444.552C382.856 444.552 382.471 442.975 383.375 441.244C384.279 439.513 385.818 438.859 385.953 439.128C386.087 439.397 385.107 440.321 384.376 441.744C383.645 443.167 383.472 444.552 383.145 444.552Z" fill="#191919"/>
<path d="M354.562 302.547C353.452 303.06 352.426 303.741 351.523 304.566C349.231 306.428 347.171 308.559 345.388 310.913C343.603 313.287 342.117 315.871 340.964 318.607C340.409 319.701 340.033 320.876 339.848 322.088C341.611 318.382 343.683 314.83 346.042 311.471C348.622 308.259 351.473 305.273 354.562 302.547Z" fill="#C33633"/>
<path d="M347.042 295.199C346.177 296.255 345.465 297.427 344.926 298.68C341.994 304.58 340.323 311.026 340.021 317.607C339.9 318.961 339.959 320.326 340.194 321.665C340.423 320.336 340.558 318.993 340.598 317.645C340.899 314.401 341.452 311.186 342.252 308.028C343.061 304.892 344.115 301.824 345.407 298.853C346.024 297.669 346.57 296.449 347.042 295.199Z" fill="#C33633"/>
<path d="M284.915 281.466C285.165 281.466 289.359 293.006 294.263 307.24C299.168 321.473 302.938 333.244 302.669 333.34C302.399 333.437 298.225 321.896 293.321 307.567C288.416 293.237 284.646 281.562 284.915 281.466Z" fill="#C33633"/>
<path d="M299.053 111.263L314.19 105.185L353.678 126.631L337.56 163.522L302.803 146.269L299.053 111.263Z" fill="#C33633"/>
<path d="M314.19 105.185L290.185 96.1063C290.185 96.1063 284.935 107.204 273.452 103.8C261.969 100.396 249.313 90.163 249.313 90.163C249.313 90.163 227.482 98.8183 220.827 102.761C214.172 106.704 210.575 209.011 210.575 209.011L208.767 248.595L207.69 256.058C207.231 259.63 206.993 263.227 206.979 266.829C247.659 275.965 287.877 266.29 309.439 254.326C309.439 254.326 312.285 252.095 311.055 246.998C309.824 241.901 307.208 241.016 307.208 241.016L307.746 196.278L311.747 150.52L314.19 105.185Z" fill="#C33633"/>
<path d="M335.674 220.898L281.665 198.547L248.197 124.438L218.423 136.94C218.423 136.94 250.39 217.301 262.796 223.975C275.202 230.649 326.365 233.727 326.365 233.727L335.674 220.898Z" fill="#FFBE9D"/>
<path d="M220.769 102.761C220.769 102.761 209.517 108.397 209.537 129.939C209.537 148.654 215.057 178.486 215.057 178.486L268.066 160.041L251.679 121.957C247.832 112.878 239.292 96.1832 220.769 102.761Z" fill="#C33633"/>
<path d="M221.173 176.371C221.459 176.221 221.754 176.092 222.058 175.986L224.655 174.986L234.406 171.447L267.97 159.579L267.682 160.195C266.008 155.155 264.181 149.77 262.181 144.288C259.026 135.652 255.737 127.554 252.371 120.341C250.884 116.908 249.074 113.623 246.966 110.532C245.185 107.828 242.706 105.655 239.792 104.242C235.486 102.29 230.748 101.488 226.04 101.915C224.771 102.061 223.533 102.398 222.366 102.915C221.985 103.163 221.587 103.382 221.173 103.569C221.173 103.569 221.173 103.473 221.443 103.338C221.696 103.11 221.973 102.91 222.27 102.742C223.426 102.122 224.682 101.711 225.982 101.53C230.781 100.938 235.651 101.649 240.081 103.588C243.136 105.022 245.748 107.255 247.64 110.051C249.812 113.163 251.674 116.481 253.198 119.957C256.641 127.17 259.949 135.344 263.123 143.942C265.046 149.443 266.97 154.828 268.586 159.887L268.739 160.348L268.297 160.502L234.618 172.043L224.77 175.313L222.116 176.159C221.813 176.271 221.496 176.343 221.173 176.371Z" fill="#191919"/>
<path d="M304.784 242.594C303.961 243.365 303.08 244.073 302.149 244.709C301.284 245.363 300.226 246.152 298.899 246.96C297.572 247.768 296.129 248.787 294.417 249.691C292.705 250.595 290.84 251.614 288.743 252.615C286.647 253.615 284.415 254.538 282.011 255.481C276.756 257.392 271.352 258.865 265.854 259.885C260.343 260.801 254.765 261.252 249.178 261.232C246.601 261.232 244.139 261.116 241.869 260.828C239.754 260.668 237.648 260.398 235.561 260.02C233.637 259.75 231.925 259.308 230.406 258.981C228.886 258.654 227.617 258.289 226.559 257.962C225.465 257.691 224.396 257.324 223.366 256.865C224.478 257.023 225.577 257.261 226.655 257.577C227.713 257.846 228.983 258.173 230.502 258.423C232.022 258.673 233.714 259.097 235.638 259.308C237.561 259.52 239.658 259.885 241.927 260.001C244.197 260.116 246.601 260.251 249.159 260.308C254.69 260.283 260.209 259.807 265.662 258.885C271.109 257.894 276.467 256.466 281.684 254.615C284.05 253.673 286.339 252.845 288.378 251.865C290.416 250.884 292.34 249.941 294.148 249.076C295.956 248.21 297.341 247.268 298.668 246.479C299.812 245.837 300.922 245.137 301.995 244.382C302.876 243.713 303.809 243.115 304.784 242.594Z" fill="#191919"/>
<path d="M305.015 148.404H290.186V155.424H305.015V148.404Z" fill="white"/>
<path d="M313.42 126.612C313.709 126.612 313.151 137.46 312.209 150.77C311.266 164.08 310.285 174.889 309.997 174.87C309.708 174.851 310.266 164.022 311.208 150.712C312.151 137.402 313.093 126.592 313.42 126.612Z" fill="#191919"/>
<path d="M195.303 207.299H36.4102V329.84H195.303V207.299Z" fill="#3E3636"/>
<path d="M155.489 328.993C155.316 328.993 155.162 301.681 155.162 267.983C155.162 234.284 155.316 206.972 155.489 206.972C155.662 206.972 155.797 234.284 155.797 267.983C155.797 301.681 155.662 328.993 155.489 328.993Z" fill="#191919"/>
<path d="M189.764 301.969H169.645V322.088H189.764V301.969Z" fill="#F5F5F5"/>
<path opacity="0.3" d="M195.303 206.972H155.489V330.186H195.303V206.972Z" fill="black"/>
<path d="M194.765 207.299C194.765 207.587 159.374 207.799 115.732 207.799C72.0898 207.799 36.6797 207.587 36.6797 207.299C36.6797 207.01 72.0705 206.799 115.732 206.799C159.394 206.799 194.765 207.03 194.765 207.299Z" fill="#191919"/>
<path d="M137 279C139.209 279 141.018 277.206 140.83 275.005C140.432 270.333 139.336 265.743 137.575 261.397C135.313 255.816 131.998 250.745 127.82 246.473C123.641 242.202 118.68 238.813 113.221 236.502C107.761 234.19 101.909 233 96 233C90.0905 233 84.2389 234.19 78.7792 236.502C73.3196 238.813 68.3588 242.202 64.1802 246.473C60.0016 250.745 56.6869 255.816 54.4254 261.397C52.6641 265.743 51.5685 270.333 51.17 275.005C50.9823 277.206 52.7909 279 55 279L96 279H137Z" fill="#C33633"/>
<circle cx="92.5" cy="256.5" r="7.5" fill="#E0E0E0"/>
<circle cx="103.75" cy="263.75" r="3.75" fill="#E0E0E0"/>
<line x1="88" y1="269.028" x2="88" y2="257" stroke="#E0E0E0" stroke-width="6" stroke-linecap="round"/>
<line x1="101.5" y1="270.5" x2="101.5" y2="264.5" stroke="#E0E0E0" stroke-width="3" stroke-linecap="round"/>
<line x1="53" y1="283" x2="139" y2="283" stroke="#C33633" stroke-width="4" stroke-linecap="round"/>
</svg>
