<svg width="310" height="215" viewBox="0 0 310 215" fill="none" xmlns="http://www.w3.org/2000/svg">
<g filter="url(#filter0_i_22_50)">
<circle cx="203.028" cy="107.772" r="106.381" fill="#0779E4"/>
</g>
<path d="M172.65 189.712C173.365 190.817 246.035 203.571 249.662 203.129C249.835 203.103 250.004 203.061 250.168 203.003C254.772 201.756 277.425 187.85 279.152 186.65C283.407 183.714 272.054 157.56 267.834 152.919C265.043 149.841 259.201 147.995 259.201 147.995C259.201 147.995 249.47 101.479 240.541 90.8243C238.309 88.1567 193.089 81.1801 184.439 83.4372C180.742 84.4159 171.01 91.0926 170.487 92.45C170.016 94.4862 171.952 188.576 172.65 189.712Z" fill="#1E1E1E"/>
<path d="M172.65 189.712C173.365 190.817 246.035 203.571 249.662 203.129C249.835 203.103 250.005 203.061 250.168 203.002C245.965 184.914 226.136 100.026 225.282 99.3792C224.427 98.732 181.056 93.176 170.557 92.4657C170.016 94.4861 171.952 188.576 172.65 189.712Z" fill="#CD931C"/>
<path d="M216.214 90.9032C217.051 90.3823 219.004 81.4326 217.958 79.4912C216.772 77.2656 199.21 75.9397 197.92 77.5181C196.629 79.0966 194.659 88.0146 195.13 88.4092C195.6 88.8039 198.443 89.4984 198.931 88.9775C199.42 88.4566 200.675 81.0854 200.972 80.6592C201.268 80.233 213.65 81.2274 213.964 81.843C214.278 82.4586 212.046 89.8456 212.482 90.2402C212.918 90.6348 215.411 91.4556 216.214 90.9032Z" fill="#1E1E1E"/>
<path d="M179.922 111.068C163.748 119.013 98.8513 133.01 79.7913 123.276C67.2456 116.891 34.5091 77.1801 28.502 66.0735C21.4645 53.0755 51.5325 35.1269 58.4832 40.8683C67.0915 48.0101 92.2897 82.0838 100.626 88.1861C105.369 91.7113 144.374 90.4231 180.681 89.1703C194.38 88.762 190.915 105.696 179.922 111.068Z" fill="#F9E0BB"/>
<path d="M28.5021 66.0735C26.0752 62.0692 16.6282 42.9078 15.2767 37.096C13.9252 31.2842 11.2983 14.3569 15.9684 13.1782C20.6385 11.9996 21.8315 16.926 21.8315 16.926C21.8315 16.926 21.848 8.98775 26.8126 8.88961C30.7561 8.81836 32.8383 15.6724 32.8383 15.6724C32.8383 15.6724 33.3282 6.99225 38.2913 7.49312C42.8322 7.93691 43.0637 15.7412 43.0637 15.7412C43.0637 15.7412 44.279 8.55114 48.5982 9.75393C53.7872 11.2125 51.6742 23.6331 53.6893 29.9819C54.1565 31.4196 65.2185 58.6453 65.2185 58.6453L28.5021 66.0735Z" fill="#F9E0BB"/>
<path d="M43.3946 15.6346C42.8433 25.1437 42.9253 29.1178 46.9142 37.7216C46.9892 37.8797 46.8073 38.0358 46.6331 37.8446C41.9434 29.6241 41.4458 24.9788 42.8835 15.5146C43.0071 14.9894 43.4419 15.1174 43.3946 15.6346Z" fill="#CD931C"/>
<path d="M32.9322 15.7203C32.2231 25.4767 33.5969 29.9802 37.0501 39.2386C37.0971 39.3708 36.8694 39.4449 36.8008 39.3222C32.5704 30.455 30.5866 25.1491 32.5851 15.6049C32.6731 15.1845 32.954 15.2779 32.9322 15.7203Z" fill="#CD931C"/>
<path d="M22.0069 17.384C22.1042 26.8256 23.0745 32.0277 27.6929 40.6741C27.7133 40.715 27.7166 40.7606 27.7021 40.8019C27.6877 40.8432 27.6566 40.8771 27.6151 40.8969C27.5735 40.9167 27.5245 40.921 27.4779 40.9088C27.4312 40.8965 27.3904 40.8688 27.3634 40.8311C21.7811 32.3138 20.4858 25.9045 21.7068 17.4008C21.8063 16.7844 21.9881 16.8448 22.0069 17.384Z" fill="#CD931C"/>
<path d="M76.3998 61.5798C76.3998 61.5798 72.6254 51.049 71.4414 45.8258C70.2575 40.6026 69.3122 25.5999 64.9133 23.3881C59.9664 20.8942 56.2292 33.9238 58.159 43.2253C58.159 43.2253 43.3525 49.6939 44.7406 58.7487C46.1288 67.8034 76.3998 61.5798 76.3998 61.5798Z" fill="#F9E0BB"/>
<path d="M58.0083 44.2076C52.1373 46.5357 45.8363 51.5854 45.1138 57.4903C45.0577 57.6549 44.8174 57.6583 44.8238 57.4772C44.6413 50.9882 51.8938 45.0892 57.2865 43.3015C58.2887 42.9519 59.5397 43.6009 58.0083 44.2076Z" fill="#CD931C"/>
<path d="M37.0825 83.9974C37.0825 83.9974 67.3878 125.714 86.4578 128.124C95.9349 129.309 112.744 128.253 129.922 125.737C147.345 123.202 165.312 119.067 176.307 114.229C189.281 108.55 193.808 100.063 191.138 94.1788C190.58 93.0159 189.776 91.9579 188.774 91.0695C187.773 90.1812 186.596 89.4812 185.316 89.0126C181.476 87.6237 177.362 87.1687 173.382 87.693C151.014 89.7826 107.523 90.4121 103.303 88.16C99.0838 85.9078 77.837 58.9266 77.837 58.9266L37.0825 83.9974Z" fill="#FFD717"/>
<path d="M45.5497 91.1756C46.9185 89.9653 48.5403 89.039 50.0274 87.9679C51.5145 86.8969 53.0575 85.8777 54.5954 84.8735C57.558 82.9274 60.5601 81.0277 63.5786 79.1335L72.6355 73.5013C75.7622 71.5597 78.8406 69.4356 82.1426 67.7356C82.2774 67.6638 82.4401 67.8345 82.3116 67.9416C79.4493 70.1875 76.2184 72.1111 73.1591 74.125C70.0998 76.1388 67.127 78.1149 64.0995 80.0894C61.072 82.0639 58.028 84.0329 54.9611 85.961C53.4436 86.9054 51.9311 87.8348 50.3462 88.7068C48.7613 89.5788 47.301 90.6254 45.6475 91.3747C45.4631 91.4299 45.4148 91.2473 45.5497 91.1756Z" fill="#CD931C"/>
<path d="M132.54 125.193C150.148 125.505 168.558 124.327 180.205 121.329C193.943 117.821 199.813 110.179 198.152 103.943C195.404 100.497 193.387 98.1145 193.262 97.9059C192.127 98.4001 155.918 114.414 132.54 125.193Z" fill="#CD931C"/>
<path d="M139.408 193.294C156.347 210.329 200.247 218.325 224.235 212.067C259.695 206.505 266.996 186.689 266.996 186.689C268.635 184.937 247.134 148.279 236.235 122.44C229.259 106.024 223.417 97.4535 218.359 92.4499C213.668 87.8093 209.64 86.1362 206.256 84.2106C200.205 80.7222 182.085 81.543 179.121 82.6321C175.79 83.7844 165.169 97.927 161.838 109.97C158.507 122.014 137.839 191.716 139.408 193.294Z" fill="#FFD717"/>
<path d="M235.503 122.424C228.527 106.009 222.685 97.4378 217.628 92.4342L201.793 188.576C218.465 190.028 240.227 208.938 255.523 200.247C254.564 192.528 246.403 148.279 235.503 122.424Z" fill="#CD931C"/>
<path d="M173.784 87.999C173.784 87.6833 174.097 87.636 174.097 87.999C174.202 92.1976 174.324 97.2959 177.219 100.153C181.003 103.846 187.508 101.889 191.886 100.058C198.704 97.1854 203.901 92.166 208.139 86.6258C208.154 86.604 208.173 86.5851 208.196 86.5702C208.219 86.5552 208.245 86.5445 208.273 86.5386C208.3 86.5328 208.329 86.5319 208.357 86.536C208.385 86.5401 208.412 86.5492 208.436 86.5626C208.46 86.5761 208.481 86.5937 208.497 86.6145C208.514 86.6353 208.525 86.6588 208.532 86.6837C208.538 86.7086 208.539 86.7345 208.535 86.7597C208.53 86.785 208.52 86.8092 208.505 86.831C203.64 94.2022 195.984 100.926 186.445 102.789C175.667 104.857 172.231 96.9013 173.784 87.999Z" fill="#CD931C"/>
<path d="M215.69 88.4092C217.068 86.9097 208.261 82.5059 205.959 84.179C203.657 85.8521 192.008 111.722 195.844 139.803C199.681 167.883 255.33 200.666 257.597 196.468C258.011 195.206 258.117 193.878 257.909 192.576C257.702 191.273 257.185 190.027 256.394 188.923C254.284 186.697 215.167 159.091 210.772 141.681C206.848 126.181 212.22 92.2132 215.69 88.4092Z" fill="#1E1E1E"/>
<path d="M236.931 106.372C272.193 140.008 304.02 197.683 284.837 200.682C268.217 203.287 216.091 189.633 203.203 184.63C197.588 182.483 212.254 139.708 218.096 142.328C222.093 144.231 226.265 145.816 230.566 147.063C232.31 146.953 224.758 129.259 217.259 112.18C206.691 88.0935 223.694 93.7601 236.931 106.372Z" fill="#F9E0BB"/>
<path d="M164.872 126.181C163.905 127.197 163.304 128.457 163.148 129.791C162.992 131.124 163.289 132.47 164 133.647C161.572 134.246 159.451 135.591 158 137.451C155.611 140.844 160.442 145.706 160.442 145.706C158.06 146.797 156.097 148.513 154.809 150.631C152.891 154.087 156.972 159.627 156.972 159.627C155.398 161.723 154.711 164.261 155.036 166.778C156.204 173.47 166.72 177.527 173.365 180.163C180.009 182.799 201.634 184.661 205.715 185.387L224.898 146.874C224.898 146.874 198.739 127.349 190.455 125.25C183.375 123.513 168.761 122.471 164.872 126.181Z" fill="#F9E0BB"/>
<path d="M164.61 133.189C172.545 133.442 179.974 135.825 187.525 137.814C187.547 137.807 187.569 137.804 187.592 137.807C187.614 137.809 187.635 137.817 187.654 137.828C187.672 137.84 187.687 137.856 187.698 137.874C187.708 137.892 187.714 137.912 187.714 137.932C187.714 137.952 187.708 137.973 187.698 137.991C187.687 138.009 187.672 138.024 187.654 138.036C187.635 138.047 187.614 138.055 187.592 138.057C187.569 138.06 187.547 138.058 187.525 138.051C180.026 135.999 172.179 135.304 164.61 133.52C164.571 133.509 164.537 133.487 164.513 133.458C164.489 133.428 164.475 133.392 164.475 133.355C164.475 133.318 164.489 133.282 164.513 133.252C164.537 133.222 164.571 133.2 164.61 133.189Z" fill="#CD931C"/>
<path d="M160.826 145.296C162.623 145.517 164.381 145.947 166.058 146.574C167.802 147.142 169.667 147.742 171.464 148.358C175.056 149.61 178.614 150.936 182.137 152.335C182.294 152.335 182.137 152.635 182.049 152.572C178.474 151.341 174.864 150.157 171.237 149.052C169.493 148.5 167.592 147.979 165.761 147.474C164.001 147.079 162.294 146.513 160.669 145.785C160.597 145.766 160.537 145.722 160.501 145.663C160.465 145.604 160.456 145.534 160.477 145.469C160.498 145.404 160.546 145.35 160.612 145.317C160.677 145.284 160.754 145.277 160.826 145.296Z" fill="#CD931C"/>
<path d="M157.129 159.707C158.751 159.927 160.32 160.397 161.768 161.096L166.651 162.863C169.912 164.016 173.173 165.184 176.469 166.241C176.643 166.241 176.469 166.525 176.469 166.478C173.103 165.42 169.72 164.394 166.372 163.321L161.454 161.743C159.9 161.377 158.434 160.757 157.129 159.912C157.099 159.912 157.07 159.901 157.049 159.882C157.027 159.862 157.015 159.836 157.015 159.809C157.015 159.782 157.027 159.756 157.049 159.737C157.07 159.717 157.099 159.707 157.129 159.707Z" fill="#CD931C"/>
<path d="M218.968 140.387L202.872 188.102C202.872 188.102 276.117 208.874 288.325 200.856C300.532 192.837 274.635 137.814 227.549 97.5166C211.016 83.3108 210.772 97.785 216.353 114.122C222.805 133.063 228.176 145.28 228.176 145.28L218.968 140.387Z" fill="#FFD717"/>
<path d="M219.038 140.387C220.782 141.05 240.959 151.72 242.355 152.556C243.082 152.635 243.794 152.81 244.465 153.077C245.284 153.314 246.087 153.566 246.906 153.835C248.441 154.356 249.993 154.876 251.528 155.413C254.542 156.649 257.655 157.677 260.84 158.491C261.015 158.491 260.84 158.759 260.84 158.728C257.549 158.09 254.3 157.283 251.109 156.313C249.505 155.855 247.9 155.366 246.313 154.861L248.057 155.855C254.632 159.801 261.084 163.905 267.624 167.898C271.339 170.171 275.036 172.476 278.803 174.701C278.827 174.722 278.842 174.75 278.846 174.78C278.849 174.81 278.84 174.84 278.822 174.865C278.803 174.89 278.774 174.908 278.742 174.915C278.71 174.923 278.676 174.92 278.646 174.907C265.462 167.109 220.416 142.202 218.829 140.86C218.48 140.639 218.742 140.229 219.038 140.387Z" fill="#CD931C"/>
<path d="M213.563 177.637C214.836 174.291 216.057 170.945 217.365 167.614C219.998 160.969 222.439 154.182 225.439 147.663C225.449 147.639 225.467 147.618 225.49 147.604C225.514 147.589 225.541 147.581 225.57 147.581C225.598 147.581 225.626 147.589 225.649 147.604C225.673 147.618 225.691 147.639 225.701 147.663C224.043 154.66 221.757 161.523 218.864 168.183C217.504 171.466 215.952 174.654 214.348 177.858C212.743 181.063 211.226 184.346 209.517 187.518C210.807 184.235 212.29 180.968 213.563 177.637Z" fill="#CD931C"/>
<path d="M217.678 126.781C218.864 128.138 220.276 129.322 221.48 130.695C221.553 130.762 221.617 130.836 221.672 130.916C219.928 126.765 218.393 122.582 216.841 118.383C216.841 118.383 216.928 118.289 216.963 118.383C219.474 123.497 221.985 128.627 224.235 133.852C225.351 136.472 229.31 145.816 229.083 146.164C228.857 146.511 228.735 146.448 228.56 146.258C228.386 146.069 225.194 139.14 225.072 138.65C224.375 137.072 223.677 135.493 222.997 133.915C222.975 133.859 222.946 133.807 222.91 133.757C222.666 133.457 222.387 133.173 222.125 132.873C221.584 132.258 221.079 131.611 220.555 130.979C219.492 129.701 218.655 128.264 217.556 126.986C217.364 126.812 217.573 126.654 217.678 126.781Z" fill="#CD931C"/>
<path d="M199.796 42.4265C199.796 42.4265 204.157 32.7597 208.433 34.1624C212.71 35.5651 210.546 48.7809 206.32 51.3328C205.8 51.6975 205.211 51.9532 204.589 52.0845C203.967 52.2158 203.325 52.2199 202.701 52.0968C202.077 51.9737 201.485 51.7258 200.959 51.3679C200.434 51.0101 199.986 50.5498 199.644 50.0146L199.796 42.4265Z" fill="#F9E0BB"/>
<path d="M182.94 100.571C189.195 101.433 198.829 91.0731 202.261 83.0963C202.497 82.5555 201.179 77.1475 199.877 70.5058C199.117 66.4667 198.356 61.9544 197.951 57.797C197.951 56.9351 195.111 58.7772 195.111 58.7772L189.854 60.6024L172.427 66.6188C174.412 71.6842 175.769 76.974 176.466 82.3696C176.523 82.9315 176.523 83.4977 176.466 84.0596V84.3469C176.23 87.6931 176.889 99.7259 182.94 100.571Z" fill="#F9E0BB"/>
<path d="M176.45 88.9351V89.2224C177.347 89.2561 178.246 89.2166 179.137 89.1042C196.7 87.0424 196.784 64.5146 196.784 64.5146L189.854 65.478L172.427 71.4944C174.412 76.5598 175.769 81.8495 176.466 87.2451C176.517 87.8076 176.512 88.3738 176.45 88.9351Z" fill="#263238" fill-opacity="0.5"/>
<path d="M200.193 21.4324C204.675 29.9857 204.725 57.389 199.317 64.4853C191.45 74.7887 176.163 78.4674 166.794 68.4855C157.722 58.7976 158.288 23.1757 164.634 16.4724C173.81 6.58732 193.56 8.6722 200.193 21.4324Z" fill="#F9E0BB"/>
<path d="M187.236 36.8644C190.194 36.5602 190.617 42.4752 187.862 42.7794C185.106 43.0836 184.768 37.1348 187.236 36.8644Z" fill="#1C0C01"/>
<path d="M169.581 36.8749C166.606 36.8749 166.792 42.7899 169.581 42.8068C172.37 42.8237 172.066 36.8918 169.581 36.8749Z" fill="#1C0C01"/>
<path d="M190.682 33.9912C189.888 33.8187 189.103 33.6044 188.332 33.349C187.474 33.2383 186.678 32.846 186.067 32.2336C185.91 32.0036 185.834 31.7283 185.849 31.4504C185.864 31.1724 185.971 30.9072 186.152 30.6957C186.575 30.3378 187.087 30.0992 187.633 30.0041C188.18 29.9091 188.742 29.9611 189.262 30.1549C190.377 30.3854 191.366 31.0243 192.034 31.9463C192.177 32.1645 192.252 32.4197 192.252 32.6803C192.251 32.941 192.174 33.1958 192.03 33.4132C191.886 33.6306 191.682 33.8013 191.442 33.904C191.203 34.0067 190.938 34.037 190.682 33.9912Z" fill="#1C0C01"/>
<path d="M165.848 36.465C166.659 36.2622 167.369 35.9581 168.164 35.6877C169.013 35.5224 169.785 35.0831 170.361 34.4371C170.506 34.2006 170.567 33.923 170.537 33.6477C170.506 33.3724 170.385 33.1151 170.192 32.9161C169.747 32.5832 169.222 32.3735 168.67 32.3083C168.118 32.243 167.559 32.3244 167.048 32.5443C165.949 32.8419 164.999 33.5337 164.378 34.4878C164.251 34.7151 164.193 34.9741 164.21 35.2336C164.228 35.4931 164.319 35.7422 164.475 35.9509C164.63 36.1596 164.842 36.3191 165.086 36.4103C165.329 36.5015 165.594 36.5205 165.848 36.465Z" fill="#1C0C01"/>
<path d="M183.76 54.0198C183.346 54.7786 182.779 55.4435 182.095 55.9728C181.412 56.5021 180.626 56.8844 179.788 57.0956C179.055 57.29 178.297 57.3754 177.54 57.3491C177.394 57.3663 177.246 57.3663 177.1 57.3491H176.694C176.596 57.3354 176.505 57.29 176.435 57.2199C176.365 57.1497 176.319 57.0586 176.306 56.9604C176.297 56.8987 176.297 56.8362 176.306 56.7745V56.5548C176.17 55.1352 176.17 52.9889 176.17 52.9889C175.663 53.2762 172.356 53.7663 172.356 52.9889C172.072 46.6024 173.196 41.1164 174.21 34.8045C174.21 34.7597 174.227 34.7167 174.259 34.685C174.291 34.6533 174.334 34.6355 174.379 34.6355C174.424 34.6355 174.467 34.6533 174.498 34.685C174.53 34.7167 174.548 34.7597 174.548 34.8045C174.738 38.494 173.753 44.4824 173.038 49.8976C172.529 53.7587 173.39 52.3116 177.185 51.4341C177.387 51.4341 177.185 55.6084 177.185 56.2506C178.35 56.2835 179.51 56.082 180.596 55.6582C181.682 55.2344 182.672 54.5967 183.506 53.7832C183.709 53.7494 183.861 53.8677 183.76 54.0198Z" fill="#1E1E1E"/>
<path d="M162.713 24.9012C172.128 30.2585 183.521 20.0171 183.521 20.0171C184.442 21.8951 185.944 23.4258 187.805 24.3819C189.666 25.3379 191.785 25.6682 193.849 25.3237C193.849 25.3237 196.857 40.2295 200.83 39.8746C206.881 39.3338 207.033 18.6313 204.785 14.7612C202.537 10.8911 197.314 10.2826 197.314 10.2826C196.543 7.88619 194.895 5.86976 192.699 4.63805C188.304 1.81575 174.41 7.27445 174.41 7.27445C173.432 5.43422 172.037 3.8484 170.336 2.64386C169.927 2.34424 169.462 2.13056 168.968 2.01573C168.474 1.90091 167.962 1.88729 167.463 1.97574C166.964 2.06419 166.488 2.25286 166.064 2.53035C165.639 2.80783 165.276 3.16839 164.995 3.59026C165.823 4.64683 166.401 5.87763 166.685 7.18994C167.767 11.5332 164.166 11.8205 163.862 7.83215C163.704 6.33674 164.081 4.8337 164.927 3.59026C162.932 1.12286 159.957 0.514443 158.318 2.06924C155.394 4.87464 154.886 20.4565 162.713 24.9012Z" fill="#1C0C01"/>
<path d="M207.723 36.7587C207.723 36.7587 207.825 36.8432 207.723 36.877C204.765 38.7698 203.65 42.0484 203.041 45.327C203.166 44.9714 203.367 44.6473 203.63 44.3771C203.893 44.1069 204.212 43.8971 204.564 43.7621C204.916 43.6271 205.293 43.5701 205.669 43.5952C206.046 43.6203 206.412 43.7268 206.743 43.9074C206.827 43.9074 206.743 44.0933 206.743 44.0933C206.146 44.0197 205.541 44.1329 205.011 44.4175C204.481 44.702 204.053 45.1437 203.785 45.6819C203.352 46.5799 203.012 47.52 202.771 48.4873C202.669 48.8084 202.128 48.7577 202.179 48.4028C201.334 44.2454 203.43 37.9586 207.723 36.7587Z" fill="#1E1E1E"/>
<defs>
<filter id="filter0_i_22_50" x="96.647" y="1.39062" width="212.762" height="212.762" filterUnits="userSpaceOnUse" color-interpolation-filters="sRGB">
<feFlood flood-opacity="0" result="BackgroundImageFix"/>
<feBlend mode="normal" in="SourceGraphic" in2="BackgroundImageFix" result="shape"/>
<feColorMatrix in="SourceAlpha" type="matrix" values="0 0 0 0 0 0 0 0 0 0 0 0 0 0 0 0 0 0 127 0" result="hardAlpha"/>
<feOffset dx="-108" dy="-9"/>
<feComposite in2="hardAlpha" operator="arithmetic" k2="-1" k3="1"/>
<feColorMatrix type="matrix" values="0 0 0 0 0 0 0 0 0 0 0 0 0 0 0 0 0 0 0.25 0"/>
<feBlend mode="normal" in2="shape" result="effect1_innerShadow_22_50"/>
</filter>
</defs>
</svg>
